<?xml version="1.0" encoding="UTF-8"?>
<svg id="Layer_1" xmlns="http://www.w3.org/2000/svg" version="1.1" viewBox="0 0 35 35">
  <!-- Generator: Adobe Illustrator 30.5.1, SVG Export Plug-In . SVG Version: 2.1.4 Build 3)  -->
  <defs>
    <style>
      .st0 {
        fill: #fff4c9;
      }

      .st1 {
        fill: #e89a24;
      }
    </style>
  </defs>
  <circle class="st1" cx="17.5" cy="17.5" r="17.5"/>
  <g>
    <path class="st1" d="M16,2.6c3.6-.3,7.1.6,10,2.5,2.8,1.9,3,2.5,4.1,4.2.8,1.2,1.4,2.6,1.8,4.2,1.2,4.9,0,9.8-3.1,13.6-8,9.5-23,5.4-25.7-6.5C1,11.9,7.1,3.4,16,2.6Z"/>
    <path class="st0" d="M16,2.6c3.6-.3,7.1.6,10,2.5,2.8,1.9,3,2.5,4.1,4.2.8,1.2,1.4,2.6,1.8,4.2,1.2,4.9,0,9.8-3.1,13.6-8,9.5-23,5.4-25.7-6.5C1,11.9,7.1,3.4,16,2.6ZM16.2,3C3.6,3.7-1.4,20,8,28.3c10.8,9.5,26.1-.4,23.7-14-.3-1.6-.7-2.9-1.3-3.9-1.2-2.3-2.8-3.5-4.2-4.4-2.7-1.9-5.5-3.2-10-2.9h0Z"/>
    <path class="st0" d="M6.5,16.8c0,0,.2,0,.3,0,0,0,.3-.1.4-.1s0,.1.2.2c.2,0,.3,0,.6,0,0,0,0,.1,0,.1.1,0,.3-.1.5,0s.5.2.5.2c.1,0,.2.3.2.4s.5.4.5.4c0,0,.2,0,.2,0h-.2c.8,0,1.6.2,2.4,0,.8-.2,1.6-.7,2.4-.9.2,0,.1-.4.1-.5,0-.2.5.3.5.4-1.1,1-2.7,1.7-4.2,1.7h.6c.9,0,1.6-.5,2.5-.6-.5.6-1.4.8-1.9,1.3,0,0,1-.4,1.2-.5.7-.4,1.5-1.1,2-1.7.1-.1.2-.3.3-.5,0,.2-.1.3-.2.5-.6.9-1.4,1.6-2.2,2.2.2,0,.5-.2.7-.3.6-.4,1.1-1,1.6-1.5,0,.1,0,.2,0,.3-.1.2-.6.7-.7.9-.2.2-.5.5-.8.8,0,0,.2-.1.3-.2.2-.2.5-.3.7-.5.2-.2.4-.5.6-.8s.1-.2.2-.1c-.2.9-1,1.4-1.7,2,0,0,.1,0,.2,0,.5-.2,1-.7,1.4-1,0,.1,0,.2-.1.3,0,0-.4.5-.5.6-.2.2-.6.3-.6.6l1-.6.3-.3c0,.6-.6.6-.8.9-.2.3,0,.2-.2.3-.2.2-.5.2-.6.4h.1c-.3.8-.2,1.4-.9,1.9l.3-.2-.2.3c.1.1.5-.5.6-.5-.1.2.2.4.3.6h-.2c-.1.2.4.3.6.4.4.1.4.1.7.3.3.1.7.2,1,.2-.4-.4-1-.7-1.5-.8h.4c.7.4,1.9.2,2.2,1,.4-.4.6-1,1.2-1.1h0c.2,0,.5,0,.8,0,.8-.2,1.3-1.1,1.1-1.9-.3-.8-.3-.7-.5-.6h0c0,.1-.1,0-.1,0,0,.2.2.2.2.4.2.5,0,1.3-.6,1.3-.6,0-.5,0-.4-.3h-.3s.2,0,.2,0h0c-.4,0-.5.6-1,.7,0,0-1.1,0-1.2,0-.1,0-.1,0-.1-.1h.2c-.1-.2-.3,0-.3-.1,0,0-.2-.5-.1-.6h.1c0-.1-.2-.4-.2-.6,0-.6,0-1.4,0-2,0-1.1,0-2.2,0-3.4,0-1.1.2-.5,0-.6h-.1c-.1-.4.4-1,.3-1.6l-.5.9c-.2-.6.4-1.1.2-1.6l-.4.8h-.2c0-.4.3-.7.4-1.2-.3,0-.4.5-.6.5-.2,0-.3-.2-.4-.2-2.2-1.1-4.7-1.5-6.9-.2-.6.4-1.1.9-1.7,1.3.3-.7.9-1.1,1.5-1.5-.5,0-.9.6-1.2.8s0,0,0,0c.2-.1.2-.3.4-.5.5-.5,1.6-1.3,2.3-1.7.3-.2.7-.3,1-.5-.5,0-1,.3-1.4.5-.5.3-1.1.7-1.6,1-.2.1-.6.6-.8.6s0,0,0,0c.8-1.3,2.3-1.9,3.5-2.7,0,0,.1-.2.2-.2.2-.1.5,0,.8.1.6.1,1.1,0,1.7,0,.5,0,1,0,1.4,0,0-.1-.1,0-.2-.1-.8,0-1.7,0-2.6,0s-.7-.2-1.1-.2c0,0,0,.1,0,.2-.1.1-.9.5-1.1.5.1-.2.3-.3.5-.5.8-.6,1.7-1.2,2.5-1.7,0,0,0-.1,0-.1-.3,0-1.4.8-1.8,1.1-.9.6-1.7,1.3-2.5,2-.4.3-.8.4-1.1.9,0-.2.2-.4.2-.6,1.7-1.2,3.3-2.8,5.1-3.7.7-.3,1.4-.6,2.1-1,0-.1,0,0-.1,0-.5.2-.9.5-1.3.7-1.6.8-3,1.5-4.4,2.5l-1.5,1.3c0,0,0-.1,0-.2.4-.6,1.3-1.3,2-1.7,1.1-.8,2.6-1.9,3.8-2.5.6-.3,1.2-.5,1.8-.7,0-.1,0,0-.1,0-1,.1-2.6.9-3.5,1.5-.3.2-.2.2-.4.3-.4.3-1.2.7-1.6,1-.4.3-.9.7-1.3,1h0c.6-.7,1.3-1.3,2-1.8.8-.6,1.6-1.3,2.5-1.6.7-.3,1.5-.5,2.1-.8,0,0,.2,0,.2-.1-.2,0-.5,0-.8.1-.9.2-2,.6-2.7,1.1-1.3.8-2.5,1.8-3.6,2.9,0,0,0-.1,0-.2.2-.3.4-.5.7-.8,1.9-2,3.9-3.3,6.6-3.8.4,0,.8,0,1.2-.2,0,0,.2,0,.2-.1-1.5,0-3.1.3-4.4,1-1.6.8-2.8,2-4.2,3.2h-.2c.7-.7,1.3-1.4,2.1-2,2.7-2.1,6.7-3.1,10-2.6,3.2.5,6,1.9,8.3,4.2-.2.2-.3-.1-.5-.2-1.2-.9-2.3-1.6-3.7-2.2-2.1-.9-4.4-1.5-6.7-1.3,0,0,0,.1,0,.1.3,0,.8,0,1.1,0,2.8.2,5.1,1,7.5,2.6.7.5,1.4,1,2,1.6h-.2c0,0,0,0,0,0,.6.4,1.2.8,1.6,1.4,0,0-.1,0-.2,0-.5-.4-1.1-.8-1.6-1.2l-2.8-1.6c.3.3.8.6,1.2.9,1.2.8,2.2,1.2,3.1,2.3.1.1.3.3.3.5-.9-.8-1.8-1.5-2.8-2.2-1-.7-2.2-1.5-3.4-1.9.4.4,1.1.6,1.6.9.2.1.3.3.5.5.5.4,1.1.6,1.6,1.1,0,0-.1,0-.2,0-1.1-.4-1.8-1.1-2.8-1.6,0,0-.3-.1-.2,0,.8.5,1.4,1.2,2.2,1.5.4.2,1,.2,1.3.4.4.2,1.1.9,1.4,1.2.4.3.3.2.5.4.2.2.4.2.4.7,0,0,.1.1,0,0-.3-.4-.7-.6-1-.8-.7-.6-1.6-1.2-2.4-1.6,0,0-.3-.2-.4-.1.4.3.9.6,1.3.9.3.2.8.6,1.1.9.2.2,1.2,1.1,1.4,1.3,0,.1.1.3,0,.4l-3.1-2.5c-.4-.2-.7-.5-1.1-.7s-.1,0-.1,0c1.5,1,2.8,2.4,4.4,3.3,0,.4.2,1.5,0,1.8s-.3.1-.3.2h0c0,0,.4,0,.4,0,0,.2,0,.3.1.4v.4c-.2,0-.3-.3-.4-.4,0-.1,0-.1-.1,0,.2.3-.2.3-.3.5.1.2.3-.2.5-.1.2.2.3.4.3.7h.1c.3.2.1.6.5.7h0c.8,1.5.9,3.5.3,5.2-.6,1.7-1.9,3.3-2.9,4.2-.2.1-.4.3-.6.4.4-.5.9-.9,1.3-1.3.9-1,2-2.5,2.3-3.8.2-.9.3-1.9.1-2.8s0-.2,0-.2c0,.4.1.8,0,1.2,0,.4-.1,1-.2,1.4,0,.4,0,.3-.1.3.3-1.4.4-2.7-.1-4,0-.2-.3-.5-.4-.6,0-.1,0-.3,0-.4-.1,0,0,.1-.1.2,0,.4.3,1.4.4,1.9.3,1.3.2,2.4-.3,3.6-.1,0,0-.1,0-.2,0-.2.1-.3.2-.5.2-1.1.2-3-.5-3.9-.7-.9-.5-.4-.4-.6.3,0,.4-.2.3-.5l-.5.4h0c0,.5.4.7.5,1.1.5,1.1.5,2.5.4,3.7,0,0,0-.1,0-.2,0-.2,0-.5,0-.7,0-.7-.4-2-.9-2.6,0,0-.3-.1-.3-.3l.3-.4-.6.3c0,.2.1.2.2.3.7,1,1.1,3.3.8,4.5s-.5,1.2-.7,1.8c-.1,0,0-.1,0-.2,0-.4.3-.9.4-1.4.3-1.4,0-2.7-.6-3.9,0,0,0,.1,0,.2.4,1.3.6,2.4.4,3.7-.4,2.2-1.9,4.4-3.8,5.5-1.9,1.1-1.2.5-1.9.7,0,0-.2,0-.2,0,.4-.1.7-.4,1.1-.6.6-.2.8-.2,1.3-.6,1.5-1.2,2.7-2.8,3.1-4.7.3-1.2,0-1.8-.3-2.9-.3-1.1,0-.2,0-.3,0,0-.1,0-.2,0s0-.2-.1-.2c0,.4.2.7.4,1.1.3,1.1.2,2,0,3,0,.1,0,.3-.2.4,0-.4.1-.7.1-1.1,0-.9-.2-1.8-.6-2.6h-.3c0,.3.2.5.4.7.3.6.3,1.7.3,2.4,0,.6-.4,2-1,2.5-.5.4-.4.5-.8.9-.2.3-1,1.1-1.3,1.2,0,0-.4.2-.5,0,.5-.2.9-.6,1.2-1s.5-.6.5-.9c-.1.2-.2.4-.4.5-.2.3-1.1,1.1-1.4,1.2-.1,0-.3.1-.5.1l.3-.3h-.1c-.2,0-.2.2-.5.3-.7.3-1.6.3-2.4.4,0,0,0,.1,0,.1.8,0,1.8-.1,2.6-.3,0,.2,0,0-.1.1-.1,0-.2.2-.3.2-.4.2-.6,0-1.1.4,0,0-.1,0,0,.1.3,0,.7-.1,1-.2.3,0,.2,0,.3-.1.3,0,.6,0,1-.1.2,0-.2.2-.2.2.7-.2,1.4-.5,2-1,.7-.5,1.3-1.2,2-1.7,0,0-.3.4-.3.4-3.2,3.3-7.4,4.6-12,3.7-2.2-.4-4.5-1.6-6.1-3.1l1.7,1.1c3.6,2.3,9.2,3,12.8.5-.4.2-.9.3-1.4.4-.3,0-.8,0-1,.3h.2c-.7.2-1.4.4-2.1.5-2.9.4-6.8-.8-8.9-2.7-1-.9-2.3-2.7-2.4-4.1,0,0,0-.1,0-.2.4,1.7,1.5,3.3,2.9,4.5.6.5,1.8,1.3,2.5,1.5.7.1,1.2.5,1.9.6.4,0,.8,0,1.2,0,0-.1-.1,0-.2-.1-1.2-.4-2-.6-3.1-1.3-1.9-1.1-3.1-3.1-2.4-5.3.1-.4.4-.8.5-1.2-.1-.1-.6.5-.6.6-.4,1.1-.5,2.4,0,3.5.3.8,1.4,1.8,2.2,2.3.3.2.6.3.9.5-.7-.2-1.3-.6-1.8-1.1-1.5-1.3-2.6-3.5-1.7-5.5.2-.5.6-.9.9-1.3h-.1c-.5.4-1,1-1.2,1.7s-.2,1.7,0,2.5v-.3c-.2,0-.2.2-.3,0-.5-1,0-3.2.6-4.2.1-.2.4-.4.3-.7l-.5.5c-.3.3-1.1,2-1,2.4v1s.2.2,0,.2c-.2-.3-.2-.7-.2-1.1,0-.9.4-2.4,1-3.2s.5-.3.2-.5c0,.3-.3.2-.4.3s-.5.8-.6,1c-.2.5-.3,1.1-.5,1.6-.2.5,0,.3-.1.4,0-.2,0-.4,0-.5,0-.8.4-2.4,1-2.8.3-.2,0-.3,0,0v-.3c-.4.4-.7.8-.9,1.3-.6,1.4-.6,2.1-.2,3.6l.4,1.2c-.3-.4-.5-1-.6-1.4-.2-.9-.3-2,0-2.9.2-.9.4-.8.4-1.2,0-.4,0-.3,0-.5,0-.3.6-.7.3-1,0,.3-.4.6-.5.8-.5.9-.6,2-.6,3-.1,0-.1-.1-.1-.2-.1-.6.1-2.5.4-3.1.1-.2.3-.4.5-.6h-.2c0-.2.1-.4,0-.6-.2,0-.2.3-.5.2h.3c-.2.3-.4.6-.5.9,0,.2-.4,1-.4,1.1v1.5s0-.2,0-.2c-.2-1.1,0-2.3.3-3.3,0-.1.2-.2.2-.4,0-.2,0-.5.2-.6,0,0-.5.4-.6.5-.4.5-.6,1.1-.7,1.8,0,.2,0,.5,0,.7,0,0,0-.2,0-.2,0-.6.2-1.7.5-2.2,0-.1.8-.7,1-.7s.4,0,.6,0c0-.1,0,0-.2,0-.5,0-.7,0-1.1.3,0-.2,0-.3,0-.5-.4,0-.8.8-.9,1.1,0,.3,0,.6-.1.9,0,.3,0,.2,0,.1,0-.4,0-.9.1-1.4,0-.1.2-.7.3-.8s.1,0,.2-.1c0,0,.2-.4.2-.5.1,0,0,.5,0,.5h.2s0,0,0,0h0ZM21.1,5.4c0-.1-.2-.1-.4-.2-.7-.2-1.5-.3-2.2-.3l2.6.5ZM19,5.6c-.5,0-1.1-.1-1.7,0,0,0-.2,0-.3.1.5,0,1.1,0,1.6,0s.3,0,.3,0h0ZM20.6,6c-.3-.2-.8-.3-1.2-.4,0,.2,0,0,.1.1.3,0,.7.2,1,.2ZM26.5,8.2c-.8-.8-1.9-1.2-2.8-1.7-1-.5-.6-.5-1-.5,0,.1,0,.1.1.2.2.1.4.2.6.3,1,.6,2,1.4,3.1,1.8h0ZM24.4,8.8c-.4-.1-.8-.4-1.2-.7l.6.5.6.2h0c0-.1,0-.1,0-.1ZM19,8.9h-3.9s.1,0,.2,0c.6.2,2.6.2,3.3,0,0,0,.3,0,.4-.1h0ZM19.8,9.6h-3.8c0,.1-.4,0-.5.1,1.5.3,3,0,4.5,0,0,0,0-.2-.1-.2ZM14.8,10.7c-.7-.2-1.4-.1-2.1-.2-.4,0-.8-.2-1.2,0,0,.2.4,0,.5.1.7,0,1.4,0,2.1,0,.2,0,.7.3.6,0h0ZM19.8,10.5c0-.1-.2-.1-.3-.1-.3,0-.7,0-1,0-.9,0-1.9,0-2.8,0,0,0,0,.1,0,.1.2,0,.5,0,.8,0s.3,0,.4,0c1,0,1.9,0,2.9-.2h0ZM10.4,11.2c-.6.3-1.3.5-1.8,1,.5-.2,1.2-.5,1.7-.8.5-.3.2,0,.1-.2h0ZM15.3,11.3c-.3,0-.7,0-.9.2.3,0,.7,0,.9-.2ZM27.9,13.5c0-.2-.1-.3-.3-.4-1.7-1.9-5-2.1-7.3-1.1-.2.1-.8.6-1,.6-.2,0-.4-.4-.3,0,0,.2.2.3,0,.5l-.3-.4-.3-.2c0,.3.3.5.3.7.1.4,0,.7,0,1.1l-.4-.6c0,.4.1.8.3,1.1l-.2-.2c0,.2.2.4,0,.6h-.2c0-.1.4,5.1.4,5.1.7,0,.1-.7,0-1.1,0-.4,0-.8,0-1.2,0-.4-.1-.3-.1-.5.2.2.3.5.5.7.2.2.1.2.1,0-.2-.6-.7-1-.6-1.7l.8,1.5c.1,0,0,0,0-.1,0-.2-.2-.3-.3-.5,0-.2-.2-.6-.3-.9.3.3.4.7.8,1l-.9-1.5.2-.4c0,.2.2.1.3.1,0,0,.1-.3.3-.2l-.6.7c0,0,0,0,0,0,.3,0,.7-.9,1-.9l-.7.9c0,.2.2,0,.3,0,.3-.3.4-.8.9-.9,0,.2.2.2.2.3,0,.3-.7.6-.8.9.2,0,.2,0,.3.1.7.3,1.4.5,2.1.8.9.4,2.4,0,3.2-.6.2,0,.3-.3.5-.4.6-.3,1.3,0,2.1-.4.8-.4.2,0,.1-.2-.4.2-.7.1-1.1,0,0,.1.2.2.4.2h0c0,.1-.3,0-.3,0-.5-.2-1.3-1-1.8-1.1-.2,0-.3,0-.4,0-.5,0-.8-.3-1.4-.4-.8,0-1.4.3-2.1.5,0-.4.4-.7.8-.9.7-.3,1.6-.3,2.3,0,1.2.5,2.1,2,3.5,1.5.2,0,.6-.2.5-.5-.7.4-1.5.6-2,0,.4.1,1,.3,1.4,0,.4-.2.3-.3.4-.3.1,0,.3,0,.3-.1h-.5c0,0,0,.2-.1.2-.2.2-1.4,0-1.6-.3.3,0,.5.1.8,0,.3,0,.4-.2.7-.2.4,0,.2.3.9,0s.2,0,.2-.1c-.2,0-.3,0-.4,0,0-.1.2-.4,0-.4-.2,0,0,.3-.2.4-.1.1-.7-.5-.9-.6-.2-.2-.4,0-.5-.5l-.9-.5c.2,0,.4.1.6.2.1,0,.8.5.9.5.2.2.1.5.5.1h0c0-.1-.3,0-.3,0h0ZM16.1,12.2c0,0-.5.4-.4.5h.2l.2-.5ZM27.4,12.3c0,0,.9.8,1,.9.2,0,.5.2.6,0,0,0-.5-.3-.6-.3-.1,0-.9-.6-1-.6h0ZM26.7,16.4c-.2-.1-.9.7-1.1.8-1.2.9-2.4,1-3.8.4s-1-.7-1.5-.6c.2.3.5.3.8.5.3.1.5.3.8.4,1.5.6,3.3,0,4.4-1.2s.3-.3.3-.5h0ZM11,18.4c-.5,0-1.2-.2-1.7-.6s-.8-.9-1-.7c0,.1,0,.2,0,.2.2.3.9.8,1.2.9s.9.3,1.3.3c.5,0,0,0,0-.1h0ZM10.3,19c-.2-.2-.6-.3-.9-.4-.4-.2-1.4-.8-1.7-1-.1-.1-.1-.2-.2-.3,0,0,0,.2,0,.3,0,.2.9.7,1.1.9.5.3,1,.6,1.6.6h0ZM27.1,16.8c-.4,0-.6.4-.9.6-.2.2-.5.4-.8.5l-1,.5c.8-.1,1.7-.8,2.3-1.3s0-.2.1-.2.2,0,.2-.1h0ZM22.5,18.9c-.2-.2-.6-.3-.9-.4-.3-.1-.5-.3-.6-.4-.3-.2-.5-.4-.8-.7.3.9,1.4,1.3,2.3,1.5h0ZM20.7,18.6l-.5-.5h-.2c0,0,.5.4.5.5s.1.1.2,0h0ZM7.9,19.8c.3-.1.5-.3.6-.6,0,.1-.7.4-.6.6ZM14,21.9l.2-.5c-.3.3-.4.7-.7,1,.3,0,.4-.3.7-.5h-.2ZM26.1,21.3h-.2c.2.3.1.4.1.7,0,.2.1,0,.1.1.1.3.2.7.3,1.1.2-.4,0-1-.1-1.4-.2-.4-.2-.5-.2-.5ZM11.4,22.2c-.2,0-.5.7-.5.7.3-.1.5-.4.5-.7ZM25.5,25.9c0,0,.3-.3.3-.4.2-.6.4-1.6.2-2.3s-.5-1.3-.7-1c.1.3.3.5.4.7.3.9.3,2.1-.2,3h0ZM21.6,23.5c-.1-.3-.4-.6-.7-.7,0,.2.1.1.2.2,0,0,.4.6.5.5h0ZM25,23.1c0,0,.3.8.3,1,0,.2,0,.4,0,.4.2,0,0-.4,0-.5,0-.3,0-.8-.4-.9h0ZM11.1,23.7c-.1,0,0,0-.1.1-.6,1-.3,3,.5,3.9.1.1.9.9,1.1.9.6.4,2.3,1.2,2.9,1.2.6,0,0-.1.1-.1.2,0,.8.2.9-.2-.7,0-1.2.1-1.9,0-2.2-.6-4.2-2.5-3.7-4.9,0-.1.2-.7.2-.7h0ZM16.4,24.4c0-.1,0-.1-.1-.2-.6-.3-1.2-.4-1.8-.6.5.5,1.3.5,2,.8h0ZM25,24.7c0-.5,0-1.1-.5-1.3,0,0,.4.6.4.8,0,.2,0,.4,0,.5h0ZM26.7,23.4c-.3,0-.1.5-.2.7,0,.7-.4,1.4-.8,2s-.1,0,0,.2c.1,0,.1-.1.2-.2.3-.4.7-1.3.7-1.7,0-.5,0-.7,0-1h0ZM15.1,24.4c.2-.2-.9-.2-.9-.3.2.3.6.2.9.3ZM24.6,24.6c0-.2-.4-.6-.5-.6,0,.1.4.7.5.6ZM22.3,24.7c-.6.5-1.1.7-1.9.4-.2,0-.5-.2-.8-.3s-.6-.3-.8-.3c-.4,0-.7.8-1.2.5-.4-.2-.3-.3-.5-.4-.1,0-.5,0-.6.1-.7.2-1.7.8-2.4.6,0,0-.6-.3-.6-.3v.3c0,0-.1-.1-.1-.1v.4s-.2-.1-.2-.1c0,0,.2.3,0,.3l-.2-.3c0,.4,0,.5.4.5l-.2.7c.3,0,.4-.3.5-.5,0,0,0,.5.1.5s.2-.2.2-.2c0,0,0-.1,0-.2,0,0,.3,0,.4,0,.8-.2,1.6-.2,2.4-.3.8,0,.8,0,1.2,0,.2,0,.6-.2.9-.2.7,0,1.9,0,2.6,0,.7,0,.3,0,.3.3v-.2c0,0,.3,0,.3,0l.3.4c.2-.1,0-.3,0-.4,0-.3,0-.4.1-.5,0-.2,0-.5,0-.5-.1,0-.1.2-.2.2,0,0-.2.1-.2.1,0-.3.2-.4.1-.7h0ZM11.6,24.9c0,.3-.2.4-.2.7,0,.3.1.9.2,1.1.1.5.5,1.1,1,1.2,0,0,.1,0,0-.1-.3-.3-.6-.4-.8-.9-.2-.5-.3-.9-.3-1,0-.2.1-.7.1-1s0-.2-.1-.2h0ZM25.3,25c-.1,0-.2.2-.2.3,0,.2-.1.6-.2.9,0,.2-.3.3-.3.5.2,0,.5-.3.5-.5,0-.2,0-.2,0-.3s0,0,.1,0c0-.2,0-.5,0-.7h0ZM21.1,26.4c-.2-.1-1.4.5-1.7.6-.8.3-2.2.3-3,0-.8-.2-1.1-.6-1.7-.4,0,.2.3.1.5.2s0,.1.2.2c.2,0,.4.1.6.2,0,.1,0,0,0,.1-.3.2-.7,0-1,0,0,0-.2,0,0,.1.5.2,1.1.2,1.7.3,0,0,.2,0,.2.1-.7,0-1.4.1-2.1,0,0,.1.4.2.5.2.5.1,1.1.1,1.6.2-.7.4-1.5.2-2.2,0-.1.1-.1.2,0,.2.5.1,1,.2,1.5,0h0c.8,0,1.5-.5,2.4-.4.3,0,.6.2,1,.3.6,0,1.6,0,2.2-.2.1,0,.3-.1.3-.2-.8,0-1.6.3-2.3.2l.6-.2c.3,0,.6-.1.9-.3.3-.1.2,0,.1-.1-.4,0-.9.2-1.3.2-.4,0-.7,0-1.1,0l1.7-.4.8-.3c0-.2-.4,0-.5,0-.2,0-1.1.2-1.2,0,0-.1.2-.1.2-.2.3-.1.9-.3,1.1-.4.3-.2.1-.1.1-.2h0ZM23.7,27.6c-.4,0-.4.2-.4.5l.4-.5ZM16.6,28.7c-.2,0-.4,0-.6,0-.2,0-.4.3-.5.3-.6,0-1.4-.3-1.9-.6-.5-.2-.4-.3-.7-.3,0,0,0,.1.1.2.2.2,1.8.8,2.1.9.2,0,.8-.1,1-.2l.6-.3h0Z"/>
    <path class="st0" d="M14.4,15.6s.1,0,.2.1c0,0,.3.5,0,.5-.5-.3-1-.9-1.5-1-.9-.3-2.1-.4-3.1,0s-1.1.9-1.8,1.2c0,0,0-.1.1-.2.3-.4,1-.7,1.4-1,0,0,0-.1,0-.2,0,0,.5-.4.7-.5,1.4-.7,3.1-.1,4,1h0Z"/>
    <path class="st0" d="M6.8,25.4c-.9-.9-1.5-2-1.8-3.2-.3-1.5-.3-4.8.4-6.1.1-.2.3-.5.5-.7l-.3.8c-1,2.4-.9,5.7.4,8,.2.4.5.7.7,1.2h0Z"/>
    <path class="st0" d="M10.2,16.4c.1,0,.3.5.5.6.8.6,1.9.2,2.2-.7h.2s0-.1,0-.1h.1v.3s.2-.1.2-.1c.1.3,0,.4-.2.6h.1c-.5.2-.9.6-1.4.6-.9.2-2-.2-2.2-1.2h.2c0,0,.2,0,.3,0h0Z"/>
    <path class="st0" d="M12.9,13.4c0,0-.1,0-.2,0-.9,0-1.8-.1-2.7.1-1,.3-1.8,1-2.8,1.3,0-.2.3-.2.4-.4.4-.3.8-.6,1.2-.9.7-.4,2.3-.5,3.1-.4s.6.1.9.2h0Z"/>
    <path class="st0" d="M11,14.1l-2.2.6c-.5.2-.9.5-1.4.6,0,0,0-.1,0-.1.9-.5,1.8-.9,2.8-1.2,1-.3,1.6,0,2.6,0l.8.2c-1.2,0-2.5-.6-3.7,0,0,.1.2,0,.2,0h.8Z"/>
    <path class="st0" d="M15.9,20.6s0,0,.1,0c0,.2-.1.6-.1.7,0,.2,0,.2,0,.3,0,.2-.3.2-.4.4h.6s0,.1,0,.1c-.3,0-.7.2-1,0h0c-.2,0-.3-.2-.2-.4s.1-.2.1-.3,0-.4,0-.4c0,0,0,0,0,0,0,.1,0,.5-.3.5,0-.4.2-.8.7-1-.1.1-.2.3-.3.4,0,0,.4-.4.5-.4,0,0,.2,0,.2,0,0,0,0-.2,0-.2-.3,0-.4,0-.7.1,0-.4.5-.3.8-.4,0,0,0,.2,0,.3h0Z"/>
    <path class="st0" d="M5.7,14.6l-.9,2c-.5,1.5-.4,2.5-.3,4.1,0,0,0,.2,0,.2-.3-1.1-.3-2.1,0-3.2.2-1.1.4-2,1-2.7,0,0,.3-.3.3-.3h0Z"/>
    <path class="st0" d="M4,17.2c-.1,0,0-.2,0-.3,0-1.4.9-2.9,1.8-4-.2.7-.7,1.3-1,2-.4.7-.6,1.5-.7,2.3h0Z"/>
    <path class="st0" d="M31,20c0,0-.1-.2-.1-.3,0-.4,0-.8-.1-1.2-.2-1-.6-2.1-.9-3,0-.2-.2-.4-.2-.6.4.6.7,1.4.9,2.1.3,1,.4,2,.4,3h0Z"/>
    <path class="st0" d="M4.2,14.5c0,0,0-.1,0-.2.1-.8.5-1.6.8-2.3l.6-1.1c-.2.6-.5,1.2-.8,1.8-.2.6-.3,1.2-.5,1.8Z"/>
    <path class="st0" d="M9.5,12.9l-.7.4-1.5,1.1c0-.1,0-.1.1-.2.5-.6,1.4-1.2,2.2-1.3h0Z"/>
    <path class="st0" d="M31.2,16.6l-.4-1.3-.6-1.1c.7.6.9,1.5,1.1,2.4Z"/>
    <path class="st0" d="M30.6,13.7c-.1,0-.2-.2-.2-.3-.2-.5-.3-1.1-.4-1.7,0,0,.1.2.2.3.2.5.3,1.1.5,1.7h0Z"/>
    <path class="st0" d="M29.9,16.6l-.6-.7c0-.1,0-.4,0-.5,0,.4.5.7.6,1.1h0Z"/>
    <path class="st0" d="M15.4,16.4l-.7-.8c.1-.1.8.6.7.8Z"/>
    <path class="st0" d="M7.3,16.4h0c-.1,0-.6.3-.6.3v-.5c.2,0,.4.3.6.2h0Z"/>
    <path class="st0" d="M11,12.8c0,0,0,.1,0,.1-.3,0-.6,0-.8,0,0,0,.3-.2.3-.2.2,0,.4,0,.6,0h0Z"/>
    <path class="st0" d="M27.9,14.2c-.4,0-.9.2-1.4,0-.2,0-.4-.2-.7-.3-1.3-.4-2.6-.6-4-.3,0,0,0,0,.2,0,1.1-.4,2.4-.3,3.5,0,.5.1.9.4,1.5.5v-.2c-1.2-.6-2.3-1-3.6-1-.6,0-1.1.2-1.7.3-.6,0-.2,0-.2,0,.9-.3,1.7-.6,2.6-.6.9,0,2.4.5,3.1,1,.2.1.5.4.6.6h0Z"/>
    <path class="st0" d="M24.8,15.7h.1s0,.2,0,.2l.2-.2c0,.2,0,.3-.2.4l.4-.2c.4.3-.2.7-.4.8-.5.3-1,.5-1.6.5-.7,0-2.3-.4-1.6-1.3h.2s0-.1,0-.1c.5.9,1.2,1.5,2.2.9.3-.2.7-.5.7-.9h0Z"/>
  </g>
  <path class="st0" d="M17.5,1.3C8.6,1.3,1.3,8.6,1.3,17.5s7.3,16.2,16.2,16.2,16.2-7.3,16.2-16.2S26.4,1.3,17.5,1.3ZM17.5,32.3c-8.1,0-14.8-6.6-14.8-14.8S9.4,2.7,17.5,2.7s14.8,6.6,14.8,14.8-6.6,14.8-14.8,14.8Z"/>
</svg>