<?xml version="1.0" encoding="UTF-8"?>
<svg id="Layer_1" xmlns="http://www.w3.org/2000/svg" version="1.1" viewBox="0 0 35 35">
  <!-- Generator: Adobe Illustrator 30.5.1, SVG Export Plug-In . SVG Version: 2.1.4 Build 3)  -->
  <defs>
    <style>
      .st0 {
        fill: #f9eec5;
      }

      .st1 {
        fill: #231f20;
      }

      .st2 {
        fill: #3e3e3f;
      }
    </style>
  </defs>
  <circle class="st1" cx="17.5" cy="17.5" r="17.5"/>
  <path class="st2" d="M17.5,1.3C8.6,1.3,1.3,8.6,1.3,17.5s7.3,16.2,16.2,16.2,16.2-7.3,16.2-16.2S26.4,1.3,17.5,1.3ZM17.5,32.3c-8.1,0-14.8-6.6-14.8-14.8S9.4,2.7,17.5,2.7s14.8,6.6,14.8,14.8-6.6,14.8-14.8,14.8Z"/>
  <g>
    <path class="st0" d="M21.6,24c0,0-.3-.2-.3-.2.1,0,.3,0,.5,0,0,0,.4-.1.3-.2-.3.1-.4.2-.7.1s-.2,0-.2,0c.3,0,.5,0,.8-.2.2-.1.1,0,0,0,0,0-.5.2-.6.1-.2,0-.3,0-.3,0,.3,0,.7-.1,1-.4-.4.1-.7.3-1.1.3-.4,0-.1,0-.1,0,.4,0,.6-.2.9-.3,0,0,.2,0,.3,0,0,0,0,0,0,0-.7,0-1.3.5-2.1.2-.2-.1-.4-.3-.3-.6.1-.2.3-.1.5-.1.2,0,.4,0,.6,0,.3,0,.8.2,1,.3.2,0,.1,0,.2,0,0,0,0,0,0,0-.1,0-.3,0-.4,0-.1,0-.1,0,0,0,0,0,.3,0,.4,0,.3,0,.5,0,.8,0h0c0,0,0,.2,0,.2h0c.2-.1.2-.4.1-.6,0-.2,0-.3-.1-.2.1.2.1.4,0,.6,0,.2,0,0,0,0,0-.3-.1-.8-.4-.9-.2,0,.1.2,0,.3l-.3-.2c0,.2,0,.1.1.2,0,0,0,.1,0,.2-.1,0-.3-.1-.5-.2-.4-.3-.7-.7-1.2-.6-.3,0-.5.3-.8.2-.4-.2,0-.6.2-.8,0-.3,0-.4,0-.6.1,0,.1.1.2.2v.5c.2-.2.2-.4,0-.7.4.3,0,.9-.3,1.1,0,0,.2,0,.3,0,.2-.2.3-.4.4-.7.4,0,.9,0,1.3.2,0-.2-.3-.3-.4-.4.4,0,.5.4.8.6.2.3,0,0,.1,0l-.5-.8c.3.1.4.4.5.6.2.2.4.4.6.6l.2.3c0-.3-.3-.5-.5-.7-.3-.4-.7-.8-.7-1.4.1.2.2.3.3.5.3.4.8.7,1,1.2h.1c-.1,0-.2-.2-.3-.3-.2-.3-.5-.6-.7-.9-.3-.5-.6-1.7-1.4-1.8-.2,0-.7.2-.9.3.1,0,.2,0,.3,0,.1,0,.4,0,.5,0,.7,0,.9,1.3.2,1.5-.1,0-.6,0-.5-.1,0-.2.3,0,0-.2-.2-.2-.6,0-.8-.1,0,0,.2,0,.3,0,.2,0,.4,0,.6,0,0-.1-.1-.1-.2-.2-.5-.1-1.1.1-1.6,0l.8-.2h0c-.3,0-.6,0-.9,0-.3,0-.2,0-.4,0,0,.2.2.3.4.5l1,.4c-.6,0-1.7-.3-1.7-1.1s.6-.9.9-1.3c.2-.3.4-.7.7-1,.2-.3.9-1,1-1.4.2-.9-.7-1.1-.3-2.3.4-1.2.9-1.3.7-2.5-.3-3.1-4.3-5.6-7.2-5.6-.5,0-1,0-1.4.1.5-.3,1.2-.5,1.8-.6,3.2-.6,7,.3,9.8,1.9,6.9,4.1,8.6,13.3,3.2,19.4-4,4.6-10.5,6-15.9,3.1-.9-.5-1.2-.7-1.8-1.2-.3-.2-.6-.5-.8-.8,0,0,0,0,.1,0,.8.4,1.4.8,2.3,1,2.3.5,5.6-.4,7.1-2.3.3-.4.9-1.4,1.2-1.6.3-.2.7-.1.9,0,.2,0,.4.2.5.3,0,0,0,0,0,0-.3-.3-.8-.4-1.2-.3v-.2c.5,0,.8,0,1.2.3.4.3.3.3.5.4.3,0,.4,0,.5,0,.1,0,.1,0,0,0,0,0-.3,0-.3,0-.2,0-.5,0-.6-.3.2,0,.4,0,.5,0h.2c-.2-.1-.4,0-.6-.1h0ZM27.4,9.5c-1.8-2.2-4.3-3.6-7.1-4.3-.6-.2-1.5-.4-2.1-.4-.7,0-.3,0-.4,0,.2,0,.4,0,.6,0,1.8.3,4,1.4,5.5,2.5,3,2.2,5.2,6.9,4.4,10.6,0,.1-.2.7-.2.8,0,0,0,0,0,0h-.2c.4-.9.4-1.9.4-2.8,0-1.7-.5-3.3-1.3-4.8-.8-1.5-1-1.8-1.7-2.4-1.9-1.8-4.2-3.1-6.8-3.7,0,0,.1,0,.2,0,1.2.4,2.4.9,3.5,1.5.4.2.9.5,1.2.8.3.3,0,.1,0,.1s0,0,0,0,.4.3.4.3c.3.3.6.5.9.9,0,0,0,0,0,0-.3,0-.6-.4-.8-.5-.3-.2-.2-.2-.3-.2l.7.7c0,.1-.2,0-.3.2.2,0,.4,0,.6,0,.7,0,1.2.9,1,1.6,0,.1-.1.2-.2.3-.5.3-1,.1-1.4-.3s-.4-.6-.3-.9c-.3,0,0,.6,0,.7.2.4.7.8,1.2.8.5,0,.2,0,.3,0,.3.2.2.6.5.7l-.3-.8h.2c0-.1.6.8.6.8h.1c0-.3-.5-.7-.5-1,0-.2,0-.2,0-.2,0,0,0,0,0,0,0,.2.2.3.3.4.2.3.4.8.6,1.1.3.7.5,1.3.8,2,0,0,0,0,0,0-.2-.5-.4-.9-.7-1.3,0,0-.4-.5-.4-.6,0,0,0,0,0,0,.3.5.7,1.1.9,1.6,0,0,.1.2.1.3-.3-.3-.5-.7-.8-1.1,0-.1-.5-.7-.6-.7,0,0,0,0,0,0l1.6,2.2c.1.2.3.5.4.8,0,0,0,0,0,0,0-.2,0-.4,0-.6-.2-1.3-.8-2.6-1.5-3.7-.3-.5-.4-.5-.5-1.1,0,0,0-.1,0,0,.7,1.2,1.5,2.3,1.9,3.6.4,1.3.7,3.4.3,4.8,0,.3-.2.7-.5.7,0-.2.2-.3.3-.5.2-.6.3-2.1.2-2.7,0,0,0,0,0,0-.2,1.1,0,2.3-.6,3.2l-.4.2c.3-.4.5-.8.6-1.2,0,0,0,0,0,0-.2.2-.3.7-.5.9-.5.6-1.2,1-1.2,1.8,0,.2,0,.4,0,.6-.2-.2-.3-.6-.2-1,.2-.7,1-1.1,1.2-1.8-.1,0-.2.2-.3.3-.5.6-1.3,1.2-1.1,2.1.2.9.2.4.3.6.3.8.1,1.6-.3,2.4h0c.2-.4.5-.7.7-1.2,0,0,.2-.5.3-.5,0,0,0,.1,0,.2-.2.9-1.3,2.2-2,2.8-.7.6-.5.4-.6.4,0,0-.1,0-.2,0h0c.2-.3.5-.5.8-.8.2-.2.5-.5.6-.6,0,0,0,0,0,0-.4.3-.7.6-1,.9-.4.3-.4.3-.4.3-.2,0-.5-.2-.7,0,0,0,.2,0,.3,0,.5.1.7.6.4,1-.3.5-1.6.9-1.8,0,0-.2,0-.4.2-.6,0,0-.3.2-.3.3,0,.2,0,.3,0,.3,0,0-.5.4-.5.4-.3.2-.6.3-.9.5s-.8.3-1.1.4c0,0,0,0,.1,0,.9-.1,1.7-.6,2.5-1,.3,0-.1.3-.2.4-.8.6-2.5,1.1-3.5,1.4-.3,0-.7.1-1,.2,0,0,0,0,0,0,.4,0,1.1-.2,1.5-.3.3-.1.7-.3,1-.3.9-.3,1.7-.7,2.5-1,0,0,0,0,0,0,0,.1-.5.3-.6.4-1.2.7-3,1.2-4.4,1.5-1.1.2-2.2.2-3.3,0,0,0,0,0,0,0,2.9.7,5.9-.5,8.5-1.8,0,0,.4-.3.5-.2-.3.3-.7.5-1.1.7-2.1,1.2-5.3,2.1-7.7,1.5-.3,0-.5-.2-.8-.2,0,0,0,0-.1,0,.3.1.7.3,1.1.4,1.7.4,3.1.3,4.8-.3,1.1-.3,2.2-.9,3.3-1.4,1.2-.6,2.2-1.4,3.2-2.2,0,0,0,0,0,0-.8.8-1.8,1.5-2.8,2-1.7,1-4,1.9-5.9,2-1.2,0-2.1,0-3.2-.3-.3,0-.6-.2-.8-.3,0,0,0,0,0,0,.2.2,1.1.5,1.4.6,3.1,1,6.3.7,9.2-.7,7.3-3.7,9.6-12.9,4.2-19.3h0ZM20.9,6.3c-.4-.2-.8-.5-1.3-.6l1.2.6h0s0,0,0,0ZM23.1,7.8c-.5-.5-1.2-.9-1.8-1.3,0,0-.2-.1-.2,0l2,1.3h0ZM22.7,8.1c0,0-.3-.3-.4-.3h0c0,0,.3.3.3.3ZM24.8,9.1c-.5-.2-1,0-.8.7,0,0,.2.5.3.5,0,0,0,0,0,0,0,0-.1-.1-.2-.2,0-.2-.1-.4,0-.5l.2.3c.1.1.3.3.4.4.2,0,0-.2,0-.3-.1-.1-.3-.3-.3-.5.3.2.6.4.8.8,0,0,0,0,0-.1,0-.3-.5-.8-.9-.8,0,0,.4,0,.5,0,.3.1.6.4.5.8h0c0-.3,0-.4,0-.6-.2-.2-.3-.2-.6-.3h.2s0,0,0,0h0ZM22.6,9.4s0,0,0,0c0,0,.3.5.3.5l-.3-.5h0ZM23.6,11.1c-.7-.2-1.5.1-2,.5,0,0,0,0,.1,0,.7-.3.9-.4,1.7-.5.8,0,.1,0,0,0h0ZM24.3,11.2c-.2,0-.5-.2-.6,0,.1,0,.3,0,.5,0,.1,0,.2,0,.2,0h0ZM24,11.6c-.7-.3-1.6,0-2.3.4.1,0,.2,0,.4-.1.5-.2,1.1-.3,1.6-.3h.3s0,0,0,0ZM23.8,11.9c-.3-.1-.7,0-1.1,0-.3,0-.5.1-.8.2-.2.1,0,0,0,0,0,0,.5-.2.5-.2.4-.1.8-.2,1.3,0,.5.1,0,0,0,0h0ZM27.6,15.6c0-.3-.1-.7-.3-1-.2-.5-1.2-1.6-1.6-1.9,0,0,0,0-.1,0,.5.6,1,1.2,1.4,1.9.1.2.2.4.3.6,0,.2.1.4.2.5h0ZM21,13.1v.5c0,0,0,.4.1.5,0,.2.2.3.3.4h-.3c.3.1.6.3.8.5l-.5-.2h-.2s.6.3.6.3h-.6s0,0,0,0c.1,0,.2,0,.4.2,0,0,0,0,0,0,0,0-.1,0-.2,0,0,0-.1,0-.1,0l.4.3h-.4c0,0,.2,0,.2.1,0,.1-.1.3-.3.3-.2,0,0,0-.1,0,0,.1.2.1.2.2s-.3,0-.3,0c.2.2.2.4,0,.3,0,.1-.1.2-.2.3-.2.3-.4.7-.8.9,0,0,.1,0,.2,0,.4-.3.6-.8.9-1.1s.1,0,0,0l-1,1.2s.2-.1.2-.1c.7-.6,1.1-1.5,1.6-2.2,0,0,0,.1,0,.1-.2.4-.5.8-.7,1.2-.1.3,0,.4,0,.3.1-.5.5-.9.8-1.3,0,.2-.2.4-.3.6,0,.2-.2.5-.2.7l.4-.8s.2-.2.3-.2c-.2.2-.3.5-.3.8,0,.3,0,.7,0,.5-.1-.5.1-1,.5-1.3-.3.4-.4.9-.2,1.3,0,0,.2.3.3.3.2,0-.1-.2-.1-.3-.2-.3-.1-.6,0-.9,0,0,0,0,0,0,0,.5.1.9.6,1.1,0,0,.1,0,.1,0-.3-.2-.6-.5-.6-1,.1.2.5.3.7.3.1,0,.3,0,0,0-.3,0-.9-.1-.7-.5.2.4.9.3,1.3.2s.5-.2.7-.3c0,0-.4.3-.4.4,0,0-.5.2-.5.2,0,.1.4,0,.4,0,.2,0,.5-.2.7-.3h0c0,.1-.8.6-.8.6.2,0,.3,0,.5-.1.1,0,.5-.3.5-.3,0,0,.2,0,.2,0-.3.3-.7.4-1.1.5,0,0,0,0,0,0,.2,0,.8-.3,1-.4,0,0,.2-.1.2-.2h.4c0,0,0,0,0,0-.1,0-.3,0-.4-.1-.1,0-.1-.1,0-.2.4.3,1.1.2,1.5,0,.4-.3,0,0,0,0-.4.2-.9.3-1.4.1,0,0,0,0,.1,0,.2,0,.4,0,.7,0,.3,0,.6-.1.7-.3h.1c0,0,0,0,0,0-.2-.1-.4-.2-.6-.3-.2-.1-.4-.3-.6-.6-.2-.2-.4-.6-.6-1,0,0,.3.2.3.3.5.5.7.9,1.3,1.3,0,0,.2.2.3.2,0-.1,0-.1-.1-.2-.2-.2-.5-.4-.6-.6-.5-.7-.8-1.5-1.7-1.8-.6-.2-1.8-.2-2.4,0-.2,0-.2.2-.4.1-.2,0-.1,0-.2,0v.3c-.1,0-.3,0-.3-.3-.1,0,0,.4,0,.4,0,.1-.1,0-.2-.1-.2-.3,0-.6,0-.9,0-.3,0-.1,0-.1,0,.2-.1.4-.1.6,0,.2,0,.3.1.5,0,0-.2-.4-.3-.4,0-.1,0-.3,0-.5h0ZM25.8,13.4h0c.2.4.5.7.7,1,.2.3.4.7.6,1.1,0,0,0,0,0,0,0,0,0,0-.1,0,0,0,0,0,0-.1-.2-.4-.6-1-1-1.3-.4-.3-.1-.1-.2,0,.1.2.3.3.4.5s.3.5.4.7c.1.2.4.3.5.5h.1c0,0,.2.2.2.2,0,0,0-.3,0-.3-.3-.9-.8-1.4-1.4-2.1-.6-.6,0,0,0,0h0ZM27,16.6l-.5.3c0,0-.6.1-.7.2,0,0,0,0,.1,0,.2,0,.4,0,.6-.2,0,0,.4-.3.4-.4h0ZM27.3,16.8s-.1,0-.1,0c0,0-.2.2-.3.2h0c.2,0,.3-.1.4-.3ZM26.2,17.2s-.5,0-.4.1c.1,0,.4,0,.4-.1ZM25.8,18.7c0,0,0,0-.1,0,0,0-.2.2-.3.3,0,0-.5.6-.4.7h.1c0,0,.7-1,.7-1h0ZM22.4,19.3c-.2-.2-.2-.5-.5-.7.1.2.2.6.5.7ZM20.9,20c.5.1.7-.3.7-.7,0,0,0-.3-.2-.2,0,.3,0,.5-.1.7-.1-.1-.2-.2-.4-.2,0,.1.2.1.2.2s0,.1,0,.1c0,0-.1,0-.1,0h0ZM25.1,19.9c-.1,0-.1.3-.1.4,0,.6.6,1.1.6,1.8,0,.4-.1.9-.3,1.3,0,.1-.2.2-.2.3,0,0,0,.1,0,.1.5-.5.8-1.5.6-2.2,0-.3-.4-.7-.5-1,0-.2-.1-.5,0-.7h0ZM24.7,23.7c0,0,0,0,.1,0,.4-.5.6-1.4.4-2s-.3-.6-.4-.9c0-.2-.1-.4-.2-.6,0-.2,0,0,0-.1,0,.7.4,1.2.5,1.8,0,.7-.1,1.2-.4,1.8h0ZM24.4,23.8c0,0,0,0,.1-.1.6-1,.4-1.8,0-2.8,0,0,0,0,0,0,0,.4.2.7.3,1,.2.7,0,1.3-.3,1.9h0ZM20.7,20.6c.2,0,.3,0,.5,0,.2,0,.3.2.4.1-.2-.2-.6-.3-.9-.2,0,.1,0,0,.1,0ZM21.4,20.9s-.3-.1-.4-.1c0,0-.4,0-.3,0,.2,0,.4,0,.5,0,.2,0,.3.1.2,0h0ZM24,23.8c.3-.5.6-1.3.3-1.9,0,0,0,0,0,0,0,.6,0,1-.2,1.6-.3.6-.2.2,0,.2h0ZM24,22.5c0,.1,0,.3,0,.5,0,.2-.2.5-.2.5,0,0,0,0,0,0h0c.2-.2.4-.5.4-.9,0,0,0-.5-.1-.4,0,0,0,.2,0,.2h0ZM23,22.4h0c0,.2,0,.3,0,.5l-.3.2c.4,0,.4-.4.4-.7h0ZM20.8,22.9c0,0,0,0,0,0-.2,0-.4,0-.6-.1,0,0,0,0,0,.1.2.2.4.1.7,0h0ZM23.1,23.1l-.5.3c.1,0,.5-.2.5-.3ZM22.2,25.3l.7-.4c0,0,0,0-.1,0,0,0-.7.3-.6.4h0ZM23.3,25.3c0,0-.4,0-.5,0-.6.2-1,1.2,0,1,.3,0,.8-.4.9-.7,0-.3-.2-.3-.3-.3h0ZM18.6,26.3c.2,0,.4-.2.5-.4.2-.2.4-.6.5-.9l-.5.7-.6.6h0ZM18.7,26.5c.6-.2,1.1-.6,1.3-1.2-.1,0-.1.2-.2.3-.1.2-.4.4-.6.6-.2.2-.5.3-.5.4h0ZM20.2,25.7c0,0-.2.2-.3.3-.2.1-.4.3-.6.4-.1.1,0,0,0,.1.4-.2.7-.4.9-.8h0ZM20.5,26.1l-.6.4h-.1c0,.1,0,.1.1,0,0,0,.6-.4.6-.4h0ZM16.9,28.4c-.2,0-.4,0-.6,0-.2,0,0,0,0,0,.2,0,.5,0,.7-.1h0ZM16,28.5c-.3,0-.5,0-.8,0,0,0-.1,0-.1,0,.3,0,.5,0,.8,0,.3,0,0,0,0,0h0Z"/>
    <path class="st0" d="M20.5,21.7c-.2.2-.5.2-.7.2,0-.1,0,0,.1,0,0,0,.2,0,.3,0,.1,0,.2-.1.3-.1h0Z"/>
    <path class="st0" d="M20.8,23.6c0,0,0,0-.1,0,0,0-.2,0-.3,0s-.2,0-.3,0c0,0,0,0,0,0h.6c0,0,0,0,0,0h0Z"/>
    <path d="M27.4,9.5c5.4,6.4,3.1,15.6-4.2,19.3-2.9,1.5-6,1.7-9.2.7-.3,0-1.2-.4-1.4-.6,0,0,0,0,0,0,.3,0,.6.2.8.3,1.1.3,2,.4,3.2.3,1.9,0,4.2-1.1,5.9-2,1.7-1,2-1.2,2.8-2,0,0,0,0,0,0-1,.8-2.1,1.6-3.2,2.2-1,.5-2.1,1.1-3.3,1.4-1.7.5-3.1.6-4.8.3-.4,0-.7-.2-1.1-.4,0,0,0,0,.1,0,.3,0,.5.2.8.2,2.4.5,5.6-.4,7.7-1.5.4-.2.7-.5,1.1-.7,0,0-.4.2-.5.2-2.5,1.3-5.6,2.5-8.5,1.8,0,0,0,0,0,0,1.1.2,2.2.1,3.3,0,1.4-.2,3.1-.7,4.4-1.5,1.2-.7.5-.3.6-.4s0,0,0,0c-.8.3-1.6.8-2.5,1-.3,0-.7.2-1,.3-.4.1-1.1.3-1.5.3s0,0,0,0c.3,0,.7-.1,1-.2,1-.3,2.7-.8,3.5-1.4,0,0,.5-.4.2-.4-.8.4-1.6.9-2.5,1,0,0,0,0-.1,0,.4-.2.8-.3,1.1-.4.4-.2.7-.3.9-.5s.5-.4.5-.4c0,0,0-.2,0-.3s.2-.4.3-.3c-.1.2-.2.4-.2.6.1.8,1.5.4,1.8,0,.3-.4,0-.9-.4-1-.5-.1-.3,0-.3,0,.2-.1.6.1.7,0,.2,0,.3-.2.4-.3.4-.3.7-.7,1-.9,0,0,0,0,0,0,0,0-.5.5-.6.6-.2.2-.5.4-.8.7h0c0,.1.1.1.2,0,0,0,.5-.3.6-.4.7-.6,1.8-1.9,2-2.8.2-.9,0-.2,0-.2,0,0-.2.5-.3.5-.2.4-.5.8-.7,1.2h0c.4-.7.6-1.6.3-2.4-.3-.8-.3-.4-.3-.6-.2-.9.6-1.5,1.1-2.1.5-.6.1-.3.3-.3-.2.7-1,1.1-1.2,1.8-.2.7,0,.7.2,1,0-.2,0-.4,0-.6,0-.8.7-1.2,1.2-1.8.2-.2.3-.7.5-.9.2-.2,0,0,0,0,0,.4-.3.9-.6,1.2l.4-.2c.7-.9.4-2.1.6-3.2,0,0,0,0,0,0,0,.6,0,2.1-.2,2.7,0,.2-.2.3-.3.5.3,0,.5-.4.5-.7.4-1.3,0-3.4-.3-4.8-.4-1.3-1.2-2.5-1.9-3.6,0,0,0,0,0,0,0,.6.2.7.5,1.1.7,1.1,1.3,2.4,1.5,3.7.2,1.3,0,.4,0,.6s0,0,0,0c0-.3-.2-.5-.4-.8l-1.6-2.2s0,0,0,0c0,0,.5.6.6.7.3.3.5.7.8,1.1,0-.1,0-.2-.1-.3-.3-.6-.6-1.1-.9-1.6,0,0,0,0,0,0,0,0,.4.5.4.6.3.4.5.9.7,1.3,0,0,0,.1,0,0-.2-.7-.4-1.4-.8-2s-.4-.8-.6-1.1c-.2-.3-.3-.3-.3-.4,0,0,0,0,0,0s0,.2,0,.2c0,.2.4.7.5,1h-.1s-.6-.9-.6-.9h-.2c0,.1.3.9.3.9-.3-.1-.2-.5-.5-.7s-.2,0-.3,0c-.5,0-1-.4-1.2-.8,0-.1-.2-.8,0-.7,0,.3,0,.7.3.9.4.4.8.6,1.4.3.1,0,.2-.2.2-.3.3-.7-.3-1.5-1-1.6-.2,0-.4,0-.6,0,0-.1.2,0,.3-.2l-.7-.7c.1,0,.2.1.3.2.3.2.5.5.8.5,0,0,0,0,0,0-.3-.3-.6-.6-.9-.9-.3-.3-.4-.3-.4-.3,0,0,0,0,0,0s0,0,0-.1c-.3-.3-.8-.6-1.2-.8-1.2-.6-2.3-1.1-3.5-1.5-1.2-.4-.2,0-.2,0,2.6.6,4.9,1.9,6.8,3.7.7.6,1.3,1.6,1.7,2.4.8,1.5,1.3,3,1.3,4.8,0,.9,0,1.9-.4,2.8h.2s0,0,0,0c0,0,.2-.6.2-.8.9-3.7-1.4-8.4-4.4-10.6-1.5-1.1-3.7-2.1-5.5-2.5-.2,0-.4,0-.6,0,0,0,.3,0,.4,0,.7,0,1.5.2,2.1.4,2.7.7,5.2,2.2,7.1,4.3h0ZM23.9,7c-.3-.3-.7-.6-1.2-.7l1,.7h.1c0,0,0,0,0,0ZM26.2,9c-.4-.5-1.2-1.4-1.8-1.7-.6-.4-.2-.1-.3-.1.8.8,1.6,1.5,2.3,2.4,1,1.4,1.8,3.2,2.1,4.9.2,1.4.2,3-.2,4.4h.1c.5-1.6.6-3.5.1-5.2-.4-1.5-1.3-3.3-2.3-4.6h0s0,0,0,0ZM28.9,13.6s0-.6-.1-.8c-.3-1.1-.9-2.2-1.7-3.1h0c1.2,1.7,1.9,3.6,2,5.7,0,.9,0,1.8-.2,2.7,0,.3-.2.7-.2,1s0,.1,0,.1c0,0,0-.2,0-.2.4-1.3.5-3,.3-4.3-.1-1.3,0-.8-.1-1,0-.2,0,0,0,0h0ZM29.5,16.2c0-.6.1-1.2,0-1.8l-.2-.5c0,.5.1,1,.2,1.5,0,.3,0,.4,0,.7,0,.3,0,0,0,0ZM29.5,18.8c.3-.9.4-1.9.3-2.9l-.3,2.9ZM28.9,19.8c.3-1.1.6-2.2.5-3.3,0,0,0,0,0,.1,0,.3,0,.5,0,.8,0,.3,0,.6,0,.8,0,.4-.4,1-.3,1.5,0,0,0,.1,0,0h0ZM29.9,18.7c0,0,0,0,0,0-.2.6-.3,1.3-.5,1.9-.6,1.7-1.6,3.1-2.7,4.4,0,0-.2.2-.2.3,0,0,.3-.2.3-.3,1.4-1.4,2.5-3.6,3-5.5,0-.3.1-.6.2-.9h0ZM29.5,18.9c0,0,0,0,0,0-.1.7-.4,1.3-.6,1.9,0,0,0,0,0,0,.3-.6.5-1.2.6-1.9h0ZM28.1,21.1c.4-.4.8-1.4.3-1.9-1-1-2.9.3-2.4,1.5.3.9,1.5.9,2.1.3h0ZM27,23.9c.1,0,.2-.2.3-.3.5-.6,1-1.4,1.3-2.1,0-.1.1-.3.1-.4l-.2.4c-.2.4-.3.7-.5,1-.3.5-.7.9-1,1.5h0ZM28,21.7c0,0-.1.1-.1.1-.4.6-.6,1.2-1,1.7l-1.2,1.5c.4-.3.8-.7,1.1-1.1.5-.7,1-1.5,1.3-2.3h0ZM26.2,21.6h0s-.2,1.3-.2,1.3l.3-.8v-.5h0ZM27.1,21.8c0,0-.2.1-.2.2-.2.2-.3.5-.5.8-.6,1-1.4,2-2.4,2.6v.2s.2,0,.3-.1c.3-.2.7-.6,1-.8.8-.8,1.3-1.8,1.8-2.9h0ZM23.9,26.1s.4-.2.4-.2c.9-.6,1.8-1.6,2.4-2.5.3-.5.6-1,.8-1.5l-1,1.6c-.4.6-.8,1.2-1.4,1.7-.4.3-.9.6-1.2,1h0ZM25.1,27c.6-.5,1.2-1,1.7-1.6.5-.6.6-.7.8-1.1-.3.2-.4.6-.7.8-.6.6-1.2,1.1-1.8,1.6-.3.3-.6.6-1,.8,0,0,0,0,0,0,.3-.2.5-.3.8-.6h0ZM24.7,26.3l.4-.2c.5-.5,1.2-.9,1.6-1.6-.2.1-.3.3-.4.4-.1.1-.4.3-.6.5-.3.3-.6.6-1,.9h0ZM25.3,26.3c0,0-.1,0-.2,0-.6.4-1.1,1-1.7,1.3l-1.4.8c0,0,0,0,.1,0,.2,0,.4-.2.6-.3.7-.4,1.5-.9,2.1-1.5.6-.5.4-.4.4-.4h0ZM24.3,26.7c0,0-.6.4-.7.5-1.6,1.1-4.4,2.4-6.3,2.6,0,0,0,0,0,0,.3,0,.7,0,1-.1,1.4-.3,3-1,4.3-1.7,1.3-.7,1.3-.8,1.8-1.3h0ZM22.8,28.4c-.2,0-.3.2-.5.2-.9.4-1.8.6-2.8.9,0,0-.1,0-.1,0,.8-.1,1.6-.4,2.3-.7.7-.3.8-.3,1.1-.5h0Z"/>
    <path d="M21,13.1c0,.1,0,.3,0,.5,0,.1.2.4.3.4,0-.2-.1-.3-.1-.5,0-.2,0-.4.1-.6,0,0,0,0,0,.1,0,.3-.1.6,0,.9.2.3.2.3.2.1,0-.1-.2-.4,0-.4,0,.2.2.3.4.3v-.3s0,0,.1,0c.2,0,.2,0,.4-.1.6-.2,1.8-.2,2.4,0,.9.3,1.2,1.1,1.7,1.8s.4.4.6.6c.2.2.1,0,.1.2-.1,0-.3,0-.3-.2-.6-.4-.9-.8-1.3-1.3-.5-.5-.3-.3-.3-.3.2.3.4.7.6,1,.2.3.4.4.6.6.2.1.4.2.6.3h0c0,0-.1,0-.1,0-.2.2-.5.3-.7.3-.2,0-.4,0-.7,0-.3,0-.1,0-.1,0,.5.2,1,.1,1.4-.1,0,0,0,0,0,0-.4.3-1.1.4-1.5,0-.1,0,0,.1,0,.2,0,0,.2.1.4.1.1,0,0,0,0,0h-.4c0,0-.1.1-.2.2-.2.1-.8.4-1,.4-.2,0,0,0,0,0,.4,0,.8-.3,1.1-.5,0,0-.1-.1-.2,0,0,0-.4.2-.5.3-.1,0-.3.1-.5.1l.8-.5h0c-.2,0-.5.1-.7.2-.2,0-.4.1-.4,0,0-.1.5-.2.5-.2,0,0,.5-.3.4-.4-.3,0-.5.2-.7.3-.3,0-1.1.1-1.3-.2-.2.4.4.5.7.5.2,0,0,0,0,0-.3,0-.6,0-.7-.3,0,.4.3.7.6,1,0,0,0,0-.1,0-.5-.2-.6-.6-.6-1.1,0-.5,0-.1,0,0-.1.3-.2.6,0,.9,0,0,.3.3.1.3-.2,0-.2-.3-.3-.3-.2-.5,0-.9.2-1.3-.4.3-.6.9-.5,1.3-.1.1,0-.5,0-.5,0-.3.2-.5.3-.8,0,0-.2.2-.3.2l-.4.8c0-.2,0-.5.2-.7,0-.2.2-.4.3-.6-.4.3-.7.7-.8,1.3,0,0,0-.3,0-.3.1-.4.5-.8.7-1.2,0,0,0-.1,0-.1-.5.7-1,1.6-1.6,2.2,0,0-.2.2-.2.1l1-1.2c0-.1,0-.2,0,0-.3.3-.5.8-.9,1.1,0,0-.1.1-.2,0,.3-.2.5-.6.8-.9.2-.3.3-.2.2-.3.3,0,.3-.2,0-.3,0,0,.3.2.3,0,0-.1-.2-.1-.2-.2,0,0,0,0,.1,0,.2,0,.3-.1.3-.3,0,0-.3,0-.2-.2h.4s-.4-.2-.4-.2c0,0,.1,0,.1,0,0,0,.1,0,.2,0,0,0,.1,0,0,0-.1-.1-.2-.1-.4-.2-.1,0,0,0,0,0h.6c0,.1-.6-.2-.6-.2h.2s.5.2.5.2c-.2-.3-.5-.4-.8-.5h.3c-.1-.1-.3-.3-.3-.4,0-.2-.2-.4-.2-.5v-.5h0ZM24,14.9c.3.1.5.4.7.6v-.2c.4.5.7,1.1,1.4,1.1h-.3c-.5-.4-.7-1-1-1.4,0-.2.2.1.3.2.1.1.2.3.3.5.3.4.7.7,1.2.8,0,0,0,0,0,0-1-.4-1-1.2-1.7-1.8-.1-.1-.3-.3-.5-.3l.5.6-.7-.4c0,0-.1,0-.2,0,0,0-.1,0-.1,0,.3.2.6.4.8.7,0,0,.1.2.1.2-.4-.4-.9-.8-1.5-.8l.8.4c0,0,0,0,0,.1-.3-.1-.9-.4-1.2-.4,0,0,0,0,0,0,0,.2.4.1.5.1.3,0,.5.2.8.3,0,0,0,0,0,0h0ZM25.1,14.6c0,0-.2-.2-.3-.3h-.3c.7.5,1,1.8,2.1,1.9l-.5-.3c-.5-.3-.7-.9-1.1-1.3ZM23.4,15c-.2,0-.4,0-.5,0,0,.1.1.1.2.2-.1,0-.5.3-.5.4.4,0,.8,0,1.2,0,.5.2,1,.8,1.6.9,0,0,0,0,0,0-.2-.1-.4-.3-.5-.4-.4-.4-.7-.9-1.3-1h0ZM23,15.9c0,.2,0,.5.2.7.2,0,0-.6,0-.6h-.2ZM23.6,16c-.2,0,0,.2,0,.2.2,0,.2-.3,0-.2ZM24.3,16.4c-.1,0-.2-.2-.4,0-.2.1-.1.2-.2.3,0,.1,0,0,0,0,.3,0,.4,0,.6-.3h0Z"/>
    <path d="M23.3,25.3c.1,0,.3.2.3.3,0,.3-.6.7-.9.7-.9.2-.5-.8,0-1,.6-.2.4,0,.5,0h0ZM22.5,26.2c.3,0,.8-.2.8-.6l-.4.4-.4.2h0ZM22.4,26c.2,0,.5,0,.5-.3l-.2.2h-.3c0,0,0,0,0,0Z"/>
    <path d="M25.8,13.4s0,0,0,0c.6.6,1.1,1.2,1.4,2.1.3.9.1.3,0,.3l-.2-.3h-.1c-.1-.1-.3-.2-.5-.4-.2-.2-.3-.5-.4-.7-.1-.2-.3-.3-.4-.5,0,0,.1,0,.2,0,.4.3.7.9,1,1.3,0,0,0,.1,0,.1,0,0,0,0,.1,0,0,0,0,0,0,0-.2-.4-.3-.7-.6-1.1-.2-.4-.5-.7-.7-1h0Z"/>
    <path d="M24.8,9.1h0c0,0-.2,0-.2,0,.2,0,.4,0,.6.3.2.2.1.3,0,.6h0c.1-.3-.2-.6-.5-.8-.3-.1-.4-.1-.5,0,.3,0,.9.4.9.8,0,.3,0,.1,0,.1-.1-.3-.5-.6-.8-.8,0,.2.2.3.3.5.1.2.3.3,0,.3,0-.2-.2-.3-.4-.4l-.2-.3c0,.2,0,.4,0,.5,0,.1.1.1.2.2s0,0,0,0c0,0-.3-.4-.3-.5-.2-.6.4-.9.8-.7h0Z"/>
    <path d="M25.1,19.9c0,.2,0,.5,0,.7.1.3.4.7.5,1,.2.7-.2,1.6-.6,2.2,0,0,0,0,0-.1,0,0,.2-.2.2-.3.2-.3.3-.9.3-1.3,0-.7-.5-1.1-.6-1.8,0-.1,0-.4.1-.4h0Z"/>
    <path d="M27.6,15.6c-.1-.1-.2-.3-.2-.5,0-.2-.2-.4-.3-.6-.4-.7-.9-1.3-1.4-1.9,0,0,0,0,.1,0,.4.3,1.3,1.4,1.6,1.9.2.3.3.7.3,1h0Z"/>
    <path d="M24.7,23.7c.3-.6.5-1.1.4-1.8,0-.6-.5-1.2-.5-1.8,0,0,0,0,0,.1,0,.2,0,.4.2.6.1.3.3.6.4.9.2.6,0,1.5-.4,2-.4.5,0,0-.1,0h0Z"/>
    <path d="M24.4,23.8c.3-.6.4-1.3.3-1.9,0-.3-.3-.7-.3-1,0,0,0,0,0,0,.4.9.6,1.8,0,2.8,0,0,0,.1-.1.1h0Z"/>
    <path d="M24,11.6h-.3c-.6,0-1.1.1-1.6.3-.1,0-.2.1-.4.1.7-.4,1.5-.7,2.3-.4h0Z"/>
    <path d="M23.1,7.8l-2-1.3c0,0,.2,0,.2,0,.6.3,1.3.7,1.8,1.3h0Z"/>
    <path d="M23.6,11.1s0,0,0,0c-.8,0-1,.2-1.7.5,0,0,0,0-.1,0,.5-.4,1.3-.7,2-.5h0Z"/>
    <path d="M20.9,20c0,0,0,0,.1,0,0,0,0-.1,0-.1,0,0-.2-.1-.2-.2.2,0,.3,0,.4.2.2-.2.1-.5.1-.7.1,0,.2.1.2.2,0,.4-.2.8-.7.7h0Z"/>
    <path d="M24,23.8c-.1,0,0-.2,0-.2.3-.6.3-.9.2-1.6,0,0,0,0,0,0,.3.6,0,1.4-.3,1.9h0Z"/>
    <path d="M18.7,26.5c0,0,.4-.3.5-.4.2-.2.4-.4.6-.6.1-.2,0-.2.2-.3-.2.6-.7,1-1.3,1.2h0Z"/>
    <path d="M18.6,26.3l.6-.6.5-.7c-.1.3-.3.6-.5.9-.2.3-.3.4-.5.4h0Z"/>
    <path d="M27,16.6c0,0-.3.3-.4.4-.2.1-.4.2-.6.2-.2,0,0,0-.1,0,0,0,.6-.1.7-.2l.5-.3h0Z"/>
    <path d="M23.8,11.9c0,0,0,0,0,0-.4-.1-.9,0-1.3,0-.4.1-.5.2-.5.2,0,0,0,0,0,0,.2-.1.5-.2.8-.2.3,0,.7-.1,1.1,0h0Z"/>
    <path d="M24,22.5c0,0,0-.1,0-.2.1,0,.1.4.1.4,0,.3-.2.7-.4.9h0c0-.1,0,0,0-.1,0,0,.2-.5.2-.5,0-.2,0-.4,0-.5h0Z"/>
    <path d="M25.8,18.7l-.7,1h-.1s.4-.5.4-.6c0,0,.2-.2.3-.3,0,0,0,0,.1,0h0Z"/>
    <path d="M20.2,25.7c-.2.4-.6.6-.9.8,0,0,0,0,0-.1.1-.1.4-.3.6-.4.2-.1.2-.3.3-.3h0Z"/>
    <path d="M20.9,6.3h0s-1.2-.6-1.2-.6c.5,0,.9.4,1.3.6h0Z"/>
    <path d="M20.7,20.6s-.1,0-.1,0c.3,0,.7,0,.9.2-.1,0-.3-.1-.4-.1-.2,0-.3,0-.5,0Z"/>
    <path d="M22.2,25.3c0,0,.5-.4.6-.4,0,0,0,0,.1,0l-.7.4h0Z"/>
    <path d="M20.8,22.9c-.3,0-.5,0-.7,0-.2-.2,0,0,0-.1.2.1.4.1.6.1.2,0,0,0,0,0h0Z"/>
    <path d="M22.4,19.3c-.3-.1-.3-.5-.5-.7.3.1.3.5.5.7Z"/>
    <path d="M27.3,16.8c0,.2-.1.4-.4.4h0c.1-.1.2-.2.3-.3,0,0,.1-.1.1,0Z"/>
    <path d="M23,22.4c0,.3,0,.8-.4.7l.3-.2c0-.1.1-.3,0-.5h0,0Z"/>
    <path d="M16.9,28.4c-.2.1-.5.1-.7.1,0,0,0,0,0,0,.2,0,.4,0,.6,0h0Z"/>
    <path d="M20.5,26.1s-.5.4-.6.4,0,0-.1,0h.1c0-.1.6-.5.6-.5h0Z"/>
    <path d="M16,28.5c0,0,0,0,0,0-.3,0-.5,0-.8,0,0,0,0,0,.1,0,.3,0,.5,0,.8,0h0Z"/>
    <path d="M24.3,11.2c0,0-.1,0-.2,0-.1,0-.3,0-.5,0,.2-.1.5,0,.6,0h0Z"/>
    <path d="M21.4,20.9c.1.1-.2,0-.2,0-.2,0-.4,0-.5,0,0,0,.3,0,.3,0,0,0,.4,0,.4.1h0Z"/>
    <path d="M22.6,9.4l.3.5c0,0-.3-.5-.3-.5,0,0,0,0,0,0h0Z"/>
    <path d="M23.1,23.1c0,0-.4.3-.5.3l.5-.3Z"/>
    <path d="M22.7,8.1l-.3-.2h0c0,0,.4.2.4.2Z"/>
    <path d="M26.2,17.2c0,.2-.3,0-.4.1,0,0,.4,0,.4-.1Z"/>
    <path class="st0" d="M28.1,21.1c-.6.5-1.8.6-2.1-.3-.5-1.2,1.4-2.5,2.4-1.5.5.4.1,1.5-.3,1.9h0ZM28,20.6c0,.1.3-.3.3-.3,0-.2.1-.6,0-.8-.2-.3-.3-.2-.5-.2,0,0-.1,0-.2,0-.8-.1-1.6,1-1.2,1.7.3.5,1.2.4,1.6,0,0,0,.2-.1,0-.2l-.3.3c-.1,0-.3.2-.5.2s0,0,0,0c.4,0,.7-.5.9-.8l.2-.5c0,.3,0,.6-.2.9h0Z"/>
    <path class="st0" d="M26.2,9c1,1.2,2,3,2.3,4.6.4,1.7.4,3.6-.1,5.3h-.1c.5-1.5.5-3,.2-4.5-.3-1.7-1.1-3.5-2.1-4.9-1-1.4-1.5-1.6-2.3-2.4,0,0,.2,0,.3.1.6.4,1.3,1.2,1.8,1.7h0s0,0,0,0Z"/>
    <path class="st0" d="M28.9,13.6s0,0,0,0c0,.2.1.7.1,1,.1,1.3,0,3-.3,4.3,0,0,0,.2,0,.2,0,0,0,0,0-.1,0-.2.2-.7.2-1,.2-.9.2-1.7.2-2.7,0-2-.8-4-2-5.6h0c.8.8,1.3,2,1.7,3.1,0,.2.1.7.1.8h0Z"/>
    <path class="st0" d="M27.1,21.8c-.5,1-1,2.1-1.8,2.9-.3.2-.7.7-1,.8,0,0-.2.1-.3.1v-.2c1.1-.6,1.8-1.6,2.4-2.6.2-.3.3-.5.5-.8.2-.2.1-.2.2-.2h0Z"/>
    <path class="st0" d="M24.3,26.7c-.5.5-1.2.9-1.8,1.3-1.3.7-2.9,1.4-4.3,1.7-.3,0-.7,0-1,.1,0,0,0,0,0,0,1.9-.2,4.7-1.5,6.3-2.6s.7-.5.7-.5h0Z"/>
    <path class="st0" d="M23.9,26.1c.3-.4.8-.7,1.2-1,.5-.5,1-1.1,1.4-1.7l1-1.6c-.2.5-.5,1-.8,1.5-.6,1-1.4,1.9-2.4,2.5,0,0-.4.3-.4.2h0Z"/>
    <path class="st0" d="M29.9,18.7c0,.3-.1.6-.2.9-.5,1.9-1.6,4.1-3,5.5,0,0-.3.3-.3.3,0,0,.2-.2.2-.3,1.1-1.3,2.1-2.8,2.7-4.4.2-.6.3-1.3.5-1.9,0,0,0,0,0,0h0Z"/>
    <path class="st0" d="M28,21.7c-.3.8-.8,1.6-1.3,2.3-.3.4-.7.8-1.1,1.1l1.2-1.5c.4-.5.7-1.2,1-1.7,0,0,0-.2.1-.1h0Z"/>
    <path class="st0" d="M25.1,27c-.3.2-.5.4-.8.6,0,0,0,0,0,0,.4-.2.6-.5,1-.8.6-.5,1.2-1.1,1.8-1.6.2-.3.4-.6.7-.8-.2.4-.5.8-.8,1.1-.5.6-1.1,1.1-1.7,1.6h0Z"/>
    <path class="st0" d="M25.3,26.3s-.4.4-.4.4c-.6.5-1.4,1.1-2.1,1.5-.2,0-.4.2-.6.3-.2,0,0,0-.1,0l1.4-.8c.6-.4,1.1-1,1.7-1.3,0,0,.1,0,.2,0h0Z"/>
    <path class="st0" d="M28.9,19.8s0,0,0,0c0-.4.3-1,.3-1.5,0-.3,0-.6,0-.8,0-.3,0-.5,0-.8s0-.1,0-.1c.1,1.1-.2,2.2-.5,3.3h0Z"/>
    <path class="st0" d="M27,23.9c.3-.5.6-1,1-1.5.2-.3.4-.7.5-1l.2-.4c0,.2,0,.3-.1.4-.3.7-.8,1.5-1.3,2.1,0,.1-.2.3-.3.3h0Z"/>
    <path class="st0" d="M29.5,18.8l.3-2.9c0,1,0,2-.3,2.9Z"/>
    <path class="st0" d="M22.8,28.4c-.3.2-.7.4-1.1.5-.7.3-1.6.5-2.3.7,0,0,0,0,.1,0,.9-.3,1.8-.5,2.8-.9s.3-.2.5-.2h0Z"/>
    <path class="st0" d="M24.7,26.3c.3-.3.6-.6,1-.9.3-.3.4-.3.6-.5.1-.1.2-.3.4-.4-.4.7-1,1.1-1.6,1.6l-.4.2h0Z"/>
    <path class="st0" d="M29.5,16.2s0,0,0,0c0-.3,0-.4,0-.7,0-.5,0-1-.2-1.5l.2.5c.2.6.1,1.2,0,1.8Z"/>
    <path class="st0" d="M29.5,18.9c-.1.7-.3,1.3-.6,1.9-.3.6,0,0,0,0,.2-.6.4-1.3.6-1.9,0,0,0,0,0,0h0Z"/>
    <polygon class="st0" points="26.2 21.6 26.2 22 25.9 22.8 26.1 21.5 26.2 21.6"/>
    <path class="st0" d="M23.9,7h-.1c0,0-1-.7-1-.7.4.2.8.4,1.2.7h0Z"/>
    <path class="st0" d="M24,14.9s0,0,0-.1l-.8-.4c.6,0,1.1.4,1.5.8,0,0,0-.2-.1-.2-.2-.3-.5-.5-.8-.7,0,0,0,0,.1,0,0,0,.1,0,.2,0l.7.4-.5-.6c.2,0,.4.2.5.3.7.6.7,1.5,1.7,1.8,0,0,0,0,0,0-.5,0-.9-.4-1.2-.8-.1-.1-.2-.3-.3-.5-.1-.1-.3-.3-.3-.2.3.5.5,1,1,1.3h.3c-.7.1-1-.5-1.4-1v.2c-.2-.2-.5-.4-.7-.6,0,0,0,0,0,0-.3,0-.5-.2-.8-.3-.1,0-.6,0-.5-.1,0,0,0,0,0,0,.3,0,1,.2,1.2.4h0Z"/>
    <path class="st0" d="M23.4,15c.7.1.9.6,1.3,1,.1.1.3.3.5.4s0,0,0,0c-.6-.1-1-.7-1.6-.9-.4-.2-.8,0-1.2,0,0,0,.4-.5.5-.4,0,0-.2,0-.2-.2.2,0,.4,0,.5,0h0Z"/>
    <path class="st0" d="M25.1,14.6c.4.4.6,1,1.1,1.3l.5.3c-1.1,0-1.4-1.4-2.1-2h.3c0,.2.2.3.3.4Z"/>
    <path class="st0" d="M24.3,16.4c-.2.2-.3.3-.6.3,0,0,0,0,0,0,0-.1,0-.2.2-.3.1,0,.2,0,.4,0h0Z"/>
    <path class="st0" d="M23,15.9h.2c0,0,.2.6,0,.7-.2-.2-.2-.4-.2-.7h0Z"/>
    <path class="st0" d="M23.6,16c.2,0,.3.3,0,.2-.1,0-.2-.2,0-.2Z"/>
    <path class="st0" d="M22.5,26.2l.4-.2.4-.4c0,.4-.4.6-.8.6h0Z"/>
    <path class="st0" d="M22.4,26h.3c0,0,.2-.3.2-.3,0,.2-.2.4-.5.3h0Z"/>
    <path d="M28,20.6c.2-.3.2-.6.2-.9l-.2.5c-.2.3-.5.7-.9.8,0,0,0,0,0,0,.2,0,.3,0,.5-.2l.3-.3c0,0,0,.2,0,.2-.4.4-1.3.5-1.6,0-.4-.7.4-1.8,1.2-1.7.8.1.1,0,.2,0,.2,0,.3,0,.5.2.1.2,0,.6,0,.8,0,.2-.2.4-.3.3h0ZM26.6,21c.3.1.5,0,.7-.2.3-.3.6-.8.5-1.3v.4c-.3.4-.5.7-.9,1,0,0-.4.1-.3.1ZM27.5,19.5c0,0,0,0,0,0-.2.4-.3.9-.7,1.1,0,0-.2,0-.2,0,.1,0,.2,0,.4,0,.4-.2.6-.8.6-1.2h0ZM26.4,20.5c.3,0,.5-.3.5-.6-.1,0-.2.3-.2.4l-.3.2h0Z"/>
    <path class="st0" d="M26.6,21s.3-.1.3-.1c.4-.2.6-.5.8-1v-.4c.2.5,0,.9-.4,1.3-.2.2-.4.4-.7.2Z"/>
    <path class="st0" d="M27.5,19.5c0,.4-.2,1-.6,1.2-.1,0-.2.1-.4,0,0,0,.1,0,.2,0,.4-.3.5-.7.7-1.1.2-.4,0,0,0,0h0Z"/>
    <path class="st0" d="M26.4,20.5l.3-.2c0-.1.1-.3.2-.4,0,.3-.2.6-.5.6h0Z"/>
  </g>
</svg>