<?xml version="1.0" encoding="UTF-8"?>
<svg id="Layer_1" xmlns="http://www.w3.org/2000/svg" version="1.1" viewBox="0 0 110.1 70.4">
  <!-- Generator: Adobe Illustrator 30.5.1, SVG Export Plug-In . SVG Version: 2.1.4 Build 3)  -->
  <defs>
    <style>
      .st0 {
        fill: #e99b25;
      }

      .st1 {
        fill: #221f1f;
      }
    </style>
  </defs>
  <g>
    <path class="st0" d="M13,39.5l-.3.3c-1.7-1-3.2-2.3-4.9-3.4l4.3,3.7c.3.2,0,.6-.3.4-.3-.2-.7-.7-1-1-.7-.6-1.4-1.2-2.1-1.8-1.4-1.3-2.9-2.6-4.3-3.8,0,0,.3,0,.3,0,.5.3,1.1.7,1.6,1,1.7,1.1,3.3,2.3,5,3.5.2.1,1.7,1,1.6,1.1h0Z"/>
    <path class="st0" d="M35.2,53.4c2.1,1,4.3,2.2,6.5,3.3.4.2.9.5,1.4.8.4.3.3.2.3.2l-1.1-.3c-2.5-1-5.1-1.9-7.7-2.9-.4-.2-1.2-.2-.9-.8.1,0,.8.4,1,.4,1.2.4,2.3.9,3.5,1.4.2,0,.5.2.7.3.2,0,.4.2.6.3.2,0,.1,0,.2,0-.6-.3-1.2-.6-1.9-.9-.6-.3-1.1-.5-1.7-.8-.6-.3-1.4-.7-2.1-1-.2-.1-.2-.5,0-.5.1,0,1,.5,1.2.5h0s0,0,0,0Z"/>
    <path class="st0" d="M5.4,40.4l5,2.6c.1.1,0,.3,0,.4l-.5-.2-8.5-4.6c0,0,.3,0,.4,0,.4.1.9.4,1.3.5,2.3.8,4.6,1.6,6.8,2.5.2,0,1.1.4,1.1.6l-.2.2-5.3-2.1h0Z"/>
    <path class="st0" d="M40.4,34.7c-.1.2-.3.4-.5.5-2.2,2-4.6,3.9-7,5.8-.2.1-.3.1-.4,0,0-.2,0-.4.2-.5,1-.9,2.4-1.7,3.5-2.6l1.1-.9-5,3.3c-.3.1-.3,0-.5-.3l8.5-5.3Z"/>
    <path class="st0" d="M44.8,46.4h-.2c-2.4.4-4.8.7-7.2,1-.4,0-2.2.4-2.5.3-.2,0-.1-.4,0-.4.4-.1,1.5-.1,2-.2,1.3-.1,2.6-.3,3.8-.4l-6,.2c0-.4-.2-.5.3-.5,1-.1,2.5,0,3.5,0,2.1,0,4.2,0,6.3.1h0s0,0,0,0Z"/>
    <path class="st0" d="M10.2,51.8v.4c-.9.6-2.1,1.1-3.3,1.5l-2.1.9c0,0,.1,0,.2,0,.2,0,.4-.2.6-.2s.2,0,.3,0c1.4-.5,2.9-1,4.3-1.4.1,0,.2,0,.3,0,0,0,0,.4,0,.5l-9.2,2.8c0,0,0,0,0-.1,1.1-.6,2.3-1.1,3.4-1.6,1.1-.5,2.2-1.1,3.3-1.6.7-.3,1.5-.6,2.2-1h0s0,0,0,0Z"/>
    <path class="st0" d="M26.4,25.9c-.2,2.4-.6,4.8-.9,7.2,0,.4-.1.7-.2,1.1,0,.4,0,1.3-.2,1.4-.1.1-.4,0-.4-.2l.9-5.4-1.3,5.4c-.4.2-.5,0-.4-.4.2-1,.6-2.1.9-3,.4-1.6.8-3.3,1.3-4.9.5-1.6.2-.8.3-1,.1-.3,0-.1.1-.1h0Z"/>
    <path class="st0" d="M43.3,40c0,0,0,.2-.2.2-.1,0-.4.2-.5.3-2.5,1.2-5.2,2.5-7.7,3.5-.2,0-.5.2-.7.3h0c0-.1-.2-.3,0-.4,0,0,.2-.2.3-.2.8-.4,1.7-.6,2.5-.9l3-1.3c0,0-.1,0-.2,0-.2,0-.5.2-.7.3-1.6.5-3.3,1.2-4.9,1.6,0,0-.3,0-.3,0v-.4c-.1,0,0-.1,0-.1,3.2-.8,6.3-1.9,9.5-2.8h0s0,0,0,0Z"/>
    <path class="st0" d="M14.1,57.7s.2.2.2.2c-.8,1.4-1.9,2.6-2.9,3.9-.3.4-.6.8-.8,1.2l3.9-4.4c.1-.1.4-.2.5,0h0c0,.1-6.6,7.4-6.6,7.4,0,0,0-.1,0-.2.2-.4.6-.9.9-1.3,1.3-2,2.5-3.8,4-5.7.2-.2.5-.8.7-.9.2-.2.2-.1.2-.1h0Z"/>
    <path class="st0" d="M36.6,30.5c-1.7,2.8-3.8,5.4-5.8,7.9-.1.1-.3.1-.4,0h0c0-.1,3.9-5,3.9-5l-4.3,4.6-.3-.2,7-7.3h0Z"/>
    <path class="st0" d="M9.8,45.6l-5.4-.7c1.8.5,3.6.7,5.4,1.3.1.2-.2.4-.3.4-2.4-.6-4.9-1.2-7.3-1.9-.7-.2-1.4-.4-2.1-.6.4,0,.7,0,1.1,0,1.7.2,3.5.5,5.2.7,1.2.1,2.4.1,3.5.5v.3s0,0,0,0h0s0,0,0,0Z"/>
    <path class="st0" d="M17,59.6h0c-.4,1.2-.9,2.2-1.4,3.2-.2.5-.5,1-.7,1.5s0,.1,0,.2l2.4-4.6c.1-.1.4.1.3.3l-4.4,8.2-.4.5,3.7-9.5h.4c0,0,0,0,0,0h0Z"/>
    <path class="st0" d="M11.7,55.1v.3c.1,0,0,.2,0,.2l-4.2,3.4-.9.8c.9-.7,1.8-1.4,2.7-2,.6-.5,1.3-1,2-1.4.2-.1.7-.5.9-.4.2,0,.2.1.1.2l-7.9,5.5c0-.1,0,0,0-.1,2.1-2.2,4.4-4.2,6.7-6.1,0,0,.4-.3.5-.3h0Z"/>
    <path class="st0" d="M44.5,52.4l-10-1.3v-.4c0,0,.3,0,.3,0,0,0,6.2,1,6.2,1l-3.3-.8c-.8-.3-1.9-.3-2.7-.6-.3-.1-.3-.1-.3-.5,0,0,.3,0,.4,0,2,.4,4.1,1,6.1,1.5.9.3,2,.5,2.9.8,0,0,.4.1.4.2h0Z"/>
    <path class="st0" d="M19.3,66.2l1.3-5.4h.5c0,.1,0,.3,0,.5-.2,1.2-.6,2.7-1,3.9-.5,1.7-1,3.4-1.5,5.1l1.3-9.6c0-.2.4-.2.5-.2l-.9,5.7h0Z"/>
    <path class="st0" d="M32.5,55.6l7.4,6.6c-.5-.2-.9-.5-1.4-.8-2-1.3-4.1-2.7-5.9-4.1-.2-.1-.7-.5-.8-.7s0-.4.2-.3l4.7,3.4-4.3-3.7c-.2-.2,0-.4.1-.5h0Z"/>
    <path class="st0" d="M29,34.7c-.3.7-.6,1.3-.9,1.9,0,.1-.5.1-.4,0,.9-1.8,1.7-3.5,2.4-5.3h0s-1.1,2.2-1.1,2.2c-.6,1-1,2.1-1.8,2.9h-.2s0-.3,0-.3c.2-.8,1.3-1.9,1.6-2.7.3-.7.7-1.4,1.1-2.1.7-1.2,1.2-2.6,2.1-3.7,0,0,0,.3,0,.4-.8,2.2-1.7,4.6-2.7,6.8h0s0,0,0,0Z"/>
    <path class="st0" d="M2.8,49.5c0,0,.1,0,.2,0,1.3,0,2.6-.1,3.9-.2,1.3,0,1.2,0,1.7,0s.9,0,.9.1c0,.1,0,.3,0,.3-1.8,0-3.5,0-5.3,0-1.2,0-2.5,0-3.7,0,0,0-.6,0-.6-.1,1.1-.2,2.3-.3,3.4-.5.5,0,.9-.2,1.4-.3,1.5-.2,3-.3,4.5-.4h0c0,.1,0,.4,0,.4-2.2.2-4.4.3-6.6.6h0Z"/>
    <path class="st0" d="M16.1,31.3c0,0,0,.2,0,.2,0,.2.2.5.3.7s.1.6.2.9c.4,1.1.8,2.2,1,3.4-.1,0-.2,0-.3,0-.2-.1-.3-.7-.4-1-.8-2.4-1.4-4.9-2.1-7.3,0-.2-.3-.5-.2-.7.2.4.5.9.7,1.3.7,1.4,1.3,2.9,1.9,4.3.4.8.9,1.8,1.2,2.6s.1.5,0,.5c-.2,0-.3-.2-.4-.4-.3-.6-.5-1.3-.8-1.8l-1-2.6h0s0,0,0,0Z"/>
    <path class="st0" d="M29.1,65.6l-.2-.8-1.8-4.9h.4c0,0,.3.7.4.9.8,2.3,1.7,4.9,2.2,7.2,0,.1.1.4,0,.5l-2.1-4.4-1.8-3.9c.2,0,.3,0,.4-.2l2.4,5.6h0s0,0,0,0Z"/>
    <path class="st0" d="M35.5,66.1l-6.2-7.3.2-.4c0,0,0,0,0,0,.4.5.9,1,1.4,1.6.8.9,1.5,1.9,2.2,2.9v-.2s-3.2-4.6-3.2-4.6h0c.2-.1.4-.1.5,0,1.8,2.5,3.4,5.2,5,7.8h0s0,0,0,0Z"/>
    <path class="st0" d="M21.7,35.5h-.4c-.2-.9-.4-1.9-.5-2.8-.1-.8-.2-1.6-.3-2.4,0,0,0,.1,0,.2,0,.5,0,1.1.1,1.6,0,1,.3,2.3.3,3.2,0,.3,0,.3-.3.4l-.2-.3c0-2.9-.5-6-.3-8.9,0,0,0-.2,0-.3l1.5,9.3h0Z"/>
    <path class="st0" d="M15.5,37.4h-.3c0,.1,0,0,0,0l-2.3-3.2-.7-.8,2.7,4,.2.5c-.2.1-.3,0-.5,0l-4.9-7.8c.1,0,.3.2.3.3.8.9,1.6,2,2.4,2.9.9,1.1,1.8,2.2,2.6,3.3,0,.1.6.8.6.9h0Z"/>
    <path class="st0" d="M23.5,60.7c.4,1.9.4,3.8.7,5.7l-.3-5.1c0-.1,0-.3,0-.4,0-.1.3-.2.3,0l.2,9.2c-.5-2.9-1-5.9-1.4-8.9,0,0,.3-.4.3-.3h0Z"/>
    <path class="st0" d="M9,33.7l4.4,4.4c.2.2.6.5,0,.7-.2,0-.7-.8-.9-1-.6-.7-1.3-1.4-2-2.1-.6-.6-1.1-1.3-1.7-2h0c0,0,0,0,0,0h0Z"/>
    <path class="st0" d="M21.8,67.3c0-1,0-2,0-3,0-1,0-2.1,0-3,0-.3.2-.5.5-.3,0,.1,0,.8,0,1,0,1.3-.2,2.5-.3,3.9,0,.5,0,1-.2,1.5h0Z"/>
    <path class="st0" d="M38.9,38.9c0,0,0,0-.1.1-.9.6-1.9,1.1-2.9,1.7-.6.3-1.3.8-1.9,1.1-.1,0-.6.3-.6.3,0,0-.2-.3-.1-.4,0,0,.9-.5,1.1-.6,1.1-.6,2.3-1.2,3.4-1.7.4-.2.8-.4,1.2-.5h0s0,0,0,0Z"/>
    <path class="st0" d="M40.9,54l-4.3-1.1-2.4-.7h0c.2-.4.2-.4.5-.3,1.7.4,3.8,1.2,5.5,1.8,0,0,.7.2.7.3h0Z"/>
    <path class="st0" d="M23.1,28.7c0,0,0,0,0,.1,0,.2,0,.4,0,.5,0,1.9-.2,3.9-.3,5.8,0,.3-.3.3-.5.1l.7-6.6h0Z"/>
    <path class="st0" d="M41.1,49.2c0,0,0,0-.1,0-1.4,0-3.1-.1-4.5-.2-1.4,0-1.1-.1-1.7-.1-.1-.5.7-.4,1-.3,1.2,0,2.5.2,3.7.3.5,0,1.1.2,1.6.3h0Z"/>
    <path class="st0" d="M36.1,35.1l-.5.5-4,3.6c-.2.1-.6,0-.3-.3.2-.3.8-.6,1.1-.8,1.2-1,2.4-2,3.7-2.9h0s0,0,0,0Z"/>
    <path class="st0" d="M8.8,61.2l3.7-3.9c.1,0,.4-.4.6-.4.3,0,0,.4,0,.5-.4.4-1.1,1.1-1.6,1.5-.9.8-1.8,1.5-2.7,2.2h0Z"/>
    <polygon class="st0" points="25.5 60.4 26.6 66.2 26.5 66.2 26.5 66.3 25 60.7 25.5 60.4"/>
    <path class="st0" d="M3.9,52.1c0,0,0,0,.1,0,.2,0,.4-.1.6-.2,1.5-.4,3-.8,4.5-1.1.1,0,.6-.1.7,0,0,.3-.2.4-.5.5-.8.3-2.2.4-3,.6-.8.1-1.6.3-2.4.4h0s0,0,0,0Z"/>
    <path class="st0" d="M15.9,59s.1,0,.2,0c-.6,1-1.3,2-1.9,3l-1.8,2.8s0-.2,0-.2c.5-1.2,1.5-2.7,2.1-3.8.4-.6.8-1.3,1.2-1.9,0,0,0,0,.1,0h0s0,0,0,0Z"/>
    <path class="st0" d="M11.4,41.5l-5.7-3.8c.3.1.6.3.8.4,1.6.9,3.2,2,4.8,2.9.2.1,0,.3,0,.5h0Z"/>
    <polygon class="st0" points="28.2 29.8 26.2 36 25.8 35.9 28.2 29.8"/>
    <path class="st0" d="M35.7,61.9c-.2-.1-.6-.4-.8-.5-.7-.6-1.4-1.3-2-1.9-.5-.5-1.5-1.4-1.9-1.9,0,0,0,0,0-.1,0,0,.2-.2.2-.2.2,0,1.5,1.5,1.8,1.8.9.9,1.8,1.9,2.7,2.8Z"/>
    <path class="st0" d="M13.5,31.4l.7,1c.8,1.4,1.5,2.9,2.2,4.4,0,.1-.2.3-.3.3l-2.6-5.6h0s0,0,0,0Z"/>
    <path class="st0" d="M31.4,64.6l-.3-.3c-.6-1-1.1-2-1.7-3-.1-.3-1.1-1.8-1.1-1.9.5-.4.6.4.8.7.6,1.2,1.3,2.4,1.8,3.6.2.3.3.6.4,1h0Z"/>
    <path class="st0" d="M40.8,44.2c0,0-.1.1-.2.1-.7.2-1.6.4-2.4.5-1.2.3-2.5.4-3.7.7-.2,0,.1-.5.3-.4,2-.3,4-.7,6-.9Z"/>
    <path class="st0" d="M11.1,54.2c.2.3-.2.5-.5.6-1.2.7-2.4,1.2-3.7,1.8-.4.2-.7.4-1.1.5,0,0,.2-.2.2-.2,1.2-.8,2.8-1.7,4.2-2.4.3-.1.5-.3.8-.4h0Z"/>
    <polygon class="st0" points="38.7 58.3 32.9 55.1 32.9 55.1 33.1 54.8 33.2 54.8 38.7 58.3"/>
    <path class="st0" d="M32.6,31.8l-3.6,5.5c-.2.1-.4-.2-.2-.4,1.1-1.4,2.1-2.9,3.1-4.3,1.1-1.4.4-.6.6-.8h0s0,0,0,0Z"/>
    <path class="st0" d="M19,60.3l-2.2,6.3c0-.2,0-.5,0-.7.4-1.9,1.1-3.7,1.6-5.5,0-.2.3,0,.5,0h0Z"/>
    <path class="st0" d="M19.7,35.6c0,0-.3.2-.4.1-.1,0-.4-1.9-.4-2.2-.2-1-.5-1.9-.7-2.9v-.9c-.1,0,1.5,5.9,1.5,5.9h0s0,0,0,0Z"/>
    <path class="st0" d="M3.5,47.3h.2c0,0,5.7,0,5.7,0,.2,0,.2.4,0,.4l-6-.4h0Z"/>
    <path class="st0" d="M4.1,42.6c.5,0,1.1.2,1.7.3,1.4.3,2.8.8,4.2,1.1.1,0,0,.4,0,.4l-5.8-1.8Z"/>
    <g>
      <path class="st0" d="M17.3,37.3c2.7-1.2,5.6-1.4,8.2-.7,2.6.7,3,1.1,4.2,2.1.9.7,1.7,1.6,2.4,2.7,2.2,3.4,2.6,7.4,1.1,11.2-3.6,9.3-16.1,10-21.2,1.7-3.8-6.1-1.3-14.1,5.2-17ZM17.5,37.5c-9.4,3.8-8.9,17.4.3,21.3,10.6,4.5,19.7-7,14.3-16.7-.6-1.1-1.3-2-2-2.7-1.5-1.5-3-1.9-4.3-2.3-2.6-.7-5-1-8.3.4h0Z"/>
      <path class="st0" d="M13.7,50.5c0,0,.2,0,.2,0,0,0,.2-.2.2-.2s0,0,.2,0c.1,0,.2-.1.4-.1,0,0,0,0,0,0,0,0,.2-.2.4-.2s.4,0,.4,0c.1,0,.2.2.3.2s.5.2.5.2c0,0,.2,0,.1,0h-.2c.6-.1,1.3-.2,1.9-.6.6-.4,1-1,1.6-1.3,0-.1,0-.3,0-.5,0-.1.5.1.5.2-.6,1.1-1.6,2-2.7,2.4h.5c.7-.3,1.1-.9,1.7-1.3-.3.6-.8,1-1.1,1.5,0,0,.7-.6.8-.7.4-.5.8-1.2,1.1-1.8,0-.1,0-.3.1-.4,0,.1,0,.3,0,.4-.2.8-.6,1.5-1.1,2.2.2,0,.3-.3.4-.4.3-.5.6-1.1.9-1.6,0,.1,0,.2,0,.3,0,.2-.2.7-.3.9,0,.2-.3.5-.4.8,0,0,.1-.2.2-.2.1-.2.3-.3.4-.5.1-.2.2-.5.3-.8s0-.2.1-.2c0,.7-.4,1.3-.8,1.9,0,0,.1,0,.2,0,.3-.3.6-.8.8-1.1,0,0,0,.2,0,.3,0,0-.2.5-.2.6-.1.2-.4.4-.3.6l.6-.7v-.3c.4.4-.1.6-.2.9-.1.3,0,.2,0,.3,0,.2-.3.3-.4.5h.1c0,.6.2,1.1-.2,1.6l.2-.2v.2c0,0,.2-.5.3-.5,0,.2.2.3.4.4h-.2c0,.3.4.2.6.2.3,0,.3,0,.6,0,.3,0,.6,0,.8,0-.4-.2-.9-.2-1.4-.2h.3c.6,0,1.5-.4,2,.1.2-.4.2-.9.6-1.2h0c.1,0,.4,0,.6-.2.5-.4.7-1.2.3-1.7-.4-.5-.4-.4-.5-.3h0c0,0-.1,0-.1,0,0,.1.2.1.3.2.3.3.3,1,0,1.1-.4.2-.4.1-.4-.1h-.2c0,0,.1,0,.1,0h0c-.3.2-.2.6-.5.8,0,0-.8.3-.9.3,0,0-.1,0-.1,0h.1c-.1-.2-.2,0-.2,0,0,0-.3-.4-.3-.4h.1c0-.1-.3-.3-.3-.4-.2-.4-.3-1.1-.5-1.6-.3-.9-.6-1.7-.9-2.5-.3-.8,0-.4-.2-.4h0c-.2-.3,0-.8-.2-1.3v.8c-.5-.4,0-.9-.4-1.3v.7c0,0-.2.2-.2.2-.2-.4,0-.8,0-1.1-.2,0-.2.5-.4.5-.2,0-.3,0-.4,0-2-.2-3.9,0-5.3,1.6-.4.4-.6,1-1,1.4,0-.6.4-1,.7-1.5-.4.1-.5.7-.7.9s0,0,0,0c.1-.1,0-.3.2-.5.2-.5.9-1.4,1.3-1.9.2-.3.4-.4.6-.7-.3.1-.7.5-.9.8-.3.3-.7.8-.9,1.1-.1.1-.3.6-.4.7s0,0,0,0c.3-1.2,1.2-2,2-2.9,0,0,0-.2.1-.2.1-.1.4,0,.6,0,.5,0,.8-.2,1.3-.4.4-.1.8-.2,1.1-.4,0,0-.1,0-.2,0-.7.2-1.3.5-2,.6s-.6,0-.9,0c0,0,0,0,0,.2,0,.1-.6.6-.7.7,0-.2.2-.4.3-.5.5-.7,1-1.3,1.5-1.9,0,0,0-.1,0,0-.2.1-.9,1-1.1,1.3-.5.7-.9,1.4-1.4,2.2-.2.3-.5.6-.6.9-.1-.1,0-.3,0-.5,1-1.3,1.8-2.9,2.9-4.1.4-.4.9-.8,1.3-1.3,0-.1,0,0-.1,0-.3.2-.5.6-.8.9-1,1-1.9,1.9-2.7,3.1l-.8,1.4c0,0,0-.1,0-.1.2-.6.7-1.3,1-1.8.6-.9,1.5-2.1,2.3-2.8.4-.4.8-.7,1.2-1,0-.1,0,0-.1,0-.8.4-1.7,1.4-2.2,2.1-.2.2-.1.2-.2.3-.2.3-.7.8-1,1.1-.3.3-.5.7-.7,1.1h0c.3-.7.7-1.3,1.1-1.9.4-.7.9-1.4,1.5-1.9.4-.4,1-.8,1.4-1.1,0,0,.1,0,0-.2-.2,0-.4.2-.5.3-.6.4-1.3,1-1.8,1.5-.8.9-1.4,2-1.9,3.1,0,0,0-.1,0-.1,0-.2.2-.5.3-.8.9-2,2.1-3.5,4-4.6.3-.2.6-.3.9-.4,0,0,.1,0,0-.1-1.2.4-2.2,1-3.1,1.9-1,1-1.6,2.3-2.3,3.5h-.1c.3-.7.6-1.3,1-2,1.5-2.3,4.2-4.1,6.9-4.6,2.5-.4,5-.1,7.3,1.1,0,.2-.3,0-.4,0-1.1-.3-2.2-.6-3.4-.7-1.8-.2-3.7,0-5.4.7,0,0,0,0,0,0,.3,0,.6-.2.8-.3,2.2-.6,4.1-.6,6.3,0,.6.2,1.3.4,1.9.7h-.2s0,0,0,0c.5.1,1.1.3,1.5.6,0,0-.1,0-.1,0-.5-.2-1-.3-1.5-.5l-2.6-.5c.3.2.7.3,1.1.4,1.1.3,1.9.3,2.9.9.1,0,.3.2.4.3-.9-.4-1.8-.7-2.7-1-1-.3-2-.5-3-.6.4.2,1,.2,1.5.3.2,0,.3.2.5.2.5.1,1,.2,1.5.4,0,0-.1,0-.2,0-1,0-1.6-.4-2.5-.5,0,0-.3,0-.2,0,.7.1,1.4.5,2.1.6.3,0,.8,0,1.1,0,.4,0,1,.4,1.4.6.4.2.3,0,.5.2.2.1.4,0,.5.4,0,0,.1,0,0,0-.3-.2-.7-.3-1-.4-.7-.2-1.5-.5-2.2-.6,0,0-.3,0-.3,0,.4.2.8.2,1.3.4.3,0,.8.3,1.1.4.2,0,1.2.5,1.4.6,0,0,.2.2.1.3l-3-1.1c-.3,0-.7-.2-1-.2s-.1,0,0,0c1.4.4,2.7,1.1,4.2,1.4,0,.3.5,1.1.4,1.4s-.2.2-.2.2h0c0,0,.2-.2.2-.2,0,.2,0,.3.2.3v.4c0,0-.2-.1-.3-.2-.1,0,0,0-.1,0,.2.2,0,.3-.1.5.2.1.2-.2.3-.2.2.1.4.2.4.5h0c.3,0,.3.4.6.4h0c1,.9,1.6,2.4,1.6,3.8,0,1.5-.6,3-1.2,3.9,0,.2-.2.4-.3.5.2-.5.4-.9.6-1.3.4-1,.8-2.4.8-3.5,0-.7-.2-1.5-.6-2.1s0-.1-.1-.1c0,.3.3.6.4.9,0,.3.2.8.2,1.1,0,.3,0,.2,0,.3-.1-1.1-.4-2.2-1.1-3,0-.1-.4-.3-.4-.4,0,0,0-.2-.1-.3,0,0,0,.1,0,.2,0,.4.6,1,.8,1.3.5.9.8,1.8.7,2.8,0,0,0,0,0-.1,0-.1,0-.3,0-.4,0-.9-.6-2.3-1.4-2.8-.8-.5-.5-.2-.5-.3.2,0,.2-.3.1-.4l-.3.5h0c.2.3.4.5.7.7.6.7,1,1.7,1.2,2.7,0,0,0,0,0-.1,0-.2-.1-.3-.2-.5-.3-.5-.9-1.4-1.3-1.7,0,0-.2,0-.3-.1l.2-.4-.4.4c0,.2.2.1.3.2.8.6,1.7,2.3,1.8,3.2s0,1,0,1.5c0,0,0,0,0-.1,0-.3,0-.8,0-1.1-.1-1.1-.7-2-1.5-2.8,0,0,0,.1,0,.2.6.9,1.1,1.6,1.3,2.7.3,1.8-.3,3.8-1.5,5.2-1.2,1.3-.7.7-1.2,1,0,0-.1.1-.1,0,.3-.2.5-.5.7-.7.4-.3.5-.3.8-.8.8-1.3,1.3-2.8,1.1-4.4-.1-1-.5-1.4-1-2.1-.6-.8,0-.2,0-.2,0,0-.1,0-.2,0s0-.1-.2,0c.1.3.4.5.6.7.5.7.7,1.5.7,2.3,0,0,0,.2,0,.3,0-.3,0-.6-.2-.9-.2-.7-.6-1.3-1.1-1.9h-.2c0,.3.3.4.5.5.3.4.7,1.2.8,1.7.1.5.2,1.6-.1,2.2-.3.4-.2.5-.4.9-.1.3-.5,1.1-.7,1.3,0,0-.3.2-.3.2.3-.3.5-.7.7-1.1s.3-.6.2-.8c0,.2,0,.3-.2.5-.1.3-.6,1.1-.8,1.3,0,0-.2.2-.3.2v-.3c.1,0,0,0,0,0,0,.2,0,.3-.3.4-.5.4-1.1.7-1.7.9,0,0,0,0,0,0,.6-.2,1.3-.5,1.9-.9,0,.1,0,0,0,.1,0,0-.1.2-.2.3-.3.3-.5.2-.7.6,0,0-.1,0,0,.1.2-.1.5-.3.7-.4.2-.1.1-.1.2-.2.2-.1.5,0,.7-.4.2,0,0,.2,0,.2.5-.4.9-.7,1.2-1.2.4-.6.7-1.3,1.1-1.8,0,0-.1.4-.1.4-1.6,3.3-4.4,5.4-8.1,5.9-1.8.2-3.8,0-5.4-.8l1.6.4c3.3.8,7.8,0,9.8-2.9-.3.2-.6.5-.9.7-.2.1-.6.3-.7.5h.1c-.5.3-1,.6-1.5.9-2.1,1.1-5.3,1.2-7.5.2-1-.5-2.4-1.4-2.9-2.5,0,0,0-.1,0-.2.7,1.2,2,2.1,3.3,2.7.5.2,1.7.6,2.3.5.5,0,1,0,1.6,0,.3,0,.6-.1.9-.2,0,0-.1,0-.2,0-1,0-1.7,0-2.7-.2-1.7-.4-3.1-1.5-3.2-3.4,0-.3,0-.7,0-1-.1,0-.3.5-.3.6,0,1,.3,1.9.9,2.7.4.5,1.6,1,2.2,1.2.3,0,.6,0,.8.2-.5,0-1.2-.1-1.7-.3-1.5-.6-2.9-2-2.7-3.7,0-.4.2-.8.4-1.2h-.1c-.3.5-.5,1-.5,1.6s.3,1.4.6,1.9l-.2-.2c0,0,0,.2,0,0-.7-.7-.8-2.4-.6-3.3,0-.2.2-.4,0-.6l-.3.5c-.1.3-.3,1.8-.2,2.1l.3.8s.2.1,0,.2c-.2-.2-.4-.5-.5-.7-.3-.7-.3-2,0-2.6s.3-.4,0-.4c0,.2-.2.2-.2.4s-.2.8-.2.9c0,.4,0,.9,0,1.4,0,.5,0,.2,0,.4,0-.1-.1-.3-.2-.4-.2-.6-.3-1.9,0-2.4.1-.2,0-.2,0,0l-.2-.2c-.1.4-.2.7-.2,1.2,0,1.2.1,1.8.8,2.8l.6.8c-.3-.3-.6-.6-.8-.9-.4-.6-.7-1.4-.8-2.2,0-.7,0-.7,0-1,0-.3,0-.2-.1-.4,0-.3.3-.7,0-.8,0,.2-.1.5-.2.7-.1.8,0,1.7.3,2.4,0,0-.1,0-.1-.1-.3-.5-.5-1.9-.5-2.4,0-.2.1-.4.2-.6h-.2c0,0,0-.3-.1-.4-.1,0,0,.3-.3.3h.2c0,.2-.1.5-.2.8,0,.1,0,.8,0,.9l.4,1.1c0,0-.1,0-.1-.1-.4-.8-.7-1.7-.6-2.6,0-.1,0-.2,0-.3,0-.2,0-.4,0-.6,0,0-.3.4-.3.5-.2.5-.2,1,0,1.5,0,.2.1.4.1.6,0,0-.1-.1-.1-.1-.2-.4-.3-1.3-.2-1.8,0-.1.4-.7.6-.8s.3-.1.5-.2c0,0,0,0-.2,0-.4,0-.5.2-.8.5,0-.1,0-.2,0-.4-.3.2-.4.8-.4,1.1,0,.2,0,.5.1.7,0,.2,0,.1,0,.1,0-.3-.2-.7-.2-1.1,0-.1,0-.6,0-.7s0,0,.1-.2c0,0,0-.3,0-.4.1,0,.1.3.2.4h.1c0,0,0,0,0,0h0s0,0,0,0ZM21.9,38.1c0,0-.2,0-.3,0-.6,0-1.2.2-1.8.3l2.1-.3ZM20.3,38.8c-.4,0-.9.2-1.3.4,0,0-.2,0-.2.2.4-.2.8-.3,1.2-.4s.3,0,.2-.1h0ZM21.6,38.7c-.3,0-.7,0-1,0,0,.1,0,0,.1,0,.3,0,.6,0,.9,0ZM26.6,38.8c-.8-.4-1.7-.4-2.6-.6-.9-.1-.6-.2-.9-.1,0,0,0,0,.2.1.2,0,.4,0,.6,0,.9.2,1.8.5,2.8.6h0s0,0,0,0ZM25.2,39.8c-.4,0-.7-.1-1.1-.2l.6.3h.5s0,0,0,0h0ZM21.2,41.2l-3,.9c0,0,.1,0,.2,0,.5,0,2-.5,2.6-.8,0,0,.3-.1.3-.2h0ZM21.9,41.6l-2.9,1.1c0,0-.4,0-.4.1,1.2-.2,2.3-.8,3.4-1.1,0,0-.1,0-.2,0ZM18.4,43.7c-.6,0-1.1.3-1.6.4-.3,0-.6,0-.9.3.1,0,.3,0,.4,0,.6-.1,1.1-.3,1.6-.5.1,0,.6,0,.5-.2h0s0,0,0,0ZM22.2,42.3c0,0-.1,0-.2,0-.2,0-.5.2-.8.3-.7.3-1.4.5-2.1.8,0,0,0,0,0,0,.2,0,.4-.2.6-.2s.2,0,.3,0c.7-.2,1.4-.6,2.1-.9h0ZM15.2,45.3c-.4.4-.9.7-1.1,1.2.3-.3.8-.7,1.1-1.1.3-.4.1,0,0-.2h0ZM18.9,44c-.2.1-.5.2-.6.4.2,0,.5-.1.6-.4ZM29.1,42.5c0-.1-.2-.2-.3-.3-1.8-1-4.4-.3-5.8,1-.1.1-.5.6-.6.7-.1,0-.4-.2-.3,0,0,.1.2.2.1.4l-.3-.2h-.3c0,0,.3.2.4.3.2.3.1.6.3.8l-.5-.3c0,.3.3.5.5.7h-.2c0,.1.3.2.2.4h-.2s1.7,3.8,1.7,3.8c.5-.2,0-.6-.2-.8-.1-.3-.2-.7-.3-.9-.1-.3-.2-.2-.2-.4.2,0,.4.3.5.4.2.1.1,0,.1,0-.3-.4-.8-.6-.9-1.1l1,.9c.1,0,0,0,0-.1,0-.1-.3-.2-.4-.3-.1-.1-.3-.4-.4-.6.3.2.5.5.8.5l-1.1-.9v-.4c0,.1.3,0,.3,0,0,0,0-.3.2-.3l-.2.7c0,0,0,0,0,0,.2-.1.3-.9.6-1l-.3.9c0,.1.1,0,.2,0,.1-.3.1-.7.4-.9,0,.1.2.1.2.1,0,.2-.4.6-.4.9.1-.1.2,0,.3,0,.6,0,1.2,0,1.8,0,.8,0,1.8-.7,2.3-1.3,0-.1.2-.3.3-.4.4-.4,1-.4,1.4-.9.5-.5.1,0,0-.2-.3.2-.5.3-.8.3,0,0,.2.1.4,0h0c0,0-.3.1-.3.1-.5,0-1.2-.4-1.6-.4-.1,0-.2,0-.3,0-.4,0-.7,0-1.2,0-.6.2-1,.6-1.5.9-.2-.3.1-.7.4-.9.5-.4,1.1-.6,1.8-.6,1,0,2.1,1,3,.2.1-.1.4-.3.2-.5-.4.5-1,.9-1.6.5.4,0,.8,0,1.1-.3.3-.3.2-.3.2-.4,0,0,.3,0,.2-.2h-.4c0,.2,0,.3,0,.3-.1.2-1.1.3-1.3.2.2,0,.4,0,.7-.2.2-.1.3-.3.5-.3.3,0,.3.1.7-.2s.1,0,0-.1c-.1,0-.2,0-.3.2,0,0,0-.3,0-.3-.1,0,0,.3,0,.3,0,.1-.7-.2-.8-.3-.2,0-.3,0-.5-.3l-.8-.2c.2,0,.4,0,.5,0,.1,0,.8.2.8.2.2,0,.2.3.5,0h0c0,0-.2,0-.2,0h0s0,0,0,0ZM19.8,44.5c0,0-.3.4-.2.5h.2c0,0,0-.5,0-.5ZM28.4,41.7c0,0,.9.4,1,.4.2,0,.4,0,.5-.1,0,0-.5,0-.6,0,0,0-.8-.3-.9-.2h0ZM28.9,45c-.2,0-.5.8-.6.9-.7,1-1.6,1.4-2.7,1.3s-.9-.2-1.3,0c.2.2.5.1.8.2.3,0,.5.1.7.1,1.3,0,2.5-.9,3.1-2s.1-.3.1-.4h0ZM17.5,50.6c-.4.1-1,.1-1.4,0s-.9-.5-.9-.3c0,0,0,.1.1.2.2.2.8.4,1.1.4s.7,0,1.1-.1c.3-.2,0,0,0-.1h0ZM17.2,51.1c-.2-.1-.5,0-.8,0-.3,0-1.2-.2-1.5-.4-.1,0-.2-.2-.3-.2,0,0,0,.1.1.2.1.1.8.3,1.1.4.5.1.9.2,1.4,0h0ZM29.4,45.2c-.3.1-.4.5-.5.7-.1.2-.3.4-.4.6l-.6.6c.6-.3,1.1-1,1.4-1.6s0-.2,0-.2.2,0,.1-.2h0s0,0,0,0ZM26.4,47.9c-.2-.1-.5,0-.8,0-.3,0-.4,0-.6-.1-.3,0-.5-.2-.8-.3.5.6,1.4.6,2.1.6h0ZM24.9,48.2l-.5-.3h-.2s.5.3.6.3.1,0,.2,0h0ZM15.5,52.4c.2-.2.3-.4.3-.6,0,.1-.4.5-.3.6ZM20.7,52.5v-.4c0,.3,0,.6-.2,1,.2-.1.2-.4.4-.6h-.1s0,0,0,0ZM29.7,48.8h-.1c.2.2.2.3.3.5,0,.2,0,0,.1,0,.2.2.3.5.5.8,0-.4-.2-.8-.5-1-.2-.3-.3-.3-.3-.3ZM18.8,53.3c-.1,0-.2.7-.2.7.2-.2.2-.4.2-.7ZM30.5,52.5c0,0,.2-.3.2-.4,0-.5-.2-1.3-.5-1.8s-.7-.8-.8-.6c.2.2.3.3.5.5.5.6.7,1.5.6,2.3h0s0,0,0,0ZM26.9,51.7c-.2-.2-.4-.4-.7-.4,0,.2.1,0,.2.1,0,0,.4.4.5.2h0ZM29.4,50.5c0,0,.4.5.5.7,0,.1,0,.3.2.3.2,0-.1-.3-.1-.4-.1-.2-.2-.6-.5-.6h0ZM19,54.5c-.1,0,0,0,0,.1-.2.9.6,2.4,1.3,2.8.1,0,.9.4,1,.4.5.1,2,.3,2.5.2.5-.1,0,0,0-.1.2-.1.7,0,.7-.4-.5.2-.9.4-1.4.4-1.8,0-3.8-.8-4.1-2.8,0,0,0-.6,0-.6h0ZM23.1,53.7c0-.1,0,0-.2,0-.5,0-1,0-1.5,0,.5.2,1.1,0,1.7.1h0ZM29.8,51.7c0-.4-.3-.8-.7-.8,0,0,.4.4.5.5,0,.1,0,.3.2.3h0ZM30.7,50.3c-.2,0,0,.4,0,.5.1.5,0,1.2,0,1.7s0,0,0,.1c0,0,0-.1,0-.2,0-.4.2-1.1.1-1.5,0-.4-.2-.5-.2-.7h0ZM22.2,54c.1-.2-.7,0-.8,0,.2.2.5,0,.8,0ZM29.4,51.7c0-.1-.5-.4-.5-.3,0,.1.5.4.5.3ZM27.7,52.4c-.3.5-.7.8-1.3.8-.2,0-.5,0-.7,0s-.5,0-.7,0c-.3.1-.4.8-.7.7-.4,0-.3-.2-.5-.1,0,0-.3.2-.4.2-.5.3-1.1,1-1.6,1.1,0,0-.5-.1-.5,0v.2c.1,0,0,0,0,0v.3c.1,0,0,0,0,0,0,0,.2.2,0,.3l-.2-.2c0,.3.2.4.5.3v.6c.2,0,.2-.3.3-.5,0,0,.1.4.2.3s.1-.2.1-.2c0,0,0-.1,0-.1,0,0,.2,0,.3-.1.5-.3,1.1-.6,1.7-.8.6-.2.7-.1.9-.2.2,0,.4-.3.6-.4.5-.2,1.4-.5,2-.6.5-.1.3,0,.3.1v-.2s.2-.1.2-.1l.3.2c.1-.1,0-.2-.1-.3-.1-.2,0-.3,0-.4,0-.1-.1-.4-.1-.4-.1,0,0,.2,0,.2,0,0-.1.2-.1.1-.1-.2,0-.4,0-.6h0ZM19.6,55.3c0,.2,0,.4,0,.6,0,.2.3.7.4.8.2.3.7.7,1.1.7,0,0,0,0,0-.1-.3-.2-.5-.1-.8-.5-.3-.3-.4-.6-.5-.7,0-.2,0-.6-.2-.8s0-.1-.1-.1h0s0,0,0,0ZM30.1,51.8c-.1,0,0,.2,0,.3,0,.2,0,.5,0,.7,0,.2-.2.3-.1.5.2-.1.3-.4.3-.6,0-.2,0-.2,0-.2s0,0,0,0c0-.2-.1-.4-.1-.6h0ZM27.2,54c-.2,0-.9.8-1.1.9-.6.4-1.6.8-2.3.8-.7,0-1-.2-1.4.1.1.1.3,0,.4,0s.1,0,.2,0c.1,0,.3,0,.5,0,0,0,0,0,0,.1-.2.2-.5.2-.8.3,0,0-.1,0,0,.1.5,0,.9-.1,1.4-.2,0,0,.1,0,.2,0-.5.2-1,.4-1.6.5,0,.1.3,0,.4,0,.4,0,.8-.2,1.2-.3-.4.4-1.1.5-1.6.6,0,.1,0,.2.1.2.4,0,.8-.1,1.2-.3h0c.6-.3,1-.8,1.7-.9.2,0,.5,0,.8,0,.5,0,1.2-.5,1.6-.7,0,0,.2-.2.2-.3-.6.2-1.1.6-1.7.8l.4-.3c.2-.1.4-.3.6-.4.2-.2.1,0,0-.1-.3.1-.6.4-.9.5-.3.1-.5.2-.8.3l1.2-.7.5-.4c-.1,0-.3.1-.4.2-.1,0-.8.5-.9.3,0,0,0-.2.1-.2.2-.2.6-.4.8-.6.2-.2,0-.1,0-.2h0s0,0,0,0ZM29.5,54.3c-.3,0-.2.2-.2.5l.2-.5ZM24.5,56.9c-.2,0-.3,0-.5.2-.2.1-.2.3-.3.4-.4.2-1.1.1-1.6,0-.5,0-.4-.1-.6,0,0,0,.1,0,.2,0,.2,0,1.6.2,1.8.1.2,0,.6-.3.7-.4l.4-.4h0s0,0,0,0Z"/>
      <path class="st0" d="M19.4,47.5s.1,0,.2,0c0,0,.4.3.2.3-.4-.1-1-.4-1.4-.4-.8,0-1.7.3-2.3.8s-.6,1-1,1.4c0,0,0-.1,0-.2.2-.4.6-.7.8-1.1,0,0,0,0,0-.1,0,0,.3-.5.4-.6.9-.9,2.3-.9,3.3-.2h0s0,0,0,0Z"/>
      <path class="st0" d="M16.1,56.9c-.9-.5-1.6-1.1-2.2-2-.6-1-1.5-3.6-1.3-4.8,0-.2.1-.4.2-.6v.7c0,2.1.8,4.6,2.4,6,.3.2.6.4.9.7h0Z"/>
      <path class="st0" d="M16.4,49.2c.1,0,.3.3.6.4.8.3,1.5-.3,1.5-1.1h.2c0,0,0-.2,0-.2h0s0,.2,0,.2c0,0,.2-.2.2-.2.2.2,0,.3,0,.5h.1c-.4.2-.6.6-1,.8-.7.4-1.6.4-2-.3h0c0,0,.2-.1.3-.1h0s0,0,0,0Z"/>
      <path class="st0" d="M17.7,46.3c0,0,0,0-.1,0-.7.2-1.4.4-2,.8-.7.5-1.1,1.2-1.8,1.7,0-.2.1-.2.2-.4.2-.3.4-.7.7-1,.4-.5,1.6-1,2.3-1.1s.5,0,.8,0h0Z"/>
      <path class="st0" d="M16.4,47.2l-1.5,1c-.3.2-.5.6-.9.8,0,0,0-.1,0-.1.6-.6,1.1-1.2,1.8-1.6.7-.5,1.2-.5,2-.6h.6c-.9.4-2,.2-2.8.9,0,.1.1,0,.2,0l.6-.2h0Z"/>
      <path class="st0" d="M21.8,50.9s0,0,0,0c.1.2,0,.5,0,.6,0,.1.1.1.1.2,0,.2-.2.3-.2.4l.4-.2h.1c-.3.1-.5.5-.7.4h0c-.1,0-.3,0-.3-.2s0-.2,0-.2,0-.3,0-.3c0,0,0,0,0,0,0,0,0,.4-.1.4,0-.3,0-.7.3-.9,0,.1,0,.3-.1.4,0,0,.2-.4.3-.4,0,0,.1,0,.2,0,0,0,0-.1,0-.2-.3,0-.3,0-.5.3,0-.3.3-.4.5-.5,0,0,0,.2,0,.2h0Z"/>
      <path class="st0" d="M12.5,49.1l-.2,1.7c0,1.3.3,2,.8,3.2,0,0,0,.2,0,.2-.5-.8-.8-1.6-.9-2.4-.1-.9-.2-1.6,0-2.3,0,0,.1-.3.2-.3h0Z"/>
      <path class="st0" d="M11.9,51.4c0,0-.1-.2-.1-.2-.3-1.1,0-2.4.3-3.5,0,.6-.2,1.2-.3,1.8,0,.7,0,1.3,0,1.9h0Z"/>
      <path class="st0" d="M33.1,46.6c0,0-.1-.1-.2-.2-.1-.3-.2-.6-.4-.9-.4-.8-1-1.4-1.4-2.1-.1-.1-.2-.3-.3-.4.5.3.9.9,1.2,1.4.5.7.8,1.4,1.1,2.2h0s0,0,0,0Z"/>
      <path class="st0" d="M11.4,49.3c0,0,0,0,0-.1,0-.7,0-1.3,0-2l.2-1c0,.5-.1,1.1-.1,1.6,0,.5,0,1,0,1.5Z"/>
      <path class="st0" d="M15,46.8l-.5.5-.9,1.3c0,0,0-.1,0-.2.3-.6.7-1.3,1.3-1.6h0s0,0,0,0Z"/>
      <path class="st0" d="M32.3,44l-.7-.9-.8-.7c.7.2,1.1.9,1.4,1.6Z"/>
      <path class="st0" d="M31.2,42c-.1,0-.2-.1-.2-.2-.3-.3-.5-.8-.8-1.1,0,0,.2.1.2.2.3.4.5.8.8,1.1h0Z"/>
      <path class="st0" d="M31.4,44.3l-.7-.4c0,0-.2-.3,0-.4.2.3.5.4.7.7h0Z"/>
      <path class="st0" d="M20.4,47.8l-.8-.5c0-.1.8.2.8.5Z"/>
      <path class="st0" d="M14.2,50h0c-.1,0-.4.4-.4.4v-.4c0,0,.2.1.4,0h0Z"/>
      <path class="st0" d="M16.1,46.3c0,0,0,0,0,.1-.2,0-.4.2-.6.3,0,0,.2-.2.2-.2.1,0,.3-.1.4-.2h0Z"/>
      <path class="st0" d="M29.2,43c-.3.1-.7.4-1,.4-.2,0-.4,0-.6,0-1.1,0-2.1.2-3.1.8,0,0,0,0,0-.1.7-.6,1.7-.9,2.7-1,.4,0,.8,0,1.2,0h0c-1-.3-2-.3-3,0-.4.2-.8.4-1.2.6-.4.2-.1.1-.2,0,.6-.5,1.1-.9,1.9-1.1.7-.2,2-.2,2.6,0,.2,0,.4.2.6.3h0Z"/>
      <path class="st0" d="M27.3,45h0s0,.2,0,.2v-.2c.2.1.1.2.1.4l.3-.3c.3.1,0,.6-.1.7-.3.4-.6.6-1.1.8-.5.2-1.9.3-1.6-.6h.1s0-.2,0-.2c.6.5,1.3.8,1.9,0,.2-.2.4-.6.3-.9h0Z"/>
    </g>
  </g>
  <g>
    <path class="st1" d="M95.7,31.1c0,0-.4-.3-.5-.4.2,0,.5,0,.7,0,0,0,.6-.2.5-.3-.4.2-.7.3-1.2.2s-.3,0-.3-.1c.4,0,.8-.1,1.2-.3.4-.2.2,0,.1-.1,0,0-.8.2-1,.2-.3,0-.4,0-.5-.1.5,0,1.2-.2,1.6-.6-.6.2-1.1.5-1.8.5-.7,0-.2,0-.2,0,.6,0,1-.3,1.5-.5.1,0,.3,0,.4-.1.1,0,.1,0,.1-.1-1.1,0-2.1.9-3.3.3-.4-.2-.7-.5-.4-.9.2-.4.4-.2.7-.2.3,0,.6-.1.9,0,.4,0,1.2.3,1.6.5.4.1.2,0,.3,0,0,.2,0,0-.1,0-.2,0-.5,0-.7.2-.2,0-.2,0-.1.1,0,0,.5-.1.6-.1.5,0,.9,0,1.3,0h0c0,0,0,.2,0,.2h.1c.4-.2.3-.6.2-1,0-.4,0-.4-.2-.4.2.3.2.6.1,1,0,.3,0,.1-.1.1,0-.4-.2-1.3-.6-1.5-.3-.1.2.4,0,.5l-.5-.4c0,.3.1.2.2.3,0,.1,0,.2.1.3-.2,0-.5-.2-.7-.3-.6-.4-1.2-1.1-2-1-.4,0-.8.4-1.2.3-.7-.3.1-.9.3-1.3.1-.4,0-.7,0-1,.2,0,.2.2.3.3v.7c.3-.3.3-.6.1-1.1.6.5,0,1.4-.5,1.7.1.1.3,0,.4-.1.4-.3.5-.6.6-1.1.7-.1,1.4,0,2.1.3-.1-.3-.4-.4-.6-.7.6.1.8.6,1.2,1,.4.4,0,.1.2.1l-.8-1.2c.4.2.6.7.8,1,.3.3.7.7,1,1l.3.4c0-.5-.5-.7-.8-1.1-.5-.6-1-1.3-1-2.2.2.2.3.5.5.8.5.7,1.2,1.1,1.5,1.9l.2.2c-.2-.2-.2-.5-.4-.8-.3-.5-.8-.9-1.1-1.4-.5-.9-1-2.7-2.2-2.8-.4,0-1.1.3-1.4.5.2,0,.4,0,.5-.1.2,0,.6,0,.8,0,1.2.1,1.4,2.1.4,2.4-.2,0-1,.1-.9-.2.1-.3.5,0,.1-.3-.4-.3-.9-.1-1.3-.2,0,0,.3-.1.5-.2.3,0,.7,0,1,.2,0-.2-.2-.2-.3-.3-.8-.2-1.7.2-2.5.1l1.3-.3h.1c-.5-.2-1,0-1.5,0-.5,0-.4,0-.6,0,.2.3.4.5.6.7l1.5.6c-1,0-2.8-.5-2.8-1.7s.9-1.4,1.4-2c.4-.5.7-1.1,1-1.6.4-.5,1.4-1.6,1.6-2.2.3-1.4-1.1-1.7-.4-3.6.7-1.8,1.4-2,1.2-3.9-.5-4.9-6.8-8.9-11.4-8.8-.7,0-1.5.2-2.3.2.8-.5,1.9-.8,2.9-1,5-.9,11.1.4,15.4,3,10.9,6.5,13.6,21,5.1,30.7-6.3,7.3-16.5,9.5-25.2,4.8-1.4-.9-1.9-1.1-2.8-1.8-.5-.4-1-.8-1.3-1.3,0,0,.1,0,.2,0,1.3.7,2.2,1.3,3.7,1.7,3.7.8,8.9-.6,11.2-3.6.5-.6,1.4-2.3,2-2.6.5-.3,1-.2,1.4-.1.3,0,.6.3.8.4.1,0,0-.1,0-.2-.5-.5-1.2-.6-1.9-.4v-.3c.7,0,1.3,0,1.9.4.6.4.4.5.9.6.4,0,.6,0,.8,0,.2,0,.2,0,.1-.1,0,0-.4,0-.5,0-.4,0-.8,0-1-.5.3.1.6.1.9.1h.4c-.3-.2-.6-.1-.9-.2h0ZM104.8,8.2c-2.9-3.4-6.9-5.7-11.2-6.9-1-.3-2.3-.6-3.4-.6-1,0-.5,0-.6,0,.3,0,.7,0,1,0,2.9.5,6.3,2.2,8.7,3.9,4.7,3.5,8.3,10.9,6.9,16.8,0,.2-.3,1.1-.4,1.2-.1.1,0,0,0,0h-.3c.7-1.4.7-3,.6-4.4-.1-2.8-.8-5.2-2.1-7.5-1.3-2.4-1.7-2.8-2.7-3.9-3-2.9-6.7-4.9-10.8-5.8,0,0,.2.1.2.1,2,.7,3.7,1.4,5.6,2.4.6.3,1.5.8,1.9,1.2.5.4.1.2.1.2s0,0,.1,0,.6.4.7.5c.5.4,1,.8,1.4,1.4,0,.1,0,0,0,0-.5-.1-.9-.6-1.3-.9-.4-.3-.3-.2-.5-.3l1.2,1c0,.2-.3.1-.4.3.3,0,.6-.1.9,0,1.1.1,2,1.5,1.5,2.5,0,.2-.2.3-.4.5-.8.5-1.5.2-2.1-.4s-.6-1-.5-1.5c-.4-.1-.1.9,0,1.1.3.7,1.1,1.2,1.8,1.3.8,0,.3,0,.5,0,.4.3.3.9.8,1.1l-.5-1.2.3-.2.9,1.5h.2c-.1-.5-.8-1.2-.8-1.6,0-.4,0-.3,0-.4,0,0,0-.1.1,0,0,.3.3.5.5.7.3.5.7,1.2,1,1.7.5,1.1.9,2.1,1.2,3.2,0,.1,0,0,0,0-.3-.7-.7-1.4-1.1-2.1-.1-.2-.6-.8-.7-.9-.1,0,0,0,0,0,.5.8,1.1,1.7,1.5,2.6,0,.1.2.3.2.5-.5-.5-.8-1.1-1.3-1.7-.2-.2-.8-1.1-1-1.2-.2,0-.1,0-.1,0l2.5,3.5c.2.4.5.8.6,1.2,0,0,.1,0,.1,0,0-.3,0-.6-.1-.9-.3-2.1-1.3-4.1-2.3-5.8-.4-.7-.7-.9-.8-1.8,0,0,0-.2,0-.1,1.1,1.8,2.4,3.6,3,5.7.6,2.1,1.1,5.4.5,7.5-.1.4-.3,1.1-.8,1.1.2-.3.3-.5.4-.8.3-.9.5-3.3.3-4.3,0,0,0-.1,0-.1-.2,1.7.1,3.6-.9,5.1l-.6.4c.5-.6.8-1.3.9-2,0,0,0,0,0,0-.3.4-.4,1.1-.7,1.5-.7.9-1.9,1.5-1.9,2.9,0,.3.1.6.1.9-.4-.4-.5-1-.4-1.5.3-1.2,1.6-1.7,1.9-2.9-.2.1-.3.3-.4.5-.8,1-2,1.9-1.7,3.4.3,1.5.4.7.5,1,.5,1.2.2,2.6-.4,3.7h0c.4-.6.8-1.2,1.1-1.8,0-.1.4-.8.4-.9.1,0,.1.2.1.3-.3,1.4-2,3.5-3.2,4.4-1.1.9-.8.6-.9.6,0,0-.2,0-.3,0v-.2c.4-.4.9-.7,1.3-1.1.4-.4.8-.9.9-1,0-.1,0,0,0,0-.6.5-1,1-1.6,1.5-.6.5-.6.4-.6.5-.3.1-.8-.3-1.2-.1-.1.1.3.1.4.2.7.2,1.1.9.7,1.6-.5.8-2.6,1.4-2.8.1,0-.4,0-.7.3-.9-.1-.1-.4.3-.5.4-.1.2,0,.5,0,.6,0,0-.7.6-.8.7-.4.3-1,.5-1.5.7s-1.2.5-1.8.7c0,.1,0,0,.2,0,1.4-.2,2.7-1,3.9-1.6.4,0-.2.5-.3.6-1.3.9-4,1.8-5.6,2.2-.5.1-1.1.2-1.6.3,0,.1,0,0,.1,0,.7,0,1.7-.3,2.4-.5.6-.2,1.1-.4,1.6-.5,1.4-.4,2.6-1.1,3.9-1.7.1,0,0,0,0,.1-.1.2-.7.6-1,.7-2,1.1-4.7,1.9-6.9,2.3-1.7.3-3.5.4-5.3.1,0,0,0,0,0,.1,4.6,1,9.4-.8,13.4-2.9.1,0,.6-.4.7-.3-.5.4-1.1.8-1.7,1.1-3.4,1.8-8.4,3.3-12.2,2.4-.4,0-.8-.3-1.2-.4,0,0-.1,0-.2,0,.6.2,1.2.4,1.7.6,2.7.6,5,.4,7.6-.4,1.8-.6,3.5-1.4,5.2-2.2,1.8-.9,3.5-2.2,5.1-3.5,0,0,0,.1,0,.1-1.3,1.3-2.9,2.3-4.5,3.2-2.7,1.5-6.3,3.1-9.3,3.2-1.9,0-3.3,0-5.1-.5-.4-.1-.9-.4-1.3-.4-.1,0,0,0,0,0,.3.2,1.7.8,2.2.9,5,1.5,9.9,1.2,14.5-1.1,11.6-5.8,15.2-20.4,6.7-30.6h0ZM94.6,3.1c-.7-.3-1.3-.8-2-.9l1.9.9h.2c0,0,0,0,0,0ZM98.2,5.5c-.8-.8-1.9-1.5-2.9-2,0,0-.3-.2-.3,0l3.2,2.1h0ZM97.5,5.9c.1,0-.5-.5-.6-.5v.2c.1,0,.6.4.6.4ZM100.8,7.6c-.8-.4-1.6.1-1.3,1.1,0,.1.4.7.5.7.1,0,0,0,0-.1,0-.1-.2-.2-.3-.3-.1-.2-.2-.6,0-.8l.2.6c.2.2.5.4.6.7.3,0,0-.4-.1-.5-.2-.2-.5-.4-.5-.8.5.3,1,.7,1.2,1.2.1,0,0,0,0-.2,0-.6-.8-1.2-1.4-1.2.1-.2.7,0,.8,0,.5.2.9.7.8,1.2h.1c0-.4.1-.6-.2-1-.3-.3-.5-.4-.9-.5h.3s0,0,0,0h0ZM97.2,8c0,0-.1,0-.1,0,0,0,.4.9.5.8l-.4-.9h0ZM98.9,10.7c-1-.3-2.3.2-3.1.8,0,0,.1,0,.2,0,1.1-.5,1.5-.6,2.8-.7,1.3-.1.2,0,.2,0h0ZM100,10.9c-.3,0-.8-.3-1,0,.2,0,.5.1.7.1.2,0,.3,0,.3,0h0ZM99.4,11.5c-1.2-.4-2.6,0-3.6.6.2,0,.4-.1.6-.2.8-.3,1.7-.5,2.6-.4h.4c0,0,0,0,0,0ZM99.1,12c-.5-.2-1.1,0-1.7,0-.4,0-.9.2-1.2.4-.4.2-.1.1,0,.2,0,0,.8-.3.9-.3.7-.2,1.3-.3,2.1-.1.7.2,0,0,0,0h0ZM105.1,17.8c0-.6-.2-1.1-.5-1.6-.4-.7-1.8-2.5-2.5-3,0,0,0-.1-.2,0,.8,1,1.6,1.9,2.3,3,.2.3.4.6.5.9.2.3.2.6.4.8h0ZM94.7,13.9v.8c0,0,.1.6.2.8.1.3.3.5.6.7h-.6c.5.2,1,.4,1.3.8l-.8-.3h-.3s1,.5,1,.5l-.9-.2c0,.1,0,0,.1.1.2,0,.4.1.6.3,0,.1,0,0,0,0,0,0-.2,0-.3-.1-.1,0-.2,0-.2,0l.7.4h-.6c0,.1.3.1.4.2,0,.2-.2.5-.5.4-.3,0-.1-.1-.2-.1,0,.2.3.2.3.4s-.4,0-.5,0c.3.2.4.6-.1.5,0,.2-.2.4-.4.6-.4.5-.7,1.1-1.2,1.5,0,0,.2,0,.3-.1.7-.5,1-1.2,1.5-1.7s.2,0,.1.1l-1.5,1.9c0,0,.3-.2.3-.2,1-.9,1.8-2.3,2.6-3.4.1,0,0,.2,0,.2-.3.6-.8,1.3-1,1.8-.2.6-.2.6,0,.6.2-.8.7-1.5,1.3-2-.2.3-.4.6-.5,1-.2.3-.3.8-.3,1.1l.6-1.3c0,0,.3-.4.4-.3-.3.4-.5.8-.5,1.2,0,.5-.1,1,.1.8-.2-.7.2-1.6.8-2.1-.4.6-.7,1.4-.4,2.1,0,.1.3.5.4.5.2,0-.2-.4-.2-.4-.3-.4-.2-1,0-1.4,0,0,0,.1,0,.2,0,.8.2,1.4,1,1.7,0,0,.2.1.2,0-.5-.3-1-.8-1-1.5.2.4.7.4,1.1.4.2,0,.5,0,.1-.1-.5,0-1.5-.2-1.1-.9.3.6,1.4.5,2,.4s.8-.4,1.2-.5c0,0-.6.5-.7.6-.1,0-.9.3-.9.3,0,.2.6,0,.7,0,.4-.1.8-.3,1.1-.5v.2c-.1,0-1.4.8-1.4.8.2,0,.5-.1.8-.2.2-.1.7-.4.9-.5.1,0,.3,0,.3.1-.5.5-1.1.7-1.8.8,0,0,0,.1,0,.1.3,0,1.3-.5,1.6-.6.1,0,.2-.2.3-.3h.6c0,0,0,0-.1,0-.2,0-.4-.1-.6-.2-.2-.1-.2-.2,0-.3.6.5,1.7.4,2.4-.2.6-.5.1,0,0-.1-.7.4-1.5.5-2.2.2,0,0,.1,0,.2,0,.4,0,.6,0,1,0,.4,0,.9-.2,1.2-.5h.2c0,.1,0,0,0,0-.3-.2-.6-.3-.9-.5-.4-.2-.7-.5-1-.9-.3-.3-.6-1-1-1.5,0,0,.4.3.5.4.8.8,1.1,1.4,2.1,2,.2,0,.4.3.6.2,0-.2-.1-.2-.2-.3-.3-.3-.7-.7-1-1-.9-1-1.3-2.3-2.7-2.8-.9-.3-2.8-.3-3.8,0-.3,0-.3.3-.6.2-.4,0-.2-.1-.4-.1l.2.4c-.4,0-.6,0-.7-.4-.2,0,.2.6.2.7,0,.2-.2-.1-.3-.2-.3-.5-.2-.9,0-1.4,0-.5,0-.2,0-.2-.1.3-.2.7-.2,1,0,.3.1.5.2.8-.1-.1-.4-.6-.4-.7,0-.2.1-.5,0-.7h0ZM102.4,14.3h-.1c.3.6.8,1.1,1.1,1.7.3.5.6,1.1.9,1.7-.1,0,0,0-.1-.1,0,0-.1,0-.2,0,0,0,0-.2,0-.2-.4-.6-1-1.5-1.6-2-.6-.4-.2-.2-.3-.1.2.3.5.5.7.8s.4.8.7,1.1c.2.3.6.5.8.8h.2c0-.1.3.3.3.3.1,0,0-.4,0-.5-.5-1.4-1.3-2.3-2.3-3.3-1-1,0-.1,0-.1h0ZM104.3,19.4l-.8.5c-.1.1-1,.2-1,.3,0,.1.1,0,.2,0,.3,0,.7,0,1-.3.1,0,.7-.5.6-.6h0ZM104.8,19.7c0,0-.2.1-.2.1-.1.1-.3.3-.4.4h0c.3,0,.5-.2.6-.5ZM103,20.4c0,0-.8,0-.6.2.2,0,.6,0,.6-.2ZM102.4,22.7c-.1,0-.1,0-.2.1-.2.1-.3.3-.4.5-.1.2-.7,1-.7,1h.2c0,0,1.1-1.6,1.1-1.6h0ZM97,23.7c-.3-.3-.3-.9-.7-1.1.2.4.3.9.7,1.1ZM94.6,24.8c.7.2,1.1-.5,1.1-1.2,0-.1-.1-.4-.3-.3,0,.4.1.8-.2,1.2-.2-.2-.3-.3-.6-.3,0,.2.3.2.3.4s0,.2-.1.2c0,0-.2,0-.2.1h0ZM101.2,24.6c-.2,0-.2.5-.2.6,0,1,.9,1.7.9,2.8,0,.6-.2,1.5-.5,2,0,.2-.3.3-.3.5,0,.1,0,.2,0,.2.7-.8,1.2-2.3,1-3.4-.1-.5-.6-1.1-.8-1.6-.1-.3-.2-.7-.1-1.1h0ZM100.6,30.6c.1,0,.1,0,.2-.1.7-.8,1-2.2.7-3.2s-.5-1-.6-1.4c-.1-.3-.2-.6-.3-.9,0-.3,0-.2,0-.2,0,1,.6,1.9.8,2.9.2,1.1-.2,1.9-.6,2.9h0ZM100.1,30.7c0,0,.2-.1.2-.2.9-1.5.6-2.9-.1-4.4,0,0,0-.2-.1-.1,0,.6.4,1.1.5,1.6.2,1.1,0,2.1-.4,3.1h0ZM94.4,25.8c.2,0,.5,0,.7,0,.2,0,.4.3.6.2-.4-.3-1-.5-1.5-.3,0,.2.1,0,.2,0ZM95.4,26.2s-.5-.2-.6-.2c0,0-.6,0-.5.2.2-.1.6,0,.8,0,.3,0,.5.2.3,0h0ZM99.5,30.8c.5-.8.9-2,.5-3-.1,0,0,0,0,.1.1,1,0,1.5-.3,2.5-.4,1-.3.4,0,.4h0ZM99.5,28.7c0,.2,0,.6,0,.8,0,.2-.3.8-.3.9,0,0-.1,0-.1,0h0c.3-.3.6-.8.6-1.4,0,0,0-.8-.2-.7,0,.1,0,.2,0,.3h0ZM97.9,28.5h-.1c.1.3,0,.6-.1.8l-.4.4c.6,0,.7-.7.6-1.1h0ZM94.4,29.4c0-.1,0,0-.1,0-.3,0-.7,0-1-.2,0,.1,0,.1,0,.2.4.2.7.2,1.1.1h0ZM98.1,29.7l-.8.5c.2,0,.9-.3.8-.5ZM96.7,33.2l1.2-.6c0-.1,0,0-.2,0-.1,0-1.1.5-1,.6h0ZM98.4,33.1c-.1,0-.7,0-.8,0-.9.2-1.6,1.9-.1,1.6.5,0,1.3-.7,1.4-1.2,0-.5-.3-.5-.5-.5h0ZM90.9,34.7c.4,0,.7-.4.9-.7.3-.4.6-.9.8-1.4l-.8,1.1-.9.9h0ZM91,35.1c.9-.4,1.7-1,2-2-.2,0-.2.3-.3.5-.2.3-.6.7-.9.9-.3.3-.8.5-.8.6h0ZM93.5,33.8c0,0-.4.3-.4.4-.2.2-.7.4-.9.6-.2.2-.1,0-.1.2.6-.3,1.2-.6,1.4-1.2h0ZM94,34.4l-.9.6-.2.2c.1,0,.1,0,.2,0,0,0,.9-.6.9-.7h0ZM88.2,38.1c-.3,0-.6,0-1,0-.3,0-.1,0-.1,0,.3,0,.8,0,1.1-.2h0ZM86.8,38.3c-.4,0-.8,0-1.2,0,0,0-.2,0-.2.1.4,0,.9,0,1.3,0,.4,0,.1,0,.1,0h0Z"/>
    <path class="st1" d="M94,27.5c-.3.3-.7.4-1.1.3,0-.2,0,0,.2,0,.1,0,.3,0,.5,0,.2,0,.3-.2.5-.2h0Z"/>
    <path class="st1" d="M94.4,30.5c0,0-.1,0-.2,0-.2,0-.3,0-.5,0s-.3.1-.5,0c0,0,0,0,0,0h1c0,.1,0,.1,0,.1h0Z"/>
    <path class="st1" d="M105.9,26.5c-1,.9-2.8.9-3.3-.5-.8-1.9,2.2-4,3.8-2.4.7.7.2,2.4-.5,2.9h0ZM105.8,25.8c.1.2.4-.4.4-.5.1-.3.2-1,0-1.3-.3-.4-.4-.3-.8-.3-.1,0-.2,0-.3-.1-1.2-.2-2.6,1.6-1.9,2.7.5.8,1.9.7,2.5,0,0-.1.3-.2.1-.4l-.5.5c-.2.1-.5.3-.8.3s-.1,0-.1-.1c.6,0,1.1-.8,1.4-1.3l.3-.9c.1.5,0,1-.3,1.4h0Z"/>
    <path class="st1" d="M103,7.5c1.6,1.9,3.1,4.8,3.7,7.2.6,2.7.6,5.7-.2,8.3h-.2c.8-2.3.7-4.8.4-7.1-.4-2.7-1.7-5.5-3.3-7.7-1.6-2.2-2.3-2.5-3.6-3.7.1,0,.3.1.5.2.9.6,2.1,1.9,2.8,2.8h0s0,0,0,0Z"/>
    <path class="st1" d="M107.2,14.7s0,0,.1.1c.1.3.2,1.2.2,1.6.2,2.1.1,4.8-.5,6.8,0,0-.1.3-.1.3,0,0-.1-.1-.1-.2,0-.4.3-1.1.4-1.5.3-1.4.3-2.7.3-4.2-.1-3.2-1.3-6.3-3.2-8.9h0c1.2,1.3,2.1,3.1,2.6,4.9,0,.3.2,1.2.2,1.2h0Z"/>
    <path class="st1" d="M104.5,27.6c-.8,1.6-1.6,3.3-2.9,4.6-.4.4-1.1,1-1.6,1.3,0,0-.4.2-.4.2v-.3c1.7-1,2.8-2.5,3.9-4.2.3-.4.4-.9.7-1.3.3-.4.2-.4.3-.3h0Z"/>
    <path class="st1" d="M99.9,35.3c-.8.8-1.9,1.4-2.9,2-2,1.2-4.5,2.2-6.8,2.8-.5.1-1,0-1.5.2,0-.2,0,0,.1,0,3-.3,7.5-2.4,9.9-4.1s1.1-.9,1.1-.8h0Z"/>
    <path class="st1" d="M99.4,34.5c.5-.7,1.2-1.1,1.9-1.6.9-.8,1.5-1.7,2.2-2.6l1.6-2.5c-.3.8-.8,1.7-1.2,2.4-.9,1.5-2.3,3-3.8,4,0,0-.6.4-.7.4h0Z"/>
    <path class="st1" d="M108.8,22.7c-.1.5-.2.9-.3,1.4-.8,3-2.5,6.4-4.7,8.7,0,0-.5.5-.6.4.1-.1.3-.3.4-.4,1.7-2.1,3.3-4.4,4.2-7,.3-1,.5-2,.8-3,0,0,0-.2.1-.1h0Z"/>
    <path class="st1" d="M105.9,27.5c-.5,1.3-1.2,2.5-2,3.6-.5.7-1.1,1.3-1.7,1.8l1.9-2.4c.6-.9,1.1-1.9,1.7-2.8,0,0,.1-.3.2-.2h0Z"/>
    <path class="st1" d="M101.2,35.9c-.4.3-.8.6-1.2.9,0,0-.1.1-.2,0,.6-.3,1-.8,1.5-1.2,1-.8,1.9-1.7,2.8-2.6.4-.4.6-.9,1.1-1.3-.4.6-.8,1.2-1.3,1.7-.8.9-1.7,1.7-2.7,2.5h0Z"/>
    <path class="st1" d="M101.6,34.7s-.6.6-.7.7c-1,.8-2.2,1.7-3.3,2.3-.3.1-.7.3-1,.5-.3.1-.1,0-.2,0l2.2-1.2c.9-.6,1.8-1.6,2.7-2.1,0,0,.2-.1.3,0h0Z"/>
    <path class="st1" d="M107.3,24.5c0,0,0-.1,0-.2,0-.7.4-1.6.5-2.3,0-.4,0-.9,0-1.3,0-.4,0-.8.1-1.3s0-.2,0-.2c.2,1.8-.4,3.5-.8,5.2h0Z"/>
    <path class="st1" d="M104.3,31c.4-.8,1-1.5,1.5-2.3.3-.5.6-1.1.9-1.6l.4-.6c0,.2-.1.5-.2.7-.5,1.1-1.3,2.3-2,3.3-.1.2-.3.4-.5.5h0Z"/>
    <path class="st1" d="M108.3,22.9l.5-4.6c0,1.5,0,3.2-.5,4.6Z"/>
    <path class="st1" d="M97.6,38.1c-.5.3-1.2.6-1.7.9-1.1.5-2.5.8-3.7,1,0,0,.2,0,.2-.1,1.5-.5,2.9-.8,4.4-1.4s.5-.3.8-.4h0Z"/>
    <path class="st1" d="M100.7,34.7c.5-.5,1-.9,1.5-1.4.5-.5.7-.5,1-.8.2-.2.4-.5.6-.7-.6,1-1.6,1.7-2.5,2.5l-.7.4h0Z"/>
    <path class="st1" d="M108.1,18.7c0,0,0,0,0-.2,0-.5,0-.7,0-1.1,0-.8-.1-1.6-.2-2.4l.2.8c.2,1,.2,1.9,0,2.9Z"/>
    <path class="st1" d="M108.2,23.1c-.2,1-.5,2-.9,3-.5,1,0,.2-.1.2.3-1,.7-2,.9-3,0,0,0-.2.1-.1h0Z"/>
    <polygon class="st1" points="103 27.2 102.9 28 102.5 29.3 102.8 27.2 103 27.2"/>
    <path class="st1" d="M99.3,4.2h-.2c0,0-1.6-1.2-1.6-1.2.7.3,1.3.7,1.9,1.2h0Z"/>
    <path class="st1" d="M99.4,16.7c0,0,0-.1-.1-.2l-1.3-.7c1,0,1.7.6,2.4,1.3,0,0-.1-.3-.2-.3-.3-.5-.8-.8-1.3-1,0,0,.1,0,.2,0,.1,0,.2,0,.3.1l1.1.7-.9-1c.3,0,.6.3.8.5,1.1,1,1.2,2.3,2.7,2.9,0,0,.2,0,.1.1-.8-.1-1.4-.6-1.8-1.2-.2-.2-.3-.5-.5-.7-.2-.2-.5-.5-.4-.3.4.8.8,1.6,1.6,2.1l.5.2c-1.1,0-1.6-1-2.2-1.7v.2c-.4-.3-.7-.7-1.1-.9,0,0,0,.1,0,.1-.4-.1-.7-.4-1.2-.4-.2,0-.9,0-.9-.2,0,0,0,0,.2,0,.5,0,1.5.4,2,.6h0Z"/>
    <path class="st1" d="M98.5,16.8c1,.2,1.5,1,2.1,1.6.2.2.5.4.8.6s.2,0,0,.1c-.9-.2-1.6-1.1-2.5-1.4-.6-.2-1.2-.1-1.9,0,0-.1.6-.7.8-.6,0-.1-.3-.1-.3-.3.3,0,.6,0,.8,0h0Z"/>
    <path class="st1" d="M101.3,16.3c.6.7,1,1.6,1.7,2.1l.8.4c-1.8-.2-2.1-2.1-3.3-3.2l.4.2c.1.1.3.3.4.4Z"/>
    <path class="st1" d="M100.1,19c-.3.3-.5.5-1,.5,0,0,0,0,.1,0,.1-.2,0-.3.3-.5.2-.1.3,0,.6.1h0Z"/>
    <path class="st1" d="M97.8,18.3h.3c.1,0,.2.9,0,1-.3-.3-.3-.7-.3-1h0Z"/>
    <path class="st1" d="M98.9,18.5c.4,0,.4.4,0,.4-.2,0-.3-.3,0-.4Z"/>
    <path class="st1" d="M97.2,34.6l.6-.3.6-.6c0,.6-.7,1-1.2.9h0Z"/>
    <path class="st1" d="M97,34.4l.4-.2.3-.4c0,.4-.4.6-.8.5h0Z"/>
    <path class="st1" d="M103.6,26.4c0,0,.5-.2.5-.2.7-.3,1-.8,1.3-1.5l.2-.6c.1.8-.3,1.5-.8,2-.3.3-.7.6-1.2.4Z"/>
    <path class="st1" d="M105,24c0,.7-.3,1.5-1,1.9-.2.1-.3.2-.6.1,0,0,.2,0,.3-.1.7-.4.8-1.2,1.1-1.8.3-.6,0-.1.1,0h0Z"/>
    <path class="st1" d="M103.4,25.6l.4-.3c.1-.2.2-.5.4-.6,0,.4-.3,1-.8,1h0Z"/>
  </g>
</svg>