<?xml version="1.0" encoding="UTF-8"?>
<svg id="Layer_1" xmlns="http://www.w3.org/2000/svg" version="1.1" viewBox="0 0 157.5 93.2">
  <!-- Generator: Adobe Illustrator 30.5.1, SVG Export Plug-In . SVG Version: 2.1.4 Build 3)  -->
  <defs>
    <style>
      .st0 {
        fill: #231f20;
      }

      .st1 {
        fill: #faeec5;
      }
    </style>
  </defs>
  <path class="st0" d="M1.2,71.7c-3.5-2.8,2-8.9,3.7-11.8.2,3.6-5.7,7.8-2.6,11.2.3.9,2.4,2.3,1.1,2.9-1,.9-1.5-1.8-2.2-2.4Z"/>
  <path class="st0" d="M6.5,71c-2.4-5,5.1-15.4,8.4-19.3-7.9,16.2-11.6,14.4.2,28.5-2.5.8-5.9-7.7-8.6-9.3Z"/>
  <path class="st0" d="M72.2,24.3c-3.3-4.4,3.9-6.8,6.3-9.9.3-.4.5-1.1,1.1-.7.1,2.1-4,4.1-5.4,5.9-3.6,3.6,2,8.9,2.3,12.9-2.7-.4-2.9-6.1-4.3-8.3Z"/>
  <path class="st0" d="M77.7,65.6c-.6,0-.4-.5-.3-.7,3.6-10.1,9.5-14.8-3.1-20.7,9.9,2,11,8,5.9,16.4-.7,1.2-1.1,5.3-2.5,5Z"/>
  <g>
    <path class="st1" d="M94.9,59.9c-4-5.9-18.4-30-14.7-35.8,12.1-7.4,24.4-14.7,36.9-21.4,5.6-4.6,9.4,2.7,11.9,6.9,22,50,13.2,28.8-23.9,55.3-5.7,3.8-7.4-.6-10.1-5Z"/>
    <path class="st1" d="M29.1,80.7c-18-13.2-17.8-7.3-7.7-26,2.5-5.3,13.3-28.4,20-24.6,7.8,6.8,17,11.7,25,18.2,3.2,2.8,8.3,4.2,9,8.8-8.1,11.1-12.7,25.9-24.1,34.9-8.2-.2-15-7.7-22.3-11.3Z"/>
    <path class="st0" d="M21.4,54.7c-10.1,18.8-10.3,12.8,7.7,26,7.3,3.5,14.1,11.1,22.3,11.3,11.4-9,15.9-23.7,24.1-34.9-.7-4.6-5.8-6.1-9-8.8-8.1-6.5-17.2-11.4-25-18.2-6.7-3.9-17.5,19.2-20,24.6ZM13.7,70.6c-2.6-5.1,4.4-9.8,5.7-14.6,2.8-5.8,14.5-31.3,22.2-27.2,7.1,6.2,15.2,10.9,22.8,16.5,4.2,4,14.5,7.1,11.7,14.4-.7.8-1,1.8-1.8,2.2-3.3,1.7-4.2,6.3-6.4,9.3-3.1,8.5-9.1,15.4-15.5,21.6-4.6,4.2-34.1-17.6-38.7-22.1Z"/>
    <path class="st0" d="M80,32.9c-2.6-5.4-3.4-8.7,2.4-11.9,9.1-5.7,19.2-9.7,27.8-16-1.3.2-2.3.8-3.6.4,20-7.6,14.7-9.5,27.7,10.3-.3,3-1.8-2.1-2.6-2.6,1.8,10.2,19.6,30.1,4.5,36.5-8.7,3.6-17.5,7.4-25.4,12.7-8,5.8-12.3,8.5-17.6-1.8.9-.2,1.4,1.5,2,1.5-.1-.2-.2-.5-.5-.5-6.4-8.8-10.8-18.4-14.7-28.5ZM80.2,24.2c-3.7,5.7,10.7,29.9,14.7,35.8,2.7,4.4,4.5,8.8,10.1,5,37.2-26.5,45.9-5.3,23.9-55.3-2.5-4.2-6.3-11.5-11.9-6.9-12.5,6.7-24.8,14-36.9,21.4Z"/>
  </g>
  <path class="st0" d="M144.8,50.2c-1,.4-2.5,2.5-3.5,1.4.2-1.6,4.6-2.8,6-4,6.4-4.6-3.8-14.7-4.2-20.6,3,3.7,4.5,8.5,6.7,12.8,3.3,5.2-.6,8.2-5.1,10.4Z"/>
  <path class="st0" d="M157.4,47.4c-1.8.8-3.8,4.3-5.8,3.3.7-2.5,6.9-2.8,3.9-6.4-1.2-3.4-4.2-6.3-4.6-9.6,1.8,3.2,7.7,9.2,6.5,12.7Z"/>
</svg>