<?xml version="1.0" encoding="UTF-8"?>
<svg id="Layer_1" xmlns="http://www.w3.org/2000/svg" version="1.1" viewBox="0 0 20.3 20.3">
  <!-- Generator: Adobe Illustrator 30.5.1, SVG Export Plug-In . SVG Version: 2.1.4 Build 3)  -->
  <defs>
    <style>
      .st0 {
        fill: #f9eec5;
      }

      .st1 {
        fill: #231f20;
        stroke: #fff;
        stroke-width: .5px;
      }

      .st2 {
        fill: #3e3e3f;
      }
    </style>
  </defs>
  <circle class="st1" cx="10.2" cy="10.2" r="9.9"/>
  <path class="st2" d="M10.2,1C5.1,1,1,5.1,1,10.2s4.1,9.2,9.2,9.2,9.2-4.1,9.2-9.2S15.2,1,10.2,1ZM10.2,18.5c-4.6,0-8.4-3.8-8.4-8.4S5.6,1.8,10.2,1.8s8.4,3.8,8.4,8.4-3.8,8.4-8.4,8.4Z"/>
  <g>
    <path class="st0" d="M12.5,13.9s-.2,0-.2-.1c0,0,.2,0,.3,0,0,0,.2,0,.2-.1-.1,0-.3,0-.4,0s-.1,0-.1,0c.2,0,.3,0,.4-.1.1,0,0,0,0,0,0,0-.3,0-.4,0,0,0-.1,0-.2,0,.2,0,.4,0,.6-.2-.2,0-.4.2-.6.2-.2,0,0,0,0,0,.2,0,.4-.1.5-.2,0,0,.1,0,.2,0,0,0,0,0,0,0-.4,0-.8.3-1.2.1-.1,0-.2-.2-.2-.3,0-.1.1,0,.3,0,.1,0,.2,0,.3,0,.1,0,.4.1.6.2.1,0,0,0,0,0,0,0,0,0,0,0,0,0-.2,0-.3,0,0,0,0,0,0,0,0,0,.2,0,.2,0,.2,0,.3,0,.5,0h0s0,0,0,0h0c.1,0,.1-.2,0-.4,0-.1,0-.2,0-.1,0,.1,0,.2,0,.3,0,.1,0,0,0,0,0-.2,0-.5-.2-.5-.1,0,0,.1,0,.2h-.2s0,0,0,0c0,0,0,0,0,.1,0,0-.2,0-.3-.1-.2-.1-.4-.4-.7-.4-.2,0-.3.2-.4,0-.2,0,0-.3,0-.5,0-.1,0-.2,0-.3,0,0,0,0,0,.1v.3c.1-.1,0-.2,0-.4.2.2,0,.5-.2.6,0,0,.1,0,.2,0,.1,0,.2-.2.2-.4.2,0,.5,0,.7.1,0-.1-.1-.2-.2-.2.2,0,.3.2.4.4.1.1,0,0,0,0l-.3-.4c.2,0,.2.2.3.4,0,.1.2.2.4.3v.2c.1-.2,0-.3-.2-.4-.2-.2-.4-.5-.4-.8,0,0,.1.2.2.3.2.2.4.4.5.7h0c0,0,0-.1-.1-.2-.1-.2-.3-.3-.4-.5-.2-.3-.4-1-.8-1-.1,0-.4,0-.5.2,0,0,.1,0,.2,0,0,0,.2,0,.3,0,.4,0,.5.7.1.9,0,0-.4,0-.3,0,0-.1.2,0,0-.1-.1-.1-.3,0-.5,0,0,0,.1,0,.2,0,.1,0,.2,0,.3,0,0,0,0,0-.1,0-.3,0-.6,0-.9,0h.5c0-.1,0-.1,0-.1-.2,0-.3,0-.5,0-.2,0-.1,0-.2,0,0,.1.1.2.2.3l.6.2c-.4,0-1-.2-1-.6s.3-.5.5-.7c.1-.2.2-.4.4-.6.1-.2.5-.6.6-.8.1-.5-.4-.6-.1-1.3.3-.7.5-.7.4-1.4-.2-1.7-2.4-3.2-4.1-3.2-.3,0-.6,0-.8,0,.3-.2.7-.3,1-.4,1.8-.3,4,.2,5.5,1.1,3.9,2.3,4.9,7.5,1.8,11-2.3,2.6-5.9,3.4-9,1.7-.5-.3-.7-.4-1-.7-.2-.1-.4-.3-.5-.5,0,0,0,0,0,0,.5.2.8.5,1.3.6,1.3.3,3.2-.2,4-1.3.2-.2.5-.8.7-.9.2-.1.4,0,.5,0,.1,0,.2,0,.3.2,0,0,0,0,0,0-.2-.2-.4-.2-.7-.2h0c.2,0,.4-.1.6,0,.2.2.2.2.3.2.2,0,.2,0,.3,0,0,0,0,0,0,0,0,0-.2,0-.2,0-.1,0-.3,0-.4-.2.1,0,.2,0,.3,0h.1c0,0-.2,0-.3,0h0ZM15.8,5.6c-1-1.2-2.5-2.1-4-2.5-.4,0-.8-.2-1.2-.2-.4,0-.2,0-.2,0,.1,0,.2,0,.4,0,1,.2,2.3.8,3.1,1.4,1.7,1.2,3,3.9,2.5,6,0,0-.1.4-.1.4,0,0,0,0,0,0h0c.2-.5.2-1.1.2-1.6,0-1-.3-1.8-.8-2.7-.5-.9-.6-1-1-1.4-1.1-1-2.4-1.8-3.9-2.1,0,0,0,0,0,0,.7.2,1.3.5,2,.8.2.1.5.3.7.4.2.2,0,0,0,0s0,0,0,0,.2.2.2.2c.2.1.4.3.5.5,0,0,0,0,0,0-.2,0-.3-.2-.5-.3-.1-.1-.1,0-.2-.1l.4.4c0,0-.1,0-.2.1.1,0,.2,0,.3,0,.4,0,.7.5.5.9,0,0,0,.1-.1.2-.3.2-.5,0-.8-.2s-.2-.3-.2-.5c-.2,0,0,.3,0,.4.1.2.4.4.7.5.3,0,.1,0,.2,0,.1,0,.1.3.3.4l-.2-.4h.1c0,0,.3.5.3.5h0c0-.2-.3-.4-.3-.6,0-.1,0-.1,0-.1,0,0,0,0,0,0,0,0,.1.2.2.2.1.2.3.4.3.6.2.4.3.8.4,1.2,0,0,0,0,0,0-.1-.3-.2-.5-.4-.7,0,0-.2-.3-.2-.3,0,0,0,0,0,0,.2.3.4.6.5.9,0,0,0,.1,0,.2-.2-.2-.3-.4-.5-.6,0,0-.3-.4-.4-.4,0,0,0,0,0,0l.9,1.2c0,.1.2.3.2.4,0,0,0,0,0,0,0-.1,0-.2,0-.3-.1-.8-.5-1.5-.8-2.1-.2-.3-.3-.3-.3-.6,0,0,0,0,0,0,.4.7.9,1.3,1.1,2,.2.8.4,1.9.2,2.7,0,.2-.1.4-.3.4,0,0,.1-.2.2-.3.1-.3.2-1.2.1-1.5,0,0,0,0,0,0,0,.6,0,1.3-.3,1.8h-.2c.2,0,.3-.3.3-.6,0,0,0,0,0,0,0,.1-.2.4-.3.5-.3.3-.7.6-.7,1,0,.1,0,.2,0,.3-.1-.1-.2-.4-.1-.5.1-.4.6-.6.7-1,0,0,0,.1-.1.2-.3.4-.7.7-.6,1.2.1.5.1.2.2.4.2.4,0,.9-.2,1.3h0c.1-.2.3-.4.4-.7,0,0,.1-.3.2-.3,0,0,0,0,0,0,0,.5-.7,1.3-1.1,1.6-.4.3-.3.2-.3.2,0,0,0,0,0,0h0c.1-.2.3-.3.4-.4.1-.1.3-.3.3-.4,0,0,0,0,0,0-.2.2-.4.4-.6.5-.2.2-.2.2-.2.2-.1,0-.3-.1-.4,0,0,0,.1,0,.1,0,.3,0,.4.3.2.6-.2.3-.9.5-1,0,0-.1,0-.2.1-.3,0,0-.2.1-.2.2,0,0,0,.2,0,.2,0,0-.3.2-.3.2-.1,0-.4.2-.5.3s-.4.2-.6.2c0,0,0,0,0,0,.5,0,1-.4,1.4-.6.1,0,0,.2-.1.2-.5.3-1.4.6-2,.8-.2,0-.4,0-.6.1,0,0,0,0,0,0,.2,0,.6,0,.9-.2.2,0,.4-.1.6-.2.5-.1.9-.4,1.4-.6,0,0,0,0,0,0,0,0-.3.2-.3.2-.7.4-1.7.7-2.5.8-.6.1-1.3.1-1.9,0,0,0,0,0,0,0,1.6.4,3.4-.3,4.8-1,0,0,.2-.2.3-.1-.2.1-.4.3-.6.4-1.2.7-3,1.2-4.4.9-.2,0-.3,0-.4-.1,0,0,0,0,0,0,.2,0,.4.2.6.2,1,.2,1.8.2,2.7-.1.6-.2,1.3-.5,1.8-.8.7-.3,1.3-.8,1.8-1.2,0,0,0,0,0,0-.5.5-1,.8-1.6,1.2-1,.5-2.2,1.1-3.3,1.2-.7,0-1.2,0-1.8-.2-.1,0-.3-.1-.5-.1,0,0,0,0,0,0,.1,0,.6.3.8.3,1.8.6,3.5.4,5.2-.4,4.2-2.1,5.5-7.3,2.4-10.9h0ZM12.1,3.8c-.2,0-.5-.3-.7-.3l.7.3h0s0,0,0,0ZM13.4,4.7c-.3-.3-.7-.5-1-.7,0,0-.1,0-.1,0l1.2.7h0ZM13.1,4.8s-.2-.2-.2-.2h0c0,0,.2.2.2.2ZM14.3,5.4c-.3-.1-.6,0-.5.4,0,0,.1.3.2.3,0,0,0,0,0,0,0,0,0,0,0-.1,0,0,0-.2,0-.3v.2c.2,0,.3.1.3.2.1,0,0-.1,0-.2,0,0-.2-.1-.2-.3.2,0,.4.2.4.4,0,0,0,0,0,0,0-.2-.3-.4-.5-.4,0,0,.2,0,.3,0,.2,0,.3.2.3.4h0c0-.2,0-.2,0-.3,0-.1-.2-.1-.3-.2h.1s0,0,0,0h0ZM13,5.6s0,0,0,0c0,0,.2.3.2.3l-.2-.3h0ZM13.6,6.6c-.4,0-.8,0-1.1.3,0,0,0,0,0,0,.4-.2.5-.2,1-.3.5,0,0,0,0,0h0ZM14,6.6c-.1,0-.3,0-.4,0,0,0,.2,0,.3,0,0,0,0,0,.1,0h0ZM13.8,6.8c-.4-.2-.9,0-1.3.2,0,0,.1,0,.2,0,.3,0,.6-.2.9-.2h.2s0,0,0,0ZM13.7,7c-.2,0-.4,0-.6,0-.2,0-.3,0-.4.1-.1,0,0,0,0,0,0,0,.3-.1.3-.1.2,0,.5-.1.7,0,.3,0,0,0,0,0h0ZM15.9,9.1c0-.2,0-.4-.2-.6-.1-.3-.7-.9-.9-1.1,0,0,0,0,0,0,.3.4.6.7.8,1.1,0,.1.1.2.2.3,0,.1,0,.2.1.3h0ZM12.1,7.7v.3s0,.2,0,.3c0,0,.1.2.2.2h-.2c.2,0,.3.2.5.3h-.3c0,0,0,0,0,0,0,0,.4.2.4.2h-.3s0,0,0,0c0,0,.1,0,.2.1,0,0,0,0,0,0,0,0,0,0-.1,0,0,0,0,0,0,0l.2.2h-.2s.1,0,.1,0c0,0,0,.2-.2.1,0,0,0,0,0,0,0,0,.1,0,0,.1s-.1,0-.2,0c.1,0,.1.2,0,.2,0,0,0,.1-.1.2-.1.2-.3.4-.4.5,0,0,0,0,.1,0,.2-.2.3-.4.5-.6s0,0,0,0l-.5.7s.1,0,.1,0c.4-.3.6-.8.9-1.2,0,0,0,0,0,0,0,.2-.3.5-.4.7,0,.2,0,.2,0,.2,0-.3.3-.5.5-.7,0,.1-.1.2-.2.3,0,.1-.1.3-.1.4l.2-.5s.1-.1.1-.1c-.1.1-.2.3-.2.4,0,.2,0,.4,0,.3,0-.3,0-.6.3-.8-.1.2-.2.5-.1.8,0,0,.1.2.2.2,0,0,0-.1,0-.1,0-.2,0-.4,0-.5,0,0,0,0,0,0,0,.3,0,.5.4.6,0,0,0,0,0,0-.2-.1-.4-.3-.4-.5,0,.1.3.2.4.2,0,0,.2,0,0,0-.2,0-.5,0-.4-.3,0,.2.5.2.7.1s.3-.1.4-.2c0,0-.2.2-.3.2,0,0-.3.1-.3.1,0,0,.2,0,.2,0,.1,0,.3-.1.4-.2h0c0,0-.5.3-.5.3,0,0,.2,0,.3,0,0,0,.3-.2.3-.2,0,0,.1,0,.1,0-.2.2-.4.2-.6.3,0,0,0,0,0,0,.1,0,.5-.2.6-.2,0,0,0,0,.1-.1h.2s0,0,0,0c0,0-.1,0-.2,0,0,0,0,0,0,0,.2.2.6.1.8,0,.2-.2,0,0,0,0-.2.1-.5.2-.8,0,0,0,0,0,0,0,.1,0,.2,0,.4,0,.1,0,.3,0,.4-.2h0s0,0,0,0c-.1,0-.2-.1-.3-.2-.1,0-.2-.2-.3-.3,0-.1-.2-.4-.4-.5,0,0,.2.1.2.1.3.3.4.5.8.7,0,0,.1,0,.2,0,0,0,0,0,0,0-.1-.1-.3-.2-.4-.4-.3-.4-.5-.8-1-1-.3-.1-1,0-1.3,0-.1,0,0,0-.2,0-.1,0,0,0-.1,0v.2c0,0-.1,0-.2-.2,0,0,0,.2,0,.2,0,0,0,0,0,0,0-.2,0-.3,0-.5,0-.2,0,0,0,0,0,.1,0,.2,0,.4,0,.1,0,.2,0,.3,0,0-.1-.2-.1-.3,0,0,0-.2,0-.3h0ZM14.9,7.8h0c.1.2.3.4.4.6.1.2.2.4.3.6,0,0,0,0,0,0,0,0,0,0,0,0,0,0,0,0,0,0-.1-.2-.4-.6-.6-.7-.2-.2,0,0-.1,0,0,.1.2.2.2.3s.2.3.2.4c0,0,.2.2.3.3h0s.1.1.1.1c0,0,0-.1,0-.2-.2-.5-.5-.8-.8-1.2-.4-.4,0,0,0,0h0ZM15.6,9.7l-.3.2c0,0-.4,0-.4.1,0,0,0,0,0,0,.1,0,.2,0,.4,0,0,0,.2-.2.2-.2h0ZM15.7,9.8s0,0,0,0c0,0,0,0-.2.1h0c.1,0,.2,0,.2-.2ZM15.1,10s-.3,0-.2,0c0,0,.2,0,.2,0ZM14.9,10.8s0,0,0,0c0,0-.1.1-.1.2,0,0-.3.4-.2.4h0s.4-.6.4-.6h0ZM12.9,11.2c-.1-.1-.1-.3-.3-.4,0,.1.1.3.3.4ZM12.1,11.6c.3,0,.4-.2.4-.4,0,0,0-.2,0-.1,0,.2,0,.3,0,.4,0,0-.1-.1-.2-.1,0,0,.1,0,.1.1s0,0,0,0c0,0,0,0,0,0h0ZM14.5,11.5c0,0,0,.2,0,.2,0,.4.3.6.3,1,0,.2,0,.5-.2.7,0,0,0,.1-.1.2,0,0,0,0,0,0,.3-.3.4-.8.4-1.2,0-.2-.2-.4-.3-.6,0-.1,0-.3,0-.4h0ZM14.2,13.7s0,0,0,0c.2-.3.3-.8.2-1.1s-.2-.3-.2-.5c0-.1,0-.2,0-.3,0-.1,0,0,0,0,0,.4.2.7.3,1,0,.4,0,.7-.2,1h0ZM14.1,13.7s0,0,0,0c.3-.5.2-1,0-1.6,0,0,0,0,0,0,0,.2.1.4.2.6,0,.4,0,.7-.2,1.1h0ZM12,11.9c0,0,.2,0,.3,0,0,0,.1,0,.2,0-.1-.1-.4-.2-.5-.1,0,0,0,0,0,0ZM12.4,12.1s-.2,0-.2,0c0,0-.2,0-.2,0,0,0,.2,0,.3,0,0,0,.2,0,.1,0h0ZM13.9,13.7c.2-.3.3-.7.2-1.1,0,0,0,0,0,0,0,.4,0,.6-.1.9-.1.3-.1.1,0,.1h0ZM13.8,13c0,0,0,.2,0,.3,0,0-.1.3-.1.3,0,0,0,0,0,0h0c.1,0,.2-.3.2-.5,0,0,0-.3,0-.3,0,0,0,0,0,.1h0ZM13.3,12.9h0c0,0,0,.2,0,.3h-.2c.2.1.2-.1.2-.3h0ZM12,13.2s0,0,0,0c-.1,0-.2,0-.4,0,0,0,0,0,0,0,.1,0,.2,0,.4,0h0ZM13.4,13.4l-.3.2c0,0,.3-.1.3-.2ZM12.8,14.6l.4-.2s0,0,0,0c0,0-.4.2-.3.2h0ZM13.5,14.6s-.2,0-.3,0c-.3,0-.6.7,0,.6.2,0,.5-.2.5-.4,0-.2,0-.2-.2-.2h0ZM10.8,15.1c.1,0,.2-.1.3-.2.1-.1.2-.3.3-.5l-.3.4-.3.3h0ZM10.8,15.3c.3-.1.6-.4.7-.7,0,0,0,.1-.1.2,0,.1-.2.2-.3.3-.1,0-.3.2-.3.2h0ZM11.7,14.8s-.1.1-.2.1c0,0-.2.1-.3.2,0,0,0,0,0,0,.2,0,.4-.2.5-.4h0ZM11.9,15l-.3.2h0c0,0,0,0,0,0,0,0,.3-.2.3-.2h0ZM9.8,16.4c-.1,0-.2,0-.3,0-.1,0,0,0,0,0,.1,0,.3,0,.4,0h0ZM9.3,16.4c-.1,0-.3,0-.4,0,0,0,0,0,0,0,.2,0,.3,0,.5,0,.2,0,0,0,0,0h0Z"/>
    <path class="st0" d="M11.9,12.5c-.1,0-.3.1-.4.1,0,0,0,0,0,0,0,0,.1,0,.2,0,0,0,.1,0,.2,0h0Z"/>
    <path class="st0" d="M12,13.6s0,0,0,0c0,0-.1,0-.2,0s-.1,0-.2,0c0,0,0,0,0,0h.4s0,0,0,0h0Z"/>
    <path d="M15.8,5.6c3.1,3.6,1.8,8.9-2.4,10.9-1.7.8-3.4,1-5.2.4-.2,0-.7-.2-.8-.3,0,0,0,0,0,0,.1,0,.3.1.5.1.6.2,1.2.2,1.8.2,1.1,0,2.4-.6,3.3-1.2,1-.5,1.1-.7,1.6-1.2,0,0,0,0,0,0-.6.4-1.2.9-1.8,1.2-.6.3-1.2.6-1.8.8-.9.3-1.7.4-2.7.1-.2,0-.4-.1-.6-.2,0,0,0,0,0,0,.1,0,.3.1.4.1,1.4.3,3.2-.2,4.4-.9.2-.1.4-.3.6-.4,0,0-.2.1-.3.1-1.4.7-3.2,1.4-4.8,1,0,0,0,0,0,0,.6,0,1.3,0,1.9,0,.8-.1,1.8-.4,2.5-.8.7-.4.3-.2.3-.2s0,0,0,0c-.5.2-.9.5-1.4.6-.2,0-.4.1-.6.2-.2,0-.6.2-.9.2s0,0,0,0c.2,0,.4,0,.6-.1.6-.1,1.5-.5,2-.8,0,0,.3-.2.1-.2-.4.2-.9.5-1.4.6,0,0,0,0,0,0,.2,0,.4-.2.6-.2.2,0,.4-.2.5-.3s.3-.2.3-.2c0,0,0-.1,0-.2s.1-.2.2-.2c0,.1-.1.2-.1.3,0,.5.8.2,1,0,.2-.2,0-.5-.2-.6-.3,0-.2,0-.1,0,.1,0,.3,0,.4,0,.1,0,.2-.1.2-.2.2-.2.4-.4.6-.5,0,0,0,0,0,0,0,0-.3.3-.3.4-.1.1-.3.3-.4.4h0c0,0,0,0,0,0,0,0,.3-.2.3-.2.4-.3,1-1.1,1.1-1.6,0-.5,0-.1,0,0,0,0-.1.3-.2.3-.1.2-.3.5-.4.7h0c.2-.4.3-.9.2-1.4-.2-.4-.2-.2-.2-.4-.1-.5.3-.9.6-1.2.3-.4,0-.1.1-.2-.1.4-.6.6-.7,1-.1.4,0,.4.1.5,0-.1,0-.2,0-.3,0-.5.4-.7.7-1,.1-.1.2-.4.3-.5,0-.1,0,0,0,0,0,.3-.2.5-.3.7h.2c.4-.7.2-1.3.3-1.9,0,0,0,0,0,0,0,.3,0,1.2-.1,1.5,0,.1,0,.2-.2.3.2,0,.3-.2.3-.4.2-.8,0-1.9-.2-2.7-.2-.7-.7-1.4-1.1-2,0,0,0,0,0,0,0,.3.1.4.3.6.4.6.7,1.3.8,2.1.1.7,0,.2,0,.3s0,0,0,0c0-.2-.1-.3-.2-.4l-.9-1.2s0,0,0,0c0,0,.3.3.4.4.2.2.3.4.5.6,0,0,0-.1,0-.2-.2-.3-.3-.6-.5-.9,0,0,0,0,0,0,0,0,.2.3.2.3.2.2.3.5.4.7,0,0,0,0,0,0-.1-.4-.3-.8-.4-1.2s-.2-.4-.3-.6c-.1-.2-.2-.2-.2-.2,0,0,0,0,0,0s0,.1,0,.1c0,.1.2.4.3.5h0s-.3-.5-.3-.5h-.1c0,0,.2.5.2.5-.2,0-.1-.3-.3-.4s-.1,0-.2,0c-.3,0-.5-.2-.7-.5,0,0-.1-.4,0-.4,0,.2,0,.4.2.5.2.2.5.3.8.2,0,0,.1,0,.1-.2.2-.4-.2-.8-.5-.9-.1,0-.2,0-.3,0,0,0,.1,0,.2-.1l-.4-.4c0,0,.1,0,.2.1.1.1.3.3.5.3,0,0,0,0,0,0-.1-.2-.3-.3-.5-.5-.2-.1-.2-.2-.2-.2,0,0,0,0,0,0s0,0,0,0c-.2-.2-.5-.3-.7-.4-.7-.4-1.3-.6-2-.8-.7-.2,0,0,0,0,1.5.3,2.8,1.1,3.9,2.1.4.4.7.9,1,1.4.5.9.7,1.7.8,2.7,0,.5,0,1.1-.2,1.6h0s0,0,0,0c0,0,.1-.4.1-.4.5-2.1-.8-4.8-2.5-6-.9-.6-2.1-1.2-3.1-1.4-.1,0-.2,0-.4,0,0,0,.2,0,.2,0,.4,0,.8.1,1.2.2,1.6.4,3,1.2,4,2.5h0ZM13.8,4.2c-.2-.2-.4-.3-.7-.4l.6.4h0s0,0,0,0ZM15.1,5.4c-.3-.3-.7-.8-1-1-.3-.2-.1,0-.2,0,.4.4.9.8,1.3,1.3.6.8,1,1.8,1.2,2.8.1.8.1,1.7-.1,2.5h0c.3-.9.3-2,0-2.9-.2-.9-.8-1.9-1.3-2.6h0s0,0,0,0ZM16.6,8s0-.3,0-.4c-.2-.6-.5-1.3-.9-1.8h0c.7,1,1.1,2.1,1.1,3.2,0,.5,0,1-.1,1.5,0,.1-.1.4-.1.5s0,0,0,0c0,0,0,0,0-.1.2-.7.3-1.7.2-2.4,0-.7,0-.4,0-.6,0-.1,0,0,0,0h0ZM16.9,9.4c0-.3,0-.7,0-1v-.3c0,.3,0,.6,0,.9,0,.1,0,.2,0,.4,0,.2,0,0,0,0ZM17,10.9c.2-.5.2-1.1.2-1.6l-.2,1.6ZM16.7,11.5c.1-.6.3-1.2.3-1.9,0,0,0,0,0,0,0,.1,0,.3,0,.5,0,.2,0,.3,0,.5,0,.2-.2.6-.2.8,0,0,0,0,0,0h0ZM17.2,10.8c0,0,0,0,0,0-.1.4-.2.7-.3,1.1-.3.9-.9,1.7-1.5,2.5,0,0,0,0-.1.1,0,0,.2-.1.2-.2.8-.8,1.4-2,1.7-3.1,0-.2,0-.3.1-.5h0ZM17,11c0,0,0,0,0,0,0,.4-.2.7-.3,1.1,0,0,0,0,0,0,.2-.3.3-.7.3-1.1h0ZM16.2,12.2c.2-.2.4-.8.2-1.1-.6-.6-1.6.2-1.4.9.2.5.8.5,1.2.2h0ZM15.6,13.8c0,0,.1-.1.2-.2.3-.3.5-.8.7-1.2,0,0,0-.2,0-.2v.2c-.2.2-.3.4-.5.6-.2.3-.4.5-.5.8h0ZM16.1,12.5s0,0,0,0c-.2.3-.4.7-.6,1l-.7.9c.2-.2.4-.4.6-.6.3-.4.5-.8.7-1.3h0ZM15.1,12.5h0s-.1.7-.1.7l.2-.4v-.3h0ZM15.6,12.6s0,0-.1,0c-.1.1-.2.3-.3.5-.4.6-.8,1.1-1.4,1.5h0c0,.1.1,0,.1,0,.2-.1.4-.3.6-.5.5-.5.8-1,1-1.6h0ZM13.8,15.1s.2-.1.2-.1c.5-.4,1-.9,1.3-1.4.2-.3.3-.6.4-.9l-.6.9c-.2.3-.5.7-.8.9-.2.2-.5.3-.7.6h0ZM14.5,15.6c.3-.3.7-.6,1-.9.3-.3.3-.4.5-.6-.1.1-.2.3-.4.5-.3.3-.7.6-1,.9-.2.2-.3.3-.5.4,0,0,0,0,0,0,.2,0,.3-.2.4-.3h0ZM14.3,15.2h.2c.3-.4.7-.7.9-1,0,0-.1.2-.2.3,0,0-.2.2-.3.3-.2.2-.4.3-.6.5h0ZM14.6,15.2s0,0,0,0c-.3.2-.6.6-1,.8l-.8.4s0,0,0,0c0,0,.2-.1.3-.2.4-.2.8-.5,1.2-.8.3-.3.3-.2.2-.2h0ZM14,15.4s-.4.2-.4.3c-.9.6-2.5,1.4-3.6,1.5,0,0,0,0,0,0,.2,0,.4,0,.5,0,.8-.2,1.7-.6,2.4-1,.7-.4.7-.4,1-.7h0ZM13.2,16.4c-.1,0-.2,0-.3.1-.5.2-1,.3-1.6.5,0,0,0,0,0,0,.4,0,.9-.2,1.3-.4.4-.2.4-.2.6-.3h0Z"/>
    <path d="M12.1,7.7c0,0,0,.2,0,.3,0,0,.1.2.1.3,0,0,0-.2,0-.3,0-.1,0-.2,0-.4,0,0,0,0,0,0,0,.2,0,.3,0,.5,0,.2.1.2,0,0,0,0-.1-.2,0-.2,0,.1.1.2.2.2v-.2s0,0,0,0c.1,0,.1,0,.2,0,.3-.1,1-.1,1.3,0,.5.2.7.6,1,1s.2.2.4.4c.1.1,0,0,0,0,0,0-.1,0-.2,0-.4-.2-.5-.4-.8-.7-.3-.3-.2-.2-.2-.1.1.2.2.4.4.5.1.2.2.2.3.3,0,0,.2.1.3.2h0s0,0,0,0c0,0-.3.2-.4.2-.1,0-.2,0-.4,0-.1,0,0,0,0,0,.3.1.5,0,.8,0,0,0,0,0,0,0-.2.2-.6.2-.8,0,0,0,0,0,0,0,0,0,.1,0,.2,0,0,0,0,0,0,0h-.2s0,0-.1,0c-.1,0-.5.2-.6.2-.1,0,0,0,0,0,.2,0,.5-.1.6-.3,0,0,0,0-.1,0,0,0-.2.1-.3.2,0,0-.2,0-.3,0l.5-.3h0c-.1,0-.3,0-.4.1-.1,0-.2,0-.2,0,0,0,.3,0,.3-.1,0,0,.3-.2.3-.2-.2,0-.3.1-.4.2-.2,0-.6,0-.7-.1-.1.2.2.3.4.3.1,0,0,0,0,0-.1,0-.3,0-.4-.2,0,.2.2.4.4.5,0,0,0,0,0,0-.3-.1-.3-.4-.4-.6,0-.3,0,0,0,0,0,.2,0,.4,0,.5,0,0,.2.2,0,.1,0,0-.1-.2-.2-.2-.1-.3,0-.5.1-.8-.2.2-.3.5-.3.8,0,0,0-.3,0-.3,0-.2,0-.3.2-.4,0,0-.1,0-.1.1l-.2.5c0-.1,0-.3.1-.4,0-.1.1-.2.2-.3-.2.2-.4.4-.5.7,0,0,0-.2,0-.2,0-.2.3-.5.4-.7,0,0,0,0,0,0-.3.4-.5.9-.9,1.2,0,0-.1,0-.1,0l.5-.7c0,0,0-.1,0,0-.2.2-.3.4-.5.6,0,0,0,0-.1,0,.2-.1.3-.3.4-.5.1-.2.1-.1.1-.2.2,0,.2,0,0-.2,0,0,.2,0,.2,0,0,0-.1,0,0-.1,0,0,0,0,0,0,0,0,.1,0,.2-.1,0,0-.2,0-.1,0h.2s-.2-.1-.2-.1c0,0,0,0,0,0,0,0,0,0,.1,0,0,0,0,0,0,0,0,0-.1,0-.2-.1,0,0,0,0,0,0h.3c0,0-.4-.1-.4-.1h0s.3,0,.3,0c-.1-.1-.3-.2-.5-.3h.2c0,0-.2-.1-.2-.2,0,0,0-.2,0-.3v-.3h0ZM13.8,8.7c.2,0,.3.2.4.3h0c.2.2.4.5.8.5h-.2c-.3-.2-.4-.5-.6-.8,0,0,.1,0,.1,0,0,0,.1.2.2.3.2.2.4.4.7.4,0,0,0,0,0,0-.6-.2-.6-.7-1-1,0,0-.2-.2-.3-.2l.3.4-.4-.2s0,0-.1,0c0,0,0,0,0,0,.2,0,.3.2.5.4,0,0,0,.1,0,.1-.2-.2-.5-.4-.9-.5l.5.2s0,0,0,0c-.2,0-.5-.2-.7-.2,0,0,0,0,0,0,0,0,.2,0,.3,0,.2,0,.3.1.4.2,0,0,0,0,0,0h0ZM14.5,8.5c0,0-.1,0-.2-.1h-.1c.4.3.5,1,1.2,1.1l-.3-.2c-.3-.2-.4-.5-.6-.8ZM13.5,8.7c0,0-.2,0-.3,0,0,0,0,0,0,.1,0,0-.3.2-.3.2.2,0,.4,0,.7,0,.3.1.5.4.9.5,0,0,0,0,0,0,0,0-.2-.1-.3-.2-.2-.2-.4-.5-.8-.6h0ZM13.3,9.3c0,.1,0,.3,0,.4,0,0,0-.3,0-.4h0ZM13.7,9.3c0,0,0,.1,0,.1.1,0,.1-.2,0-.1ZM14.1,9.5c0,0-.1,0-.2,0,0,0,0,.1-.1.2,0,0,0,0,0,0,.2,0,.2,0,.3-.2h0Z"/>
    <path d="M13.5,14.6c0,0,.2,0,.2.2,0,.2-.3.4-.5.4-.5,0-.3-.5,0-.6.3,0,.2,0,.3,0h0ZM13,15.1c.2,0,.5-.1.4-.3l-.2.2h-.2q0,.1,0,.1ZM13,15c.1,0,.3,0,.3-.2h-.1c0,.1-.2.2-.2.2h0Z"/>
    <path d="M14.9,7.8s0,0,0,0c.4.4.6.7.8,1.2.2.5,0,.2,0,.2v-.2c-.1,0-.2,0-.2,0,0-.1-.2-.2-.3-.3,0-.1-.2-.3-.2-.4,0-.1-.2-.2-.2-.3,0,0,0,0,.1,0,.2.2.4.5.6.7,0,0,0,0,0,0,0,0,0,0,0,0,0,0,0,0,0,0,0-.2-.2-.4-.3-.6-.1-.2-.3-.4-.4-.6h0Z"/>
    <path d="M14.3,5.4h0s-.1,0-.1,0c.1,0,.2,0,.3.2,0,.1,0,.2,0,.3h0c0-.2-.1-.4-.3-.4-.2,0-.3,0-.3,0,.2,0,.5.2.5.4,0,.2,0,0,0,0,0-.2-.3-.3-.4-.4,0,.1.1.2.2.3,0,0,.1.2,0,.2,0-.1-.1-.2-.2-.2v-.2c-.1,0-.1.2,0,.3,0,0,0,0,0,.1s0,0,0,0c0,0-.2-.2-.2-.3,0-.3.2-.5.5-.4h0Z"/>
    <path d="M14.5,11.5c0,.1,0,.3,0,.4,0,.2.2.4.3.6,0,.4,0,.9-.4,1.2,0,0,0,0,0,0,0,0,0-.1.1-.2,0-.2.2-.5.2-.7,0-.4-.3-.6-.3-1,0,0,0-.2,0-.2h0Z"/>
    <path d="M15.9,9.1c0,0,0-.2-.1-.3,0,0-.1-.2-.2-.3-.2-.4-.5-.7-.8-1.1,0,0,0,0,0,0,.2.2.8.8.9,1.1,0,.2.2.4.2.6h0Z"/>
    <path d="M14.2,13.7c.2-.3.3-.6.2-1,0-.4-.3-.7-.3-1,0,0,0,0,0,0,0,.1,0,.2,0,.3,0,.2.2.3.2.5,0,.4,0,.9-.2,1.1-.2.3,0,0,0,0h0Z"/>
    <path d="M14.1,13.7c.1-.4.2-.7.2-1.1,0-.2-.1-.4-.2-.6,0,0,0,0,0,0,.2.5.4,1,0,1.6,0,0,0,0,0,0h0Z"/>
    <path d="M13.8,6.8h-.2c-.3,0-.6,0-.9.2,0,0-.1,0-.2,0,.4-.2.9-.4,1.3-.2h0Z"/>
    <path d="M13.4,4.7l-1.2-.7s.1,0,.1,0c.4.2.7.4,1,.7h0Z"/>
    <path d="M13.6,6.6s0,0,0,0c-.5,0-.6,0-1,.3,0,0,0,0,0,0,.3-.2.7-.4,1.1-.3h0Z"/>
    <path d="M12.1,11.6s0,0,0,0c0,0,0,0,0,0,0,0-.1,0-.1-.1.1,0,.2,0,.2.1,0-.1,0-.3,0-.4,0,0,0,0,0,.1,0,.2-.1.5-.4.4h0Z"/>
    <path d="M13.9,13.7c0,0,0,0,0-.1.2-.3.2-.5.1-.9,0,0,0,0,0,0,.2.3,0,.8-.2,1.1h0Z"/>
    <path d="M10.8,15.3s.2-.2.3-.2c.1,0,.2-.2.3-.3,0-.1,0-.1.1-.2,0,.3-.4.6-.7.7h0Z"/>
    <path d="M10.8,15.1l.3-.3.3-.4c0,.2-.2.4-.3.5-.1.1-.2.2-.3.2h0Z"/>
    <path d="M15.6,9.7s-.2.2-.2.2c-.1,0-.2.1-.4,0-.1,0,0,0,0,0,0,0,.3,0,.4-.1l.3-.2h0Z"/>
    <path d="M13.7,7s0,0,0,0c-.3,0-.5,0-.7,0-.2,0-.3.1-.3.1,0,0,0,0,0,0,.1,0,.3-.1.4-.1.2,0,.4,0,.6,0h0Z"/>
    <path d="M13.8,13s0,0,0-.1c0,0,0,.2,0,.3,0,.2,0,.4-.2.5h0c0,0,0,0,0,0,0,0,.1-.3.1-.3,0,0,0-.2,0-.3h0Z"/>
    <path d="M14.9,10.8l-.4.5h0s.2-.3.2-.3c0,0,0-.1.1-.2,0,0,0,0,0,0h0Z"/>
    <path d="M11.7,14.8c-.1.2-.3.3-.5.4,0,0,0,0,0,0,0,0,.2-.2.3-.2,0,0,.1-.2.2-.1h0Z"/>
    <path d="M12.1,3.8h0s-.7-.3-.7-.3c.3,0,.5.2.7.3h0Z"/>
    <path d="M12,11.9s0,0,0,0c.2,0,.4,0,.5.1,0,0-.2,0-.2,0,0,0-.2,0-.3,0Z"/>
    <path d="M12.8,14.6s.3-.2.3-.2c0,0,0,0,0,0l-.4.2h0Z"/>
    <path d="M12,13.2c-.1,0-.3,0-.4,0-.1,0,0,0,0,0,.1,0,.2,0,.4,0,.1,0,0,0,0,0h0Z"/>
    <path d="M12.9,11.2c-.2,0-.2-.3-.3-.4.2,0,.2.3.3.4Z"/>
    <path d="M15.7,9.8c0,.1,0,.2-.2.2h0c0,0,.1-.1.2-.2,0,0,0,0,0,0Z"/>
    <path d="M13.3,12.9c0,.2,0,.4-.2.4h.2c0-.2,0-.3,0-.4h0,0Z"/>
    <path d="M9.8,16.4c-.1,0-.3,0-.4,0,0,0,0,0,0,0,.1,0,.2,0,.3,0h0Z"/>
    <path d="M11.9,15s-.3.2-.3.2,0,0,0,0h0c0,0,.3-.3.3-.3h0Z"/>
    <path d="M9.3,16.4c0,0,0,0,0,0-.2,0-.3,0-.5,0,0,0,0,0,0,0,.1,0,.3,0,.4,0h0Z"/>
    <path d="M14,6.6s0,0-.1,0c0,0-.2,0-.3,0,0,0,.3,0,.4,0h0Z"/>
    <path d="M12.4,12.1c0,0,0,0-.1,0,0,0-.2,0-.3,0,0,0,.2,0,.2,0,0,0,.2,0,.2,0h0Z"/>
    <path d="M13,5.6l.2.3s-.2-.3-.2-.3c0,0,0,0,0,0h0Z"/>
    <path d="M13.4,13.4c0,0-.2.2-.3.2l.3-.2Z"/>
    <path d="M13.1,4.8h-.2c0-.1,0-.2,0-.2,0,0,.3.2.2.2Z"/>
    <path d="M15.1,10c0,0-.2,0-.2,0,0,0,.2,0,.2,0Z"/>
    <path class="st0" d="M16.2,12.2c-.4.3-1,.3-1.2-.2-.3-.7.8-1.4,1.4-.9.3.3,0,.8-.2,1.1h0ZM16.1,11.9c0,0,.1-.2.2-.2,0-.1,0-.4,0-.5-.1-.1-.2-.1-.3-.1,0,0,0,0-.1,0-.4,0-.9.6-.7,1,.2.3.7.2.9,0,0,0,0,0,0-.1l-.2.2c0,0-.2,0-.3,0s0,0,0,0c.2,0,.4-.3.5-.5v-.3c.1.2.1.4,0,.5h0Z"/>
    <path class="st0" d="M15.1,5.4c.6.7,1.1,1.7,1.3,2.6.2,1,.2,2,0,3h0c.3-.8.3-1.7.1-2.5-.2-1-.6-2-1.2-2.8-.6-.8-.8-.9-1.3-1.3,0,0,.1,0,.2,0,.3.2.8.7,1,1h0s0,0,0,0Z"/>
    <path class="st0" d="M16.6,8s0,0,0,0c0,.1,0,.4,0,.6,0,.7,0,1.7-.2,2.4,0,0,0,.1,0,.1,0,0,0,0,0,0,0-.1.1-.4.1-.5.1-.5.1-1,.1-1.5,0-1.2-.5-2.2-1.1-3.2h0c.4.5.8,1.1.9,1.8,0,0,0,.4,0,.4h0Z"/>
    <path class="st0" d="M15.6,12.6c-.3.6-.6,1.2-1,1.6-.1.1-.4.4-.6.5,0,0-.1,0-.1,0h0c.6-.5,1-1,1.4-1.6,0-.1.2-.3.3-.5.1-.1,0-.1.1,0h0Z"/>
    <path class="st0" d="M14,15.4c-.3.3-.7.5-1,.7-.7.4-1.6.8-2.4,1-.2,0-.4,0-.5,0,0,0,0,0,0,0,1.1-.1,2.7-.9,3.6-1.5s.4-.3.4-.3h0Z"/>
    <path class="st0" d="M13.8,15.1c.2-.2.4-.4.7-.6.3-.3.5-.6.8-.9l.6-.9c0,.3-.3.6-.4.9-.3.5-.8,1.1-1.3,1.4,0,0-.2.2-.2.1h0Z"/>
    <path class="st0" d="M17.2,10.8c0,.2,0,.3-.1.5-.3,1.1-.9,2.3-1.7,3.1,0,0-.2.2-.2.2,0,0,0,0,.1-.1.6-.8,1.2-1.6,1.5-2.5.1-.3.2-.7.3-1.1,0,0,0,0,0,0h0Z"/>
    <path class="st0" d="M16.1,12.5c-.2.5-.4.9-.7,1.3-.2.2-.4.5-.6.6l.7-.9c.2-.3.4-.7.6-1,0,0,0-.1,0,0h0Z"/>
    <path class="st0" d="M14.5,15.6c-.2.1-.3.2-.4.3,0,0,0,0,0,0,.2-.1.4-.3.5-.4.3-.3.7-.6,1-.9.1-.1.2-.3.4-.5-.1.2-.3.4-.5.6-.3.3-.6.6-1,.9h0Z"/>
    <path class="st0" d="M14.6,15.2s-.2.2-.2.2c-.3.3-.8.6-1.2.8,0,0-.2.1-.3.2,0,0,0,0,0,0l.8-.4c.3-.2.6-.6,1-.8,0,0,0,0,0,0h0Z"/>
    <path class="st0" d="M16.7,11.5s0,0,0,0c0-.2.1-.6.2-.8,0-.2,0-.3,0-.5,0-.1,0-.3,0-.5s0,0,0,0c0,.6-.1,1.2-.3,1.9h0Z"/>
    <path class="st0" d="M15.6,13.8c.1-.3.4-.5.5-.8.1-.2.2-.4.3-.6v-.2c.1,0,0,.2,0,.2-.2.4-.5.8-.7,1.2,0,0-.1.1-.2.2h0Z"/>
    <path class="st0" d="M17,10.9l.2-1.6c0,.5,0,1.1-.2,1.6Z"/>
    <path class="st0" d="M13.2,16.4c-.2.1-.4.2-.6.3-.4.2-.9.3-1.3.4,0,0,0,0,0,0,.5-.2,1-.3,1.6-.5s.2-.1.3-.1h0Z"/>
    <path class="st0" d="M14.3,15.2c.2-.2.4-.3.6-.5.2-.2.2-.2.3-.3,0,0,.1-.2.2-.3-.2.4-.6.6-.9.9h-.2c0,.1,0,.1,0,.1Z"/>
    <path class="st0" d="M16.9,9.4s0,0,0,0c0-.2,0-.2,0-.4,0-.3,0-.6,0-.9v.3c.2.3.2.7.1,1Z"/>
    <path class="st0" d="M17,11c0,.4-.2.7-.3,1.1-.2.3,0,0,0,0,0-.4.2-.7.3-1.1,0,0,0,0,0,0h0Z"/>
    <polygon class="st0" points="15.1 12.5 15.1 12.7 14.9 13.2 15 12.5 15.1 12.5"/>
    <path class="st0" d="M13.8,4.2h0s-.6-.4-.6-.4c.2,0,.5.2.7.4h0Z"/>
    <path class="st0" d="M13.8,8.7s0,0,0,0l-.5-.2c.4,0,.6.2.9.5,0,0,0-.1,0-.1-.1-.2-.3-.3-.5-.4,0,0,0,0,0,0,0,0,0,0,.1,0l.4.2-.3-.4c.1,0,.2.1.3.2.4.3.4.8,1,1,0,0,0,0,0,0-.3,0-.5-.2-.7-.4,0,0-.1-.2-.2-.3,0,0-.2-.2-.1,0,.2.3.3.6.6.7h.2c-.4,0-.6-.3-.8-.6h0c-.1,0-.2-.2-.4-.2,0,0,0,0,0,0-.1,0-.3-.1-.4-.2,0,0-.3,0-.3,0,0,0,0,0,0,0,.2,0,.5.1.7.2h0Z"/>
    <path class="st0" d="M13.5,8.7c.4,0,.5.4.8.6,0,0,.2.2.3.2s0,0,0,0c-.3,0-.6-.4-.9-.5-.2,0-.4,0-.7,0,0,0,.2-.3.3-.2,0,0-.1,0,0-.1,0,0,.2,0,.3,0h0Z"/>
    <path class="st0" d="M14.5,8.5c.2.2.3.6.6.8l.3.2c-.6,0-.8-.8-1.2-1.1h.1c0,.1.1.2.2.2Z"/>
    <path class="st0" d="M14.1,9.5c0,.1-.2.2-.3.2,0,0,0,0,0,0,0,0,0-.1.1-.2,0,0,.1,0,.2,0h0Z"/>
    <path class="st0" d="M13.3,9.3h0s0,.3,0,.4c-.1-.1,0-.2,0-.4h0Z"/>
    <path class="st0" d="M13.7,9.3c.1,0,.1.2,0,.1,0,0-.1-.1,0-.1Z"/>
    <path class="st0" d="M13,15.1h.2c0-.1.2-.3.2-.3,0,.2-.2.3-.4.3h0Z"/>
    <path class="st0" d="M13,15h.2c0,0,.1-.2.1-.2,0,.1-.1.2-.3.2h0Z"/>
    <path d="M16.1,11.9c.1-.2.1-.3,0-.5v.3c-.2.2-.4.4-.6.5,0,0,0,0,0,0,0,0,.2,0,.3,0l.2-.2c0,0,0,0,0,.1-.2.2-.7.3-.9,0-.2-.4.3-1,.7-1,.4,0,0,0,.1,0,.1,0,.2,0,.3.1,0,.1,0,.3,0,.5,0,.1-.1.2-.2.2h0ZM15.3,12.2c.2,0,.3,0,.4-.1.2-.2.3-.5.3-.7v.2c-.2.2-.3.4-.5.5,0,0-.2,0-.2,0ZM15.8,11.3s0,0,0,0c-.1.2-.1.5-.4.6,0,0,0,0-.1,0,0,0,.1,0,.2,0,.2-.1.3-.4.3-.7h0ZM15.2,11.9c.2,0,.3-.2.3-.4,0,0,0,.2-.1.2h-.2Z"/>
    <path class="st0" d="M15.3,12.2s.2,0,.2,0c.2-.1.4-.3.5-.5v-.2c.1.3,0,.5-.2.7-.1.1-.2.2-.4.1Z"/>
    <path class="st0" d="M15.8,11.3c0,.2-.1.5-.3.7,0,0-.1,0-.2,0,0,0,0,0,.1,0,.2-.1.3-.4.4-.6.1-.2,0,0,0,0h0Z"/>
    <path class="st0" d="M15.2,11.9h.2c0-.2,0-.3.1-.3,0,.2-.1.4-.3.4h0Z"/>
  </g>
</svg>